SplineFontDB: 3.2
FontName: malayalam15ms
FullName: malayalam15ms
FamilyName: malayalam15ms
Weight: Regular
Copyright: github.com/zawa8/font hscii4(4phinger maths) hscii5
Version: w0.000
ItalicAngle: 0
UnderlinePosition: -125
UnderlineWidth: 50
Ascent: 800
Descent: 200
InvalidEm: 0
sfntRevision: 0x00010000
LayerCount: 2
Layer: 0 1 "Back" 1
Layer: 1 1 "Fore" 0
XUID: [1021 467 -1121320856 7943623]
UniqueID: 417572816
StyleMap: 0x0040
FSType: 0
OS2Version: 4
OS2_WeightWidthSlopeOnly: 0
OS2_UseTypoMetrics: 1
CreationTime: 1634401886
ModificationTime: 1743241711
PfmFamily: 81
TTFWeight: 400
TTFWidth: 5
LineGap: 0
VLineGap: 0
Panose: 0 0 0 0 0 0 0 0 0 0
OS2TypoAscent: 864
OS2TypoAOffset: 0
OS2TypoDescent: -383
OS2TypoDOffset: 0
OS2TypoLinegap: 0
OS2WinAscent: 864
OS2WinAOffset: 0
OS2WinDescent: 383
OS2WinDOffset: 0
HheadAscent: 864
HheadAOffset: 0
HheadDescent: -383
HheadDOffset: 0
OS2SubXSize: 650
OS2SubYSize: 600
OS2SubXOff: 0
OS2SubYOff: 75
OS2SupXSize: 650
OS2SupYSize: 600
OS2SupXOff: 0
OS2SupYOff: 350
OS2StrikeYSize: 50
OS2StrikeYPos: 332
OS2CapHeight: 714
OS2XHeight: 554
OS2Vendor: 'zawa'
OS2CodePages: 00000093.00000000
OS2UnicodeRanges: 80808043.00002042.00000000.00000000
MarkAttachClasses: 1
DEI: 91125
TtTable: prep
PUSHW_1
 511
SCANCTRL
PUSHB_1
 4
SCANTYPE
EndTTInstrs
ShortTable: maxp 16
  1
  0
  644
  292
  8
  195
  6
  1
  0
  0
  0
  0
  0
  0
  3
  1
EndShort
LangName: 16393 "github.com/zawa8/font hscii4(4phinger maths) hscii5" "malayalam15ms" "Regular" "malayalam15ms 0.000;zawa;hscii5 malayalam15ms-regular" "malayalam15ms" "wersion 0.0000" "malayalam15ms" "hscii5/4 fonts 5/4phingrmaths" "simbAls hscii4 github zawa8" "wimxl kumar merged and changed fonts" "merged changed by zawa8 pff(python fontforge)" "https://github.com/zawa8/font" "https://github.com/zawa8/pff" "please ask phur help/kuery at: https://github.com/zawa8/font/" "https://github.com/zawa8/font"

StartChar: exclam.mlym
Encoding: 33 33 3
Width: 600
Flags: W
LayerCount: 2
Fore
SplineSet
293.5 122.599609375 m 4,0,1
 272.700195312 122.599609375 272.700195312 122.599609375 261 135.799804688 c 132,-1,2
 249.299804688 149 249.299804688 149 243.450195312 181.400390625 c 132,-1,3
 237.599609375 213.799804688 237.599609375 213.799804688 236.299804688 268.400390625 c 132,-1,4
 235 323 235 323 235 405.799804688 c 4,5,6
 235 522.200195312 235 522.200195312 236.299804688 587 c 132,-1,7
 237.599609375 651.799804688 237.599609375 651.799804688 245.400390625 683 c 132,-1,8
 253.200195312 714.200195312 253.200195312 714.200195312 269.450195312 720.799804688 c 132,-1,9
 285.700195312 727.400390625 285.700195312 727.400390625 315.599609375 727.400390625 c 4,10,11
 331.200195312 727.400390625 331.200195312 727.400390625 340.299804688 719 c 132,-1,12
 349.400390625 710.599609375 349.400390625 710.599609375 355.25 683 c 132,-1,13
 361.099609375 655.400390625 361.099609375 655.400390625 363.049804688 601.400390625 c 132,-1,14
 365 547.400390625 365 547.400390625 365 455 c 4,15,16
 365 287 365 287 352 204.799804688 c 132,-1,17
 339 122.599609375 339 122.599609375 293.5 122.599609375 c 4,0,1
276.599609375 699.799804688 m 4,18,19
 271.400390625 699.799804688 271.400390625 699.799804688 263.599609375 685.400390625 c 132,-1,20
 255.799804688 671 255.799804688 671 255.799804688 641 c 4,21,22
 255.799804688 625.400390625 255.799804688 625.400390625 257.75 610.400390625 c 132,-1,23
 259.700195312 595.400390625 259.700195312 595.400390625 268.799804688 595.400390625 c 4,24,25
 276.599609375 595.400390625 276.599609375 595.400390625 279.200195312 600.200195312 c 132,-1,26
 281.799804688 605 281.799804688 605 281.799804688 611.599609375 c 132,-1,27
 281.799804688 618.200195312 281.799804688 618.200195312 281.150390625 626.599609375 c 132,-1,28
 280.5 635 280.5 635 280.5 642.200195312 c 4,29,30
 281.799804688 662.599609375 281.799804688 662.599609375 284.400390625 681.200195312 c 132,-1,31
 287 699.799804688 287 699.799804688 276.599609375 699.799804688 c 4,18,19
294.799804688 -21.400390625 m 4,32,33
 270.099609375 -21.400390625 270.099609375 -21.400390625 255.150390625 -6.400390625 c 132,-1,34
 240.200195312 8.599609375 240.200195312 8.599609375 240.200195312 33.7998046875 c 4,35,36
 240.200195312 56.599609375 240.200195312 56.599609375 253.200195312 76.400390625 c 132,-1,37
 266.200195312 96.2001953125 266.200195312 96.2001953125 294.799804688 96.2001953125 c 4,38,39
 324.700195312 96.2001953125 324.700195312 96.2001953125 340.299804688 77.599609375 c 132,-1,40
 355.900390625 59 355.900390625 59 355.900390625 33.7998046875 c 4,41,42
 355.900390625 6.2001953125 355.900390625 6.2001953125 338.349609375 -7.599609375 c 132,-1,43
 320.799804688 -21.400390625 320.799804688 -21.400390625 294.799804688 -21.400390625 c 4,32,33
271.400390625 41 m 4,44,45
 272.700195312 54.2001953125 272.700195312 54.2001953125 277.900390625 65 c 132,-1,46
 283.099609375 75.7998046875 283.099609375 75.7998046875 276.599609375 75.7998046875 c 4,47,48
 267.5 75.7998046875 267.5 75.7998046875 261.650390625 58.400390625 c 132,-1,49
 255.799804688 41 255.799804688 41 255.799804688 27.7998046875 c 4,50,51
 255.799804688 15.7998046875 255.799804688 15.7998046875 262.299804688 15.7998046875 c 4,52,53
 267.5 15.7998046875 267.5 15.7998046875 268.799804688 24.7998046875 c 132,-1,54
 270.099609375 33.7998046875 270.099609375 33.7998046875 271.400390625 41 c 4,44,45
EndSplineSet
EndChar

StartChar: quotedbl.mlym
Encoding: 34 34 4
Width: 600
Flags: W
LayerCount: 2
Fore
SplineSet
256 714 m 1,0,-1
 236 456 l 1,1,-1
 181 456 l 1,2,-1
 161 714 l 1,3,-1
 256 714 l 1,0,-1
439 714 m 1,4,-1
 419 456 l 1,5,-1
 364 456 l 1,6,-1
 344 714 l 1,7,-1
 439 714 l 1,4,-1
EndSplineSet
EndChar

StartChar: numbersign.mlym
Encoding: 35 35 5
Width: 600
Flags: W
LayerCount: 2
Fore
SplineSet
82.2001953125 0 m 5,0,-1
 124 199 l 5,1,-1
 5.2001953125 199 l 5,2,-1
 5.2001953125 266 l 5,3,-1
 138.299804688 266 l 5,4,-1
 173.5 419 l 5,5,-1
 33.7998046875 419 l 5,6,-1
 33.7998046875 485 l 5,7,-1
 186.700195312 485 l 5,8,-1
 230.700195312 687 l 5,9,-1
 309.900390625 687 l 5,10,-1
 265.900390625 485 l 5,11,-1
 402.299804688 485 l 5,12,-1
 446.299804688 687 l 5,13,-1
 522.200195312 687 l 5,14,-1
 478.200195312 485 l 5,15,-1
 594.799804688 485 l 5,16,-1
 594.799804688 419 l 5,17,-1
 463.900390625 419 l 5,18,-1
 429.799804688 266 l 5,19,-1
 571.700195312 266 l 5,20,-1
 571.700195312 199 l 5,21,-1
 415.5 199 l 5,22,-1
 370.400390625 0 l 5,23,-1
 292.299804688 0 l 5,24,-1
 337.400390625 199 l 5,25,-1
 202.099609375 199 l 5,26,-1
 159.200195312 0 l 5,27,-1
 82.2001953125 0 l 5,0,-1
216.400390625 266 m 5,28,-1
 351.700195312 266 l 5,29,-1
 385.799804688 419 l 5,30,-1
 250.5 419 l 5,31,-1
 216.400390625 266 l 5,28,-1
EndSplineSet
EndChar

StartChar: percent.mlym
Encoding: 37 37 6
Width: 600
Flags: W
LayerCount: 2
Fore
SplineSet
93.849609375 0 m 5,0,-1
 432.049804688 714 l 5,1,-1
 505.200195312 714 l 5,2,-1
 167 0 l 5,3,-1
 93.849609375 0 l 5,0,-1
448.200195312 -9 m 4,4,5
 390.25 -9 390.25 -9 351.775390625 35.5 c 132,-1,6
 313.299804688 80 313.299804688 80 313.299804688 161 c 260,7,8
 313.299804688 242 313.299804688 242 349.875 286 c 132,-1,9
 386.450195312 330 386.450195312 330 450.099609375 330 c 4,10,11
 508.049804688 330 508.049804688 330 546.525390625 286 c 132,-1,12
 585 242 585 242 585 161 c 260,13,14
 585 80 585 80 547.950195312 35.5 c 132,-1,15
 510.900390625 -9 510.900390625 -9 448.200195312 -9 c 4,4,5
449.150390625 49 m 260,16,17
 481.450195312 49 481.450195312 49 497.599609375 76 c 132,-1,18
 513.75 103 513.75 103 513.75 161 c 4,19,20
 513.75 220 513.75 220 497.599609375 245.5 c 132,-1,21
 481.450195312 271 481.450195312 271 449.150390625 271 c 260,22,23
 416.849609375 271 416.849609375 271 400.224609375 245.5 c 132,-1,24
 383.599609375 220 383.599609375 220 383.599609375 161 c 4,25,26
 383.599609375 103 383.599609375 103 400.224609375 76 c 132,-1,27
 416.849609375 49 416.849609375 49 449.150390625 49 c 260,16,17
149.900390625 383 m 4,28,29
 91.9501953125 383 91.9501953125 383 53.474609375 427.5 c 132,-1,30
 15 472 15 472 15 553 c 260,31,32
 15 634 15 634 51.5751953125 678 c 132,-1,33
 88.150390625 722 88.150390625 722 151.799804688 722 c 4,34,35
 209.75 722 209.75 722 248.224609375 678 c 132,-1,36
 286.700195312 634 286.700195312 634 286.700195312 553 c 260,37,38
 286.700195312 472 286.700195312 472 249.650390625 427.5 c 132,-1,39
 212.599609375 383 212.599609375 383 149.900390625 383 c 4,28,29
150.849609375 441 m 260,40,41
 183.150390625 441 183.150390625 441 199.299804688 468 c 132,-1,42
 215.450195312 495 215.450195312 495 215.450195312 553 c 4,43,44
 215.450195312 612 215.450195312 612 199.299804688 637.5 c 132,-1,45
 183.150390625 663 183.150390625 663 150.849609375 663 c 260,46,47
 118.549804688 663 118.549804688 663 101.924804688 637.5 c 132,-1,48
 85.2998046875 612 85.2998046875 612 85.2998046875 553 c 4,49,50
 85.2998046875 495 85.2998046875 495 101.924804688 468 c 132,-1,51
 118.549804688 441 118.549804688 441 150.849609375 441 c 260,40,41
EndSplineSet
EndChar

StartChar: quotesingle.mlym
Encoding: 39 39 7
Width: 600
Flags: W
LayerCount: 2
Fore
SplineSet
347.5 714 m 1,0,-1
 327.5 456 l 1,1,-1
 272.5 456 l 1,2,-1
 252.5 714 l 1,3,-1
 347.5 714 l 1,0,-1
EndSplineSet
EndChar

StartChar: parenleft.mlym
Encoding: 40 40 8
Width: 600
Flags: W
LayerCount: 2
Fore
SplineSet
364.5 -72 m 0,0,1
 310.5 -51 310.5 -51 274 -13 c 128,-1,2
 237.5 25 237.5 25 215 71.5 c 128,-1,3
 192.5 118 192.5 118 182.5 169.5 c 128,-1,4
 172.5 221 172.5 221 172.5 269 c 0,5,6
 172.5 315 172.5 315 181 363 c 128,-1,7
 189.5 411 189.5 411 205 456 c 128,-1,8
 220.5 501 220.5 501 243.5 540.5 c 128,-1,9
 266.5 580 266.5 580 294.5 609 c 0,10,11
 321.5 636 321.5 636 346.5 654 c 128,-1,12
 371.5 672 371.5 672 391.5 672 c 0,13,14
 406.5 672 406.5 672 415.5 660 c 128,-1,15
 424.5 648 424.5 648 424.5 636 c 0,16,17
 424.5 628 424.5 628 412 617 c 128,-1,18
 399.5 606 399.5 606 376.5 582 c 0,19,20
 346.5 550 346.5 550 326.5 512 c 128,-1,21
 306.5 474 306.5 474 294.5 433.5 c 128,-1,22
 282.5 393 282.5 393 278 351.5 c 128,-1,23
 273.5 310 273.5 310 273.5 272 c 256,24,25
 273.5 234 273.5 234 279.5 192.5 c 128,-1,26
 285.5 151 285.5 151 299.5 113 c 128,-1,27
 313.5 75 313.5 75 336.5 43.5 c 128,-1,28
 359.5 12 359.5 12 393.5 -7 c 0,29,30
 410.5 -16 410.5 -16 419 -22.5 c 128,-1,31
 427.5 -29 427.5 -29 427.5 -43 c 0,32,33
 427.5 -56 427.5 -56 414.5 -66 c 128,-1,34
 401.5 -76 401.5 -76 384.5 -76 c 0,35,36
 373.5 -76 373.5 -76 364.5 -72 c 0,0,1
350.5 620 m 0,37,38
 355.5 625 355.5 625 361.5 630.5 c 128,-1,39
 367.5 636 367.5 636 360.5 636 c 0,40,41
 352.5 636 352.5 636 342 628.5 c 128,-1,42
 331.5 621 331.5 621 321.5 611 c 128,-1,43
 311.5 601 311.5 601 305 590.5 c 128,-1,44
 298.5 580 298.5 580 298.5 574 c 0,45,46
 298.5 569 298.5 569 302.5 569 c 0,47,48
 307.5 569 307.5 569 312 575.5 c 128,-1,49
 316.5 582 316.5 582 319.5 587 c 0,50,51
 323.5 594 323.5 594 330.5 601.5 c 128,-1,52
 337.5 609 337.5 609 350.5 620 c 0,37,38
292.5 547 m 0,53,54
 292.5 555 292.5 555 286.5 555 c 0,55,56
 274.5 555 274.5 555 274.5 547 c 0,57,58
 274.5 541 274.5 541 277.5 539.5 c 128,-1,59
 280.5 538 280.5 538 282.5 538 c 256,60,61
 284.5 538 284.5 538 288.5 539.5 c 128,-1,62
 292.5 541 292.5 541 292.5 547 c 0,53,54
EndSplineSet
EndChar

StartChar: parenright.mlym
Encoding: 41 41 9
Width: 600
Flags: W
LayerCount: 2
Fore
SplineSet
229 -93 m 0,0,1
 215 -93 215 -93 202.5 -84.5 c 128,-1,2
 190 -76 190 -76 190 -66 c 0,3,4
 190 -57 190 -57 200 -43 c 128,-1,5
 210 -29 210 -29 224.5 -8.5 c 128,-1,6
 239 12 239 12 256.5 41 c 128,-1,7
 274 70 274 70 288.5 108 c 128,-1,8
 303 146 303 146 313 195 c 128,-1,9
 323 244 323 244 323 305 c 0,10,11
 323 352 323 352 315.5 398.5 c 128,-1,12
 308 445 308 445 294 484 c 128,-1,13
 280 523 280 523 260.5 552 c 128,-1,14
 241 581 241 581 217 594 c 0,15,16
 205 601 205 601 191 610.5 c 128,-1,17
 177 620 177 620 177 638 c 0,18,19
 177 653 177 653 190 662.5 c 128,-1,20
 203 672 203 672 224 672 c 0,21,22
 261 672 261 672 297 646 c 128,-1,23
 333 620 333 620 361 572 c 128,-1,24
 389 524 389 524 406 455.5 c 128,-1,25
 423 387 423 387 423 302 c 0,26,27
 423 227 423 227 414.5 175 c 128,-1,28
 406 123 406 123 390.5 85 c 128,-1,29
 375 47 375 47 354 17 c 128,-1,30
 333 -13 333 -13 308 -44 c 0,31,32
 285 -73 285 -73 265.5 -83 c 128,-1,33
 246 -93 246 -93 229 -93 c 0,0,1
197 621 m 0,34,35
 201 621 201 621 204.5 628.5 c 128,-1,36
 208 636 208 636 208 644 c 0,37,38
 208 657 208 657 201 657 c 0,39,40
 197 657 197 657 193.5 649.5 c 128,-1,41
 190 642 190 642 190 634 c 0,42,43
 190 621 190 621 197 621 c 0,34,35
224 -60 m 256,44,45
 229 -50 229 -50 229.5 -40 c 128,-1,46
 230 -30 230 -30 226 -29 c 0,47,48
 224 -29 224 -29 220.5 -33 c 128,-1,49
 217 -37 217 -37 213.5 -43 c 128,-1,50
 210 -49 210 -49 207.5 -55 c 128,-1,51
 205 -61 205 -61 205 -64 c 0,52,53
 205 -72 205 -72 209 -73 c 0,54,55
 212 -74 212 -74 215.5 -72 c 128,-1,56
 219 -70 219 -70 224 -60 c 256,44,45
EndSplineSet
EndChar

StartChar: asterisk.mlym
Encoding: 42 42 10
Width: 600
Flags: W
LayerCount: 2
Fore
SplineSet
357 782.5 m 5,0,-1
 333 571.299804688 l 5,1,-1
 563.400390625 630.700195312 l 5,2,-1
 580.200195312 529.5 l 5,3,-1
 359.400390625 513 l 5,4,-1
 502.200195312 339.200195312 l 5,5,-1
 399 287.5 l 5,6,-1
 297 480 l 5,7,-1
 204.599609375 287.5 l 5,8,-1
 97.7998046875 339.200195312 l 5,9,-1
 238.200195312 513 l 5,10,-1
 19.7998046875 529.5 l 5,11,-1
 36.599609375 630.700195312 l 5,12,-1
 264.599609375 571.299804688 l 5,13,-1
 239.400390625 782.5 l 5,14,-1
 357 782.5 l 5,0,-1
EndSplineSet
EndChar

StartChar: plus.mlym
Encoding: 43 43 11
Width: 600
Flags: W
LayerCount: 2
Fore
SplineSet
343.559570312 394.1953125 m 5,0,-1
 584.349609375 394.1953125 l 5,1,-1
 584.349609375 310.62890625 l 5,2,-1
 343.559570312 310.62890625 l 5,3,-1
 343.559570312 68.166015625 l 5,4,-1
 256.440429688 68.166015625 l 5,5,-1
 256.440429688 310.62890625 l 5,6,-1
 15.650390625 310.62890625 l 5,7,-1
 15.650390625 394.1953125 l 5,8,-1
 256.440429688 394.1953125 l 5,9,-1
 256.440429688 637.833984375 l 5,10,-1
 343.559570312 637.833984375 l 5,11,-1
 343.559570312 394.1953125 l 5,0,-1
EndSplineSet
EndChar

StartChar: comma.mlym
Encoding: 44 44 12
Width: 600
Flags: W
LayerCount: 2
Fore
SplineSet
375.5 105 m 1,0,1
 366.5 70 366.5 70 352.5 29 c 128,-1,2
 338.5 -12 338.5 -12 322 -52.5 c 128,-1,3
 305.5 -93 305.5 -93 289.5 -129 c 1,4,-1
 224.5 -129 l 1,5,6
 234.5 -91 234.5 -91 244 -47.5 c 128,-1,7
 253.5 -4 253.5 -4 261.5 38.5 c 128,-1,8
 269.5 81 269.5 81 274.5 116 c 1,9,-1
 368.5 116 l 1,10,-1
 375.5 105 l 1,0,1
EndSplineSet
EndChar

StartChar: hyphen.mlym
Encoding: 45 45 13
Width: 600
Flags: W
LayerCount: 2
Fore
SplineSet
34.150390625 229 m 5,0,-1
 34.150390625 307 l 5,1,-1
 565.849609375 307 l 5,2,-1
 565.849609375 229 l 5,3,-1
 34.150390625 229 l 5,0,-1
EndSplineSet
EndChar

StartChar: period.mlym
Encoding: 46 46 14
Width: 600
Flags: W
LayerCount: 2
Fore
SplineSet
291.75 -62.25 m 4,0,1
 231.75 -62.25 231.75 -62.25 189 -20.25 c 132,-1,2
 146.25 21.75 146.25 21.75 146.25 87.75 c 4,3,4
 146.25 123.75 146.25 123.75 159 156 c 132,-1,5
 171.75 188.25 171.75 188.25 194.25 211.5 c 132,-1,6
 216.75 234.75 216.75 234.75 248.25 249 c 132,-1,7
 279.75 263.25 279.75 263.25 317.25 263.25 c 4,8,9
 347.25 263.25 347.25 263.25 372.75 250.5 c 132,-1,10
 398.25 237.75 398.25 237.75 416.25 215.25 c 132,-1,11
 434.25 192.75 434.25 192.75 444 164.25 c 132,-1,12
 453.75 135.75 453.75 135.75 453.75 104.25 c 4,13,14
 453.75 63.75 453.75 63.75 441 33 c 132,-1,15
 428.25 2.25 428.25 2.25 405.75 -18.75 c 132,-1,16
 383.25 -39.75 383.25 -39.75 354 -51 c 132,-1,17
 324.75 -62.25 324.75 -62.25 291.75 -62.25 c 4,0,1
236.25 197.25 m 4,18,19
 246.75 207.75 246.75 207.75 249 215.25 c 132,-1,20
 251.25 222.75 251.25 222.75 248.25 222.75 c 4,21,22
 236.25 222.75 236.25 222.75 222.75 211.5 c 132,-1,23
 209.25 200.25 209.25 200.25 198 184.5 c 132,-1,24
 186.75 168.75 186.75 168.75 179.25 150.75 c 132,-1,25
 171.75 132.75 171.75 132.75 171.75 117.75 c 4,26,27
 171.75 114.75 171.75 114.75 174 105.75 c 132,-1,28
 176.25 96.75 176.25 96.75 180.75 96.75 c 4,29,30
 186.75 96.75 186.75 96.75 195.75 129.75 c 4,31,32
 200.25 150.75 200.25 150.75 212.25 168 c 132,-1,33
 224.25 185.25 224.25 185.25 236.25 197.25 c 4,18,19
297.75 23.25 m 4,34,35
 315.75 23.25 315.75 23.25 340.5 44.25 c 132,-1,36
 365.25 65.25 365.25 65.25 365.25 104.25 c 4,37,38
 365.25 134.25 365.25 134.25 349.5 154.5 c 132,-1,39
 333.75 174.75 333.75 174.75 308.25 174.75 c 260,40,41
 282.75 174.75 282.75 174.75 261.75 154.5 c 132,-1,42
 240.75 134.25 240.75 134.25 240.75 98.25 c 260,43,44
 240.75 62.25 240.75 62.25 257.25 42.75 c 132,-1,45
 273.75 23.25 273.75 23.25 297.75 23.25 c 4,34,35
EndSplineSet
EndChar

StartChar: slash.mlym
Encoding: 47 47 15
Width: 600
Flags: W
LayerCount: 2
Fore
SplineSet
141.099609375 -77 m 4,0,1
 135.5 -77 135.5 -77 119.400390625 -75 c 132,-1,2
 103.299804688 -73 103.299804688 -73 86.5 -68.5 c 132,-1,3
 69.7001953125 -64 69.7001953125 -64 57.099609375 -57 c 132,-1,4
 44.5 -50 44.5 -50 44.5 -41 c 4,5,6
 44.5 -38 44.5 -38 59.2001953125 -9.5 c 132,-1,7
 73.900390625 19 73.900390625 19 97.7001953125 64 c 132,-1,8
 121.5 109 121.5 109 153 166 c 132,-1,9
 184.5 223 184.5 223 218.099609375 283 c 132,-1,10
 251.700195312 343 251.700195312 343 285.299804688 402 c 132,-1,11
 318.900390625 461 318.900390625 461 346.900390625 509.5 c 132,-1,12
 374.900390625 558 374.900390625 558 395.900390625 592 c 132,-1,13
 416.900390625 626 416.900390625 626 425.299804688 636 c 4,14,15
 435.099609375 647 435.099609375 647 451.200195312 656.5 c 132,-1,16
 467.299804688 666 467.299804688 666 486.900390625 666 c 4,17,18
 496.700195312 666 496.700195312 666 508.599609375 663.5 c 132,-1,19
 520.5 661 520.5 661 531 656.5 c 132,-1,20
 541.5 652 541.5 652 548.5 646 c 132,-1,21
 555.5 640 555.5 640 555.5 633 c 4,22,23
 555.5 625 555.5 625 543.599609375 599.5 c 132,-1,24
 531.700195312 574 531.700195312 574 515.599609375 544.5 c 132,-1,25
 499.5 515 499.5 515 483.400390625 487.5 c 132,-1,26
 467.299804688 460 467.299804688 460 458.900390625 447 c 4,27,28
 453.299804688 438 453.299804688 438 437.900390625 410.5 c 132,-1,29
 422.5 383 422.5 383 401.5 344.5 c 132,-1,30
 380.5 306 380.5 306 355.299804688 259.5 c 132,-1,31
 330.099609375 213 330.099609375 213 303.5 166.5 c 132,-1,32
 276.900390625 120 276.900390625 120 251 76 c 132,-1,33
 225.099609375 32 225.099609375 32 203.400390625 -2 c 132,-1,34
 181.700195312 -36 181.700195312 -36 164.900390625 -56.5 c 132,-1,35
 148.099609375 -77 148.099609375 -77 141.099609375 -77 c 4,0,1
106.099609375 -37 m 4,36,37
 111.700195312 -25 111.700195312 -25 122.900390625 -7 c 132,-1,38
 134.099609375 11 134.099609375 11 143.900390625 27.5 c 132,-1,39
 153.700195312 44 153.700195312 44 158.599609375 56.5 c 132,-1,40
 163.5 69 163.5 69 156.5 70 c 4,41,42
 153.700195312 71 153.700195312 71 146.700195312 71 c 132,-1,43
 139.700195312 71 139.700195312 71 135.5 66 c 4,44,45
 132.700195312 62 132.700195312 62 123.599609375 48.5 c 132,-1,46
 114.5 35 114.5 35 105.400390625 19.5 c 132,-1,47
 96.2998046875 4 96.2998046875 4 89.2998046875 -10.5 c 132,-1,48
 82.2998046875 -25 82.2998046875 -25 82.2998046875 -31 c 4,49,50
 82.2998046875 -38 82.2998046875 -38 92.7998046875 -40 c 132,-1,51
 103.299804688 -42 103.299804688 -42 106.099609375 -37 c 4,36,37
EndSplineSet
EndChar

StartChar: zero.mlym
Encoding: 48 48 16
Width: 600
VWidth: 1024
Flags: W
LayerCount: 2
Fore
SplineSet
307.799804688 -17 m 0,0,1
 225.119140625 -17 225.119140625 -17 169.740234375 12 c 128,-1,2
 114.359375 41 114.359375 41 80.8193359375 88 c 128,-1,3
 47.2802734375 135 47.2802734375 135 34.01953125 194.5 c 128,-1,4
 20.759765625 254 20.759765625 254 20.759765625 314 c 256,5,6
 20.759765625 374 20.759765625 374 36.359375 432 c 128,-1,7
 51.9599609375 490 51.9599609375 490 87.83984375 535.5 c 128,-1,8
 123.719726562 581 123.719726562 581 181.440429688 608.5 c 128,-1,9
 239.16015625 636 239.16015625 636 320.280273438 636 c 0,10,11
 374.880859375 636 374.880859375 636 414.66015625 618.5 c 128,-1,12
 454.440429688 601 454.440429688 601 483.299804688 573.5 c 128,-1,13
 512.16015625 546 512.16015625 546 531.66015625 511 c 128,-1,14
 551.16015625 476 551.16015625 476 561.299804688 440 c 128,-1,15
 571.440429688 404 571.440429688 404 575.33984375 371 c 128,-1,16
 579.240234375 338 579.240234375 338 579.240234375 314 c 0,17,18
 579.240234375 264 579.240234375 264 565.200195312 205.5 c 128,-1,19
 551.16015625 147 551.16015625 147 519.180664062 97.5 c 128,-1,20
 487.200195312 48 487.200195312 48 434.940429688 15.5 c 128,-1,21
 382.680664062 -17 382.680664062 -17 307.799804688 -17 c 0,0,1
136.200195312 524 m 0,22,23
 150.240234375 543 150.240234375 543 158.819335938 553 c 128,-1,24
 167.400390625 563 167.400390625 563 167.400390625 566 c 0,25,26
 167.400390625 568 167.400390625 568 161.16015625 568.5 c 128,-1,27
 154.919921875 569 154.919921875 569 145.559570312 562 c 0,28,29
 139.319335938 556 139.319335938 556 128.400390625 543 c 128,-1,30
 117.48046875 530 117.48046875 530 106.559570312 516 c 128,-1,31
 95.640625 502 95.640625 502 87.83984375 488 c 128,-1,32
 80.0400390625 474 80.0400390625 474 80.0400390625 467 c 256,33,34
 80.0400390625 460 80.0400390625 460 88.619140625 462 c 128,-1,35
 97.2001953125 464 97.2001953125 464 101.880859375 471 c 0,36,37
 106.559570312 479 106.559570312 479 114.359375 492.5 c 128,-1,38
 122.16015625 506 122.16015625 506 136.200195312 524 c 0,22,23
309.359375 60 m 0,39,40
 359.280273438 60 359.280273438 60 388.140625 87 c 128,-1,41
 417 114 417 114 431.819335938 154 c 128,-1,42
 446.640625 194 446.640625 194 450.540039062 240 c 128,-1,43
 454.440429688 286 454.440429688 286 454.440429688 324 c 0,44,45
 454.440429688 348 454.440429688 348 449.759765625 386.5 c 128,-1,46
 445.080078125 425 445.080078125 425 431.040039062 462.5 c 128,-1,47
 417 500 417 500 390.48046875 527 c 128,-1,48
 363.959960938 554 363.959960938 554 320.280273438 554 c 0,49,50
 284.400390625 554 284.400390625 554 259.440429688 526.5 c 128,-1,51
 234.48046875 499 234.48046875 499 217.319335938 460.5 c 128,-1,52
 200.16015625 422 200.16015625 422 192.359375 380 c 128,-1,53
 184.559570312 338 184.559570312 338 184.559570312 308 c 0,54,55
 184.559570312 293 184.559570312 293 184.559570312 269 c 128,-1,56
 184.559570312 245 184.559570312 245 187.680664062 217 c 128,-1,57
 190.799804688 189 190.799804688 189 197.819335938 161.5 c 128,-1,58
 204.83984375 134 204.83984375 134 218.880859375 111.5 c 128,-1,59
 232.919921875 89 232.919921875 89 255.540039062 74.5 c 128,-1,60
 278.16015625 60 278.16015625 60 309.359375 60 c 0,39,40
EndSplineSet
EndChar

StartChar: one.mlym
Encoding: 49 49 17
Width: 600
VWidth: 1024
Flags: W
LayerCount: 2
Fore
SplineSet
404.744140625 0 m 0,0,1
 332.984375 0 332.984375 0 332.984375 48 c 2,2,-1
 332.984375 461 l 2,3,4
 333.184570312 475 333.184570312 475 332.204101562 477 c 0,5,6
 331.184570312 484 331.184570312 484 328.303710938 484 c 0,7,8
 323.184570312 484 323.184570312 484 313.484375 476.5 c 0,9,10
 303.184570312 469 303.184570312 469 267.184570312 455.5 c 128,-1,11
 231.184570312 442 231.184570312 442 217.684570312 436 c 128,-1,12
 204.184570312 430 204.184570312 430 190.384765625 426 c 0,13,14
 176.184570312 421 176.184570312 421 160.744140625 421 c 0,15,16
 139.184570312 421 139.184570312 421 124.084960938 431 c 0,17,18
 103.184570312 443 103.184570312 443 109.264648438 456 c 0,19,20
 109.037109375 458.423828125 109.037109375 458.423828125 119.865234375 486 c 0,21,22
 125.184570312 499 125.184570312 499 151.384765625 511 c 0,23,24
 221.184570312 543 221.184570312 543 242.29296875 553.505859375 c 0,25,26
 298.181640625 583.712890625 298.181640625 583.712890625 304.904296875 586.5 c 0,27,28
 362.184570312 610 362.184570312 610 368.084960938 615 c 0,29,30
 389.184570312 631 389.184570312 631 417.224609375 631 c 0,31,32
 426.184570312 631 426.184570312 631 439.844726562 630 c 0,33,34
 453.184570312 629 453.184570312 629 464.803710938 626 c 0,35,36
 476.184570312 623 476.184570312 623 484.303710938 617 c 0,37,38
 492.104492188 611.060546875 492.104492188 611.060546875 492.104492188 601 c 2,39,-1
 492.104492188 49 l 2,40,41
 492.184570312 31 492.184570312 31 466.365234375 15.5 c 0,42,43
 440.184570312 0 440.184570312 0 404.744140625 0 c 0,0,1
403.184570312 606 m 0,44,45
 410.984375 614 410.984375 614 415.665039062 617 c 128,-1,46
 420.344726562 620 420.344726562 620 415.665039062 621 c 0,47,48
 412.543945312 621 412.543945312 621 401.625 618 c 128,-1,49
 390.704101562 615 390.704101562 615 379.784179688 609 c 0,50,51
 371.984375 604 371.984375 604 359.50390625 597 c 128,-1,52
 347.024414062 590 347.024414062 590 347.024414062 586 c 0,53,54
 347.024414062 583 347.024414062 583 353.264648438 582 c 0,55,56
 364.184570312 581 364.184570312 581 380.565429688 591 c 128,-1,57
 396.944335938 601 396.944335938 601 403.184570312 606 c 0,44,45
386.024414062 46 m 0,58,59
 386.024414062 54 386.024414062 54 381.344726562 59.5 c 128,-1,60
 376.665039062 65 376.665039062 65 376.665039062 76 c 0,61,62
 376.665039062 81 376.665039062 81 375.884765625 85 c 128,-1,63
 375.104492188 89 375.104492188 89 367.303710938 89 c 0,64,65
 361.065429688 89 361.065429688 89 357.944335938 79.5 c 128,-1,66
 354.825195312 70 354.825195312 70 354.825195312 58.5 c 128,-1,67
 354.825195312 47 354.825195312 47 357.944335938 37.5 c 128,-1,68
 361.065429688 28 361.065429688 28 367.303710938 28 c 0,69,70
 386.024414062 28 386.024414062 28 386.024414062 46 c 0,58,59
EndSplineSet
EndChar

StartChar: two.mlym
Encoding: 50 50 18
Width: 600
VWidth: 1024
Flags: W
LayerCount: 2
Fore
SplineSet
90.5087890625 0 m 2,0,1
 76.46875 0 76.46875 0 64.7685546875 13.5 c 128,-1,2
 53.068359375 27 53.068359375 27 56.189453125 39 c 256,3,4
 59.30859375 51 59.30859375 51 81.1484375 69.5 c 128,-1,5
 102.989257812 88 102.989257812 88 129.508789062 109 c 0,6,7
 187.229492188 155 187.229492188 155 233.249023438 203.5 c 128,-1,8
 279.268554688 252 279.268554688 252 312.029296875 299.5 c 128,-1,9
 344.7890625 347 344.7890625 347 361.94921875 392 c 128,-1,10
 379.108398438 437 379.108398438 437 379.108398438 476 c 0,11,12
 379.108398438 518 379.108398438 518 351.80859375 532.5 c 128,-1,13
 324.508789062 547 324.508789062 547 291.749023438 547 c 256,14,15
 260.548828125 547 260.548828125 547 236.368164062 530 c 128,-1,16
 212.189453125 513 212.189453125 513 212.189453125 475 c 0,17,18
 212.189453125 452 212.189453125 452 219.989257812 440.5 c 128,-1,19
 227.7890625 429 227.7890625 429 227.7890625 413 c 0,20,21
 227.7890625 399 227.7890625 399 202.829101562 392.5 c 128,-1,22
 177.868164062 386 177.868164062 386 160.708984375 386 c 0,23,24
 118.588867188 386 118.588867188 386 91.2890625 413 c 128,-1,25
 63.9892578125 440 63.9892578125 440 63.9892578125 481 c 0,26,27
 63.9892578125 514 63.9892578125 514 80.3681640625 542 c 128,-1,28
 96.7490234375 570 96.7490234375 570 127.94921875 591 c 128,-1,29
 159.1484375 612 159.1484375 612 201.268554688 624.5 c 128,-1,30
 243.388671875 637 243.388671875 637 293.30859375 637 c 0,31,32
 341.66796875 637 341.66796875 637 386.908203125 625 c 128,-1,33
 432.1484375 613 432.1484375 613 467.249023438 591 c 128,-1,34
 502.348632812 569 502.348632812 569 523.408203125 538 c 128,-1,35
 544.46875 507 544.46875 507 544.46875 468 c 0,36,37
 544.46875 420 544.46875 420 524.96875 373 c 128,-1,38
 505.46875 326 505.46875 326 475.829101562 284 c 128,-1,39
 446.189453125 242 446.189453125 242 412.6484375 206 c 128,-1,40
 379.108398438 170 379.108398438 170 350.249023438 143.5 c 128,-1,41
 321.388671875 117 321.388671875 117 301.888671875 100.5 c 128,-1,42
 282.388671875 84 282.388671875 84 282.388671875 81 c 1,43,44
 287.068359375 81 287.068359375 81 294.868164062 81 c 2,45,-1
 333.868164062 81 l 1,46,-1
 472.708984375 84 l 2,47,48
 500.7890625 85 500.7890625 85 515.608398438 81 c 128,-1,49
 530.4296875 77 530.4296875 77 536.66796875 69 c 128,-1,50
 542.908203125 61 542.908203125 61 542.908203125 51 c 128,-1,51
 542.908203125 41 542.908203125 41 542.908203125 30 c 0,52,53
 542.908203125 12 542.908203125 12 525.749023438 6 c 128,-1,54
 508.588867188 0 508.588867188 0 458.66796875 0 c 2,55,-1
 90.5087890625 0 l 2,0,1
115.46875 500 m 0,56,57
 117.029296875 512 117.029296875 512 113.908203125 519 c 128,-1,58
 110.7890625 526 110.7890625 526 106.108398438 525 c 0,59,60
 99.8681640625 525 99.8681640625 525 95.96875 518.5 c 128,-1,61
 92.068359375 512 92.068359375 512 91.2890625 503.5 c 128,-1,62
 90.5087890625 495 90.5087890625 495 90.5087890625 487 c 128,-1,63
 90.5087890625 479 90.5087890625 479 90.5087890625 476 c 0,64,65
 93.62890625 463 93.62890625 463 98.30859375 461 c 0,66,67
 106.108398438 456 106.108398438 456 109.229492188 463 c 128,-1,68
 112.348632812 470 112.348632812 470 115.46875 500 c 0,56,57
120.1484375 434 m 0,69,70
 120.1484375 441 120.1484375 441 107.66796875 441 c 256,71,72
 96.7490234375 441 96.7490234375 441 96.7490234375 433 c 0,73,74
 96.7490234375 431 96.7490234375 431 99.8681640625 428 c 128,-1,75
 102.989257812 425 102.989257812 425 106.108398438 425 c 0,76,77
 112.348632812 425 112.348632812 425 116.249023438 428 c 128,-1,78
 120.1484375 431 120.1484375 431 120.1484375 434 c 0,69,70
117.029296875 51 m 0,79,80
 129.508789062 70 129.508789062 70 126.388671875 71 c 0,81,82
 115.46875 71 115.46875 71 102.989257812 61.5 c 128,-1,83
 90.5087890625 52 90.5087890625 52 90.5087890625 41 c 0,84,85
 90.5087890625 33 90.5087890625 33 96.7490234375 33 c 0,86,87
 104.548828125 33 104.548828125 33 117.029296875 51 c 0,79,80
EndSplineSet
EndChar

StartChar: three.mlym
Encoding: 51 51 19
Width: 600
VWidth: 1024
Flags: W
LayerCount: 2
Fore
SplineSet
382.680664062 498 m 0,0,1
 382.680664062 528 382.680664062 528 360.83984375 540.5 c 128,-1,2
 339 553 339 553 293.759765625 553 c 0,3,4
 240.719726562 553 240.719726562 553 214.98046875 527 c 128,-1,5
 189.240234375 501 189.240234375 501 189.240234375 440 c 0,6,7
 189.240234375 426 189.240234375 426 172.859375 420 c 128,-1,8
 156.48046875 414 156.48046875 414 139.319335938 414 c 0,9,10
 42.599609375 414 42.599609375 414 41.0400390625 505 c 0,11,12
 41.0400390625 533 41.0400390625 533 62.880859375 557 c 128,-1,13
 84.7197265625 581 84.7197265625 581 119.040039062 598.5 c 128,-1,14
 153.359375 616 153.359375 616 197.819335938 626.5 c 128,-1,15
 242.280273438 637 242.280273438 637 287.51953125 637 c 0,16,17
 357.719726562 637 357.719726562 637 407.640625 625.5 c 128,-1,18
 457.559570312 614 457.559570312 614 489.540039062 594.5 c 128,-1,19
 521.51953125 575 521.51953125 575 537.900390625 550 c 128,-1,20
 554.280273438 525 554.280273438 525 554.280273438 499 c 0,21,22
 554.280273438 458 554.280273438 458 526.200195312 428 c 128,-1,23
 498.119140625 398 498.119140625 398 463.799804688 377 c 128,-1,24
 429.48046875 356 429.48046875 356 401.400390625 344 c 128,-1,25
 373.319335938 332 373.319335938 332 373.319335938 326 c 256,26,27
 373.319335938 320 373.319335938 320 402.180664062 313 c 128,-1,28
 431.040039062 306 431.040039062 306 466.140625 290.5 c 128,-1,29
 501.240234375 275 501.240234375 275 530.099609375 247 c 128,-1,30
 558.959960938 219 558.959960938 219 558.959960938 171 c 0,31,32
 558.959960938 124 558.959960938 124 530.880859375 90.5 c 128,-1,33
 502.799804688 57 502.799804688 57 457.559570312 35.5 c 128,-1,34
 412.319335938 14 412.319335938 14 354.599609375 4 c 128,-1,35
 296.880859375 -6 296.880859375 -6 237.599609375 -6 c 0,36,37
 212.640625 -6 212.640625 -6 180.66015625 -1.5 c 128,-1,38
 148.680664062 3 148.680664062 3 120.599609375 13 c 128,-1,39
 92.51953125 23 92.51953125 23 73.01953125 37.5 c 128,-1,40
 53.51953125 52 53.51953125 52 53.51953125 73 c 0,41,42
 53.51953125 88 53.51953125 88 63.66015625 98 c 128,-1,43
 73.7998046875 108 73.7998046875 108 90.9599609375 108 c 0,44,45
 111.240234375 108 111.240234375 108 128.400390625 103 c 128,-1,46
 145.559570312 98 145.559570312 98 161.940429688 92.5 c 128,-1,47
 178.319335938 87 178.319335938 87 197.819335938 82.5 c 128,-1,48
 217.319335938 78 217.319335938 78 240.719726562 78 c 0,49,50
 284.400390625 78 284.400390625 78 313.259765625 86 c 128,-1,51
 342.119140625 94 342.119140625 94 358.5 107.5 c 128,-1,52
 374.880859375 121 374.880859375 121 381.119140625 137.5 c 128,-1,53
 387.359375 154 387.359375 154 387.359375 170 c 0,54,55
 387.359375 203 387.359375 203 359.280273438 225.5 c 128,-1,56
 331.200195312 248 331.200195312 248 284.400390625 248 c 0,57,58
 217.319335938 248 217.319335938 248 190.01953125 263.5 c 128,-1,59
 162.719726562 279 162.719726562 279 162.719726562 299 c 0,60,61
 162.719726562 318 162.719726562 318 197.040039062 342.5 c 128,-1,62
 231.359375 367 231.359375 367 272.700195312 392.5 c 128,-1,63
 314.040039062 418 314.040039062 418 348.359375 445 c 128,-1,64
 382.680664062 472 382.680664062 472 382.680664062 498 c 0,0,1
106.559570312 527 m 0,65,66
 108.119140625 539 108.119140625 539 105 546.5 c 128,-1,67
 101.880859375 554 101.880859375 554 97.2001953125 553 c 0,68,69
 90.9599609375 553 90.9599609375 553 85.5 547 c 128,-1,70
 80.0400390625 541 80.0400390625 541 76.140625 532.5 c 128,-1,71
 72.240234375 524 72.240234375 524 69.900390625 516 c 128,-1,72
 67.5595703125 508 67.5595703125 508 69.119140625 504 c 0,73,74
 72.240234375 491 72.240234375 491 76.919921875 488 c 0,75,76
 84.7197265625 483 84.7197265625 483 94.080078125 490 c 128,-1,77
 103.440429688 497 103.440429688 497 106.559570312 527 c 0,65,66
97.2001953125 462 m 0,78,79
 97.2001953125 469 97.2001953125 469 86.2802734375 469 c 256,80,81
 75.359375 469 75.359375 469 75.359375 461 c 0,82,83
 75.359375 459 75.359375 459 78.48046875 456 c 128,-1,84
 81.599609375 453 81.599609375 453 84.7197265625 453 c 0,85,86
 90.9599609375 453 90.9599609375 453 94.080078125 456 c 128,-1,87
 97.2001953125 459 97.2001953125 459 97.2001953125 462 c 0,78,79
215.759765625 298 m 0,88,89
 218.880859375 303 218.880859375 303 225.119140625 311 c 128,-1,90
 231.359375 319 231.359375 319 239.16015625 327 c 0,91,92
 245.400390625 333 245.400390625 333 246.959960938 338 c 128,-1,93
 248.51953125 343 248.51953125 343 245.400390625 343 c 0,94,95
 239.16015625 343 239.16015625 343 229.799804688 337 c 128,-1,96
 220.440429688 331 220.440429688 331 211.859375 322.5 c 128,-1,97
 203.280273438 314 203.280273438 314 196.259765625 305.5 c 128,-1,98
 189.240234375 297 189.240234375 297 189.240234375 291 c 0,99,100
 189.240234375 282 189.240234375 282 198.599609375 282 c 256,101,102
 206.400390625 282 206.400390625 282 215.759765625 298 c 0,88,89
103.440429688 82 m 0,103,104
 103.440429688 104 103.440429688 104 89.400390625 94 c 0,105,106
 81.599609375 89 81.599609375 89 78.48046875 80 c 128,-1,107
 75.359375 71 75.359375 71 76.919921875 63 c 0,108,109
 78.48046875 59 78.48046875 59 81.599609375 57.5 c 128,-1,110
 84.7197265625 56 84.7197265625 56 87.83984375 56 c 256,111,112
 90.9599609375 56 90.9599609375 56 97.2001953125 65 c 128,-1,113
 103.440429688 74 103.440429688 74 103.440429688 82 c 0,103,104
EndSplineSet
EndChar

StartChar: four.mlym
Encoding: 52 52 20
Width: 600
Flags: W
LayerCount: 2
Fore
SplineSet
467.700195312 0 m 0,0,1
 430.259765625 0 430.259765625 0 417 19.5 c 128,-1,2
 403.740234375 39 403.740234375 39 403.740234375 62 c 2,3,-1
 403.740234375 130 l 2,4,5
 403.740234375 142 403.740234375 142 383.459960938 142 c 2,6,-1
 101.099609375 142 l 2,7,8
 66.7802734375 142 66.7802734375 142 50.400390625 152 c 128,-1,9
 34.01953125 162 34.01953125 162 34.01953125 173 c 0,10,11
 121.380859375 610.5 l 0,12,13
 136.98046875 614 136.98046875 614 152.580078125 614 c 0,14,15
 160.380859375 614 160.380859375 614 174.419921875 612 c 128,-1,16
 188.459960938 610 188.459960938 610 201.719726562 606.5 c 128,-1,17
 214.98046875 603 214.98046875 603 225.119140625 598 c 128,-1,18
 235.259765625 593 235.259765625 593 235.259765625 587 c 256,19,20
 235.259765625 573 235.259765625 573 235.259765625 558.5 c 0,21,-1
 221.219726562 235 l 0,22,23
 219.66015625 232 219.66015625 232 219.66015625 229 c 0,24,25
 219.66015625 224 219.66015625 224 232.140625 224 c 2,26,-1
 383.459960938 224 l 2,27,28
 395.940429688 224 395.940429688 224 399.83984375 226.5 c 128,-1,29
 403.740234375 229 403.740234375 229 403.740234375 235 c 6,30,-1
 403.740234375 536 l 6,31,32
 403.740234375 561 403.740234375 561 410.759765625 576.5 c 128,-1,33
 417.780273438 592 417.780273438 592 428.700195312 601 c 128,-1,34
 439.619140625 610 439.619140625 610 453.66015625 613 c 128,-1,35
 467.700195312 616 467.700195312 616 483.299804688 616 c 0,36,37
 525.419921875 616 525.419921875 616 545.700195312 597 c 128,-1,38
 565.98046875 578 565.98046875 578 565.98046875 550 c 2,39,-1
 565.98046875 70 l 2,40,41
 565.98046875 49 565.98046875 49 558.180664062 35 c 128,-1,42
 550.380859375 21 550.380859375 21 536.33984375 13.5 c 128,-1,43
 522.299804688 6 522.299804688 6 504.359375 3 c 128,-1,44
 486.419921875 0 486.419921875 0 467.700195312 0 c 0,0,1
434.940429688 541 m 256,45,46
 441.180664062 541 441.180664062 541 446.640625 547 c 128,-1,47
 452.099609375 553 452.099609375 553 456 561 c 128,-1,48
 459.900390625 569 459.900390625 569 462.240234375 577.5 c 128,-1,49
 464.580078125 586 464.580078125 586 464.580078125 591 c 0,50,51
 464.580078125 598 464.580078125 598 453.66015625 598 c 0,52,53
 448.98046875 598 448.98046875 598 444.299804688 593.5 c 128,-1,54
 439.619140625 589 439.619140625 589 435.719726562 582.5 c 128,-1,55
 431.819335938 576 431.819335938 576 428.700195312 569.5 c 128,-1,56
 425.580078125 563 425.580078125 563 425.580078125 558 c 0,57,58
 425.580078125 552 425.580078125 552 427.140625 546.5 c 128,-1,59
 428.700195312 541 428.700195312 541 434.940429688 541 c 256,45,46
102.66015625 215 m 0,60,61
 108.900390625 228 108.900390625 228 112.799804688 235 c 128,-1,62
 116.700195312 242 116.700195312 242 115.140625 251 c 0,63,64
 115.140625 259 115.140625 259 107.33984375 259 c 0,65,66
 102.66015625 259 102.66015625 259 97.2001953125 251.5 c 128,-1,67
 91.740234375 244 91.740234375 244 86.2802734375 234 c 128,-1,68
 80.8193359375 224 80.8193359375 224 77.7001953125 214 c 128,-1,69
 74.580078125 204 74.580078125 204 74.580078125 199 c 0,70,71
 74.580078125 188 74.580078125 188 82.380859375 188 c 0,72,73
 93.2998046875 189 93.2998046875 189 102.66015625 215 c 0,60,61
87.0595703125 169 m 0,74,75
 87.0595703125 179 87.0595703125 179 74.580078125 179 c 256,76,77
 62.099609375 179 62.099609375 179 62.099609375 169 c 0,78,79
 62.099609375 167 62.099609375 167 63.66015625 166 c 0,80,81
 69.900390625 162 69.900390625 162 74.580078125 162 c 0,82,83
 77.7001953125 162 77.7001953125 162 82.380859375 164 c 128,-1,84
 87.0595703125 166 87.0595703125 166 87.0595703125 169 c 0,74,75
455.219726562 29 m 0,85,86
 450.540039062 35 450.540039062 35 445.859375 37.5 c 128,-1,87
 441.180664062 40 441.180664062 40 441.180664062 45 c 0,88,89
 441.180664062 49 441.180664062 49 439.619140625 53 c 0,90,91
 439.619140625 61 439.619140625 61 431.819335938 61 c 0,92,93
 422.459960938 61 422.459960938 61 422.459960938 50 c 0,94,95
 422.459960938 42 422.459960938 42 429.48046875 28.5 c 128,-1,96
 436.5 15 436.5 15 445.859375 15 c 0,97,98
 450.540039062 15 450.540039062 15 455.219726562 19.5 c 128,-1,99
 459.900390625 24 459.900390625 24 455.219726562 29 c 0,85,86
EndSplineSet
EndChar

StartChar: five.mlym
Encoding: 53 53 21
Width: 600
VWidth: 1024
Flags: W
LayerCount: 2
Fore
SplineSet
140.099609375 -8 m 0,0,1
 104.219726562 -8 104.219726562 -8 84.7197265625 -1.5 c 128,-1,2
 65.2197265625 5 65.2197265625 5 55.859375 14.5 c 128,-1,3
 46.5 24 46.5 24 44.16015625 33.5 c 128,-1,4
 41.8193359375 43 41.8193359375 43 41.8193359375 49 c 0,5,6
 41.8193359375 63 41.8193359375 63 50.400390625 71.5 c 128,-1,7
 58.98046875 80 58.98046875 80 73.01953125 83.5 c 128,-1,8
 87.0595703125 87 87.0595703125 87 105 87.5 c 128,-1,9
 122.940429688 88 122.940429688 88 140.099609375 88 c 0,10,11
 278.940429688 88 278.940429688 88 337.440429688 115 c 128,-1,12
 395.940429688 142 395.940429688 142 395.940429688 201 c 0,13,14
 395.940429688 257 395.940429688 257 354.599609375 283.5 c 128,-1,15
 313.259765625 310 313.259765625 310 235.259765625 310 c 0,16,17
 205.619140625 310 205.619140625 310 185.33984375 307 c 128,-1,18
 165.059570312 304 165.059570312 304 151.01953125 300.5 c 128,-1,19
 136.98046875 297 136.98046875 297 124.5 294 c 128,-1,20
 112.01953125 291 112.01953125 291 94.859375 291 c 256,21,22
 79.259765625 291 79.259765625 291 69.900390625 300 c 128,-1,23
 60.5400390625 309 60.5400390625 309 55.859375 322 c 128,-1,24
 51.1806640625 335 51.1806640625 335 50.400390625 350 c 128,-1,25
 49.619140625 365 49.619140625 365 49.619140625 375 c 2,26,-1
 49.619140625 582 l 2,27,28
 49.619140625 610 49.619140625 610 70.6806640625 620.5 c 128,-1,29
 91.740234375 631 91.740234375 631 122.940429688 631 c 2,30,-1
 494.219726562 631 l 2,31,32
 506.700195312 631 506.700195312 631 518.400390625 623 c 128,-1,33
 530.099609375 615 530.099609375 615 530.099609375 601 c 0,34,35
 530.099609375 583 530.099609375 583 518.400390625 566 c 128,-1,36
 506.700195312 549 506.700195312 549 491.099609375 549 c 2,37,-1
 222.780273438 548 l 2,38,39
 214.98046875 548 214.98046875 548 211.859375 543.5 c 128,-1,40
 208.740234375 539 208.740234375 539 208.740234375 534 c 2,41,-1
 208.740234375 409 l 2,42,43
 208.740234375 393 208.740234375 393 213.419921875 390.5 c 128,-1,44
 218.099609375 388 218.099609375 388 229.01953125 388 c 2,45,-1
 268.01953125 389 l 2,46,47
 331.98046875 391 331.98046875 391 385.799804688 380.5 c 128,-1,48
 439.619140625 370 439.619140625 370 477.83984375 346.5 c 128,-1,49
 516.059570312 323 516.059570312 323 537.119140625 287 c 128,-1,50
 558.180664062 251 558.180664062 251 558.180664062 202 c 0,51,52
 558.180664062 162 558.180664062 162 533.219726562 124.5 c 128,-1,53
 508.259765625 87 508.259765625 87 456 57.5 c 128,-1,54
 403.740234375 28 403.740234375 28 325.740234375 10 c 128,-1,55
 247.740234375 -8 247.740234375 -8 140.099609375 -8 c 0,0,1
93.2998046875 413 m 0,56,57
 93.2998046875 432 93.2998046875 432 91.740234375 442.5 c 128,-1,58
 90.1806640625 453 90.1806640625 453 80.8193359375 446 c 0,59,60
 76.140625 443 76.140625 443 73.01953125 431 c 128,-1,61
 69.900390625 419 69.900390625 419 69.900390625 404.5 c 128,-1,62
 69.900390625 390 69.900390625 390 73.01953125 378 c 128,-1,63
 76.140625 366 76.140625 366 80.8193359375 362 c 256,64,65
 85.5 359 85.5 359 87.0595703125 359 c 0,66,67
 93.2998046875 360 93.2998046875 360 93.2998046875 413 c 0,56,57
107.33984375 334 m 0,68,69
 107.33984375 344 107.33984375 344 97.98046875 344 c 0,70,71
 80.8193359375 344 80.8193359375 344 80.8193359375 330 c 0,72,73
 80.8193359375 323 80.8193359375 323 93.2998046875 323 c 0,74,75
 101.099609375 323 101.099609375 323 104.219726562 327.5 c 128,-1,76
 107.33984375 332 107.33984375 332 107.33984375 334 c 0,68,69
91.740234375 49 m 0,77,78
 90.1806640625 51 90.1806640625 51 90.9599609375 55 c 128,-1,79
 91.740234375 59 91.740234375 59 92.51953125 63 c 128,-1,80
 93.2998046875 67 93.2998046875 67 91.740234375 69.5 c 128,-1,81
 90.1806640625 72 90.1806640625 72 83.9404296875 72 c 0,82,83
 76.140625 72 76.140625 72 73.01953125 63 c 128,-1,84
 69.900390625 54 69.900390625 54 71.4599609375 43 c 256,85,86
 73.01953125 32 73.01953125 32 77.7001953125 22 c 128,-1,87
 82.380859375 12 82.380859375 12 91.740234375 12 c 0,88,89
 94.859375 12 94.859375 12 97.2001953125 23.5 c 128,-1,90
 99.5400390625 35 99.5400390625 35 91.740234375 49 c 0,77,78
EndSplineSet
EndChar

StartChar: six.mlym
Encoding: 54 54 22
Width: 600
VWidth: 1024
Flags: W
LayerCount: 2
Fore
SplineSet
302.33984375 -11 m 0,0,1
 219.66015625 -11 219.66015625 -11 161.16015625 9 c 128,-1,2
 102.66015625 29 102.66015625 29 66 62.5 c 128,-1,3
 29.33984375 96 29.33984375 96 12.1806640625 139.5 c 128,-1,4
 -4.98046875 183 -4.98046875 183 -4.98046875 230 c 0,5,6
 -4.98046875 282 -4.98046875 282 8.2802734375 336 c 128,-1,7
 21.5400390625 390 21.5400390625 390 48.83984375 439 c 128,-1,8
 76.140625 488 76.140625 488 119.819335938 530 c 128,-1,9
 163.5 572 163.5 572 225.900390625 601 c 0,10,11
 271.140625 621 271.140625 621 315.599609375 628 c 128,-1,12
 360.059570312 635 360.059570312 635 394.380859375 635 c 0,13,14
 402.180664062 635 402.180664062 635 414.66015625 633.5 c 128,-1,15
 427.140625 632 427.140625 632 438.059570312 629 c 128,-1,16
 448.98046875 626 448.98046875 626 457.559570312 620.5 c 128,-1,17
 466.140625 615 466.140625 615 466.140625 607 c 0,18,19
 466.140625 593 466.140625 593 458.33984375 581 c 128,-1,20
 450.540039062 569 450.540039062 569 408.419921875 560 c 0,21,22
 366.299804688 551 366.299804688 551 332.759765625 533.5 c 128,-1,23
 299.219726562 516 299.219726562 516 272.700195312 494 c 128,-1,24
 246.180664062 472 246.180664062 472 227.459960938 446 c 128,-1,25
 208.740234375 420 208.740234375 420 193.140625 394 c 0,26,27
 185.33984375 382 185.33984375 382 179.099609375 363 c 128,-1,28
 172.859375 344 172.859375 344 172.859375 333 c 0,29,30
 172.859375 323 172.859375 323 179.099609375 323 c 0,31,32
 183.780273438 323 183.780273438 323 195.48046875 332.5 c 128,-1,33
 207.180664062 342 207.180664062 342 227.459960938 353.5 c 128,-1,34
 247.740234375 365 247.740234375 365 278.16015625 374.5 c 128,-1,35
 308.580078125 384 308.580078125 384 352.259765625 384 c 0,36,37
 475.5 384 475.5 384 540.240234375 331 c 128,-1,38
 604.98046875 278 604.98046875 278 604.98046875 191 c 0,39,40
 604.98046875 149 604.98046875 149 580.799804688 112.5 c 128,-1,41
 556.619140625 76 556.619140625 76 515.280273438 48 c 128,-1,42
 473.940429688 20 473.940429688 20 418.559570312 4.5 c 128,-1,43
 363.180664062 -11 363.180664062 -11 302.33984375 -11 c 0,0,1
294.540039062 82 m 0,44,45
 361.619140625 82 361.619140625 82 402.180664062 109 c 128,-1,46
 442.740234375 136 442.740234375 136 442.740234375 195 c 0,47,48
 442.740234375 212 442.740234375 212 438.059570312 229.5 c 128,-1,49
 433.380859375 247 433.380859375 247 420.900390625 261 c 128,-1,50
 408.419921875 275 408.419921875 275 386.580078125 284 c 128,-1,51
 364.740234375 293 364.740234375 293 330.419921875 293 c 0,52,53
 300.780273438 293 300.780273438 293 269.580078125 282.5 c 128,-1,54
 238.380859375 272 238.380859375 272 214.200195312 256.5 c 128,-1,55
 190.01953125 241 190.01953125 241 175.200195312 221 c 128,-1,56
 160.380859375 201 160.380859375 201 160.380859375 182 c 0,57,58
 160.380859375 140 160.380859375 140 188.459960938 111 c 128,-1,59
 216.540039062 82 216.540039062 82 294.540039062 82 c 0,44,45
93.2998046875 110 m 0,60,61
 88.619140625 121 88.619140625 121 82.380859375 130.5 c 128,-1,62
 76.140625 140 76.140625 140 69.900390625 152 c 0,63,64
 66.7802734375 158 66.7802734375 158 64.4404296875 163 c 128,-1,65
 62.099609375 168 62.099609375 168 55.859375 167 c 0,66,67
 51.1806640625 167 51.1806640625 167 48.0595703125 159 c 0,68,69
 46.5 152 46.5 152 51.9599609375 138.5 c 128,-1,70
 57.419921875 125 57.419921875 125 66 112.5 c 128,-1,71
 74.580078125 100 74.580078125 100 83.16015625 91.5 c 128,-1,72
 91.740234375 83 91.740234375 83 94.859375 83 c 0,73,74
 102.66015625 83 102.66015625 83 102.66015625 88 c 0,75,76
 102.66015625 92 102.66015625 92 99.5400390625 97.5 c 128,-1,77
 96.419921875 103 96.419921875 103 93.2998046875 110 c 0,60,61
EndSplineSet
EndChar

StartChar: seven.mlym
Encoding: 55 55 23
Width: 600
VWidth: 1024
Flags: W
LayerCount: 2
Fore
SplineSet
174.419921875 -2 m 0,0,1
 152.580078125 -2 152.580078125 -2 136.98046875 6.5 c 128,-1,2
 121.380859375 15 121.380859375 15 121.380859375 26 c 0,3,4
 121.380859375 35 121.380859375 35 137.759765625 72 c 128,-1,5
 154.140625 109 154.140625 109 177.540039062 160 c 128,-1,6
 200.940429688 211 200.940429688 211 229.799804688 269.5 c 128,-1,7
 258.66015625 328 258.66015625 328 285.180664062 380 c 128,-1,8
 311.700195312 432 311.700195312 432 332.759765625 472 c 128,-1,9
 353.819335938 512 353.819335938 512 361.619140625 526 c 0,10,11
 369.419921875 541 369.419921875 541 350.700195312 542 c 2,12,-1
 143.219726562 542 l 2,13,14
 99.5400390625 542 99.5400390625 542 75.359375 550.5 c 128,-1,15
 51.1806640625 559 51.1806640625 559 51.1806640625 587 c 256,16,17
 51.1806640625 615 51.1806640625 615 77.7001953125 623 c 128,-1,18
 104.219726562 631 104.219726562 631 146.33984375 631 c 2,19,-1
 483.299804688 631 l 2,20,21
 509.819335938 631 509.819335938 631 529.319335938 620 c 128,-1,22
 548.819335938 609 548.819335938 609 548.819335938 595 c 0,23,24
 548.819335938 585 548.819335938 585 530.880859375 542 c 128,-1,25
 512.940429688 499 512.940429688 499 484.859375 439.5 c 128,-1,26
 456.780273438 380 456.780273438 380 422.459960938 311 c 128,-1,27
 388.140625 242 388.140625 242 356.16015625 180.5 c 128,-1,28
 324.180664062 119 324.180664062 119 299.219726562 73 c 128,-1,29
 274.259765625 27 274.259765625 27 260.219726562 11 c 0,30,31
 257.099609375 6 257.099609375 6 234.48046875 2 c 128,-1,32
 211.859375 -2 211.859375 -2 174.419921875 -2 c 0,0,1
102.66015625 608 m 0,33,34
 102.66015625 616 102.66015625 616 94.859375 616 c 256,35,36
 87.0595703125 616 87.0595703125 616 76.140625 608.5 c 128,-1,37
 65.2197265625 601 65.2197265625 601 65.2197265625 590 c 0,38,39
 65.2197265625 570 65.2197265625 570 79.259765625 569 c 0,40,41
 83.9404296875 569 83.9404296875 569 88.619140625 574 c 128,-1,42
 93.2998046875 579 93.2998046875 579 96.419921875 585 c 128,-1,43
 99.5400390625 591 99.5400390625 591 101.099609375 597.5 c 128,-1,44
 102.66015625 604 102.66015625 604 102.66015625 608 c 0,33,34
174.419921875 39 m 0,45,46
 177.540039062 49 177.540039062 49 180.66015625 60 c 128,-1,47
 183.780273438 71 183.780273438 71 186.900390625 75 c 0,48,49
 193.140625 80 193.140625 80 190.799804688 85 c 128,-1,50
 188.459960938 90 188.459960938 90 180.66015625 90 c 0,51,52
 175.98046875 90 175.98046875 90 170.51953125 83 c 128,-1,53
 165.059570312 76 165.059570312 76 161.16015625 66 c 128,-1,54
 157.259765625 56 157.259765625 56 154.140625 46.5 c 128,-1,55
 151.01953125 37 151.01953125 37 151.01953125 32 c 0,56,57
 151.01953125 20 151.01953125 20 158.819335938 19 c 256,58,59
 166.619140625 20 166.619140625 20 174.419921875 39 c 0,45,46
EndSplineSet
EndChar

StartChar: eight.mlym
Encoding: 56 56 24
Width: 600
VWidth: 1024
Flags: W
LayerCount: 2
Fore
SplineSet
287.51953125 -6 m 0,0,1
 223.559570312 -6 223.559570312 -6 169.740234375 9 c 128,-1,2
 115.919921875 24 115.919921875 24 78.48046875 48 c 128,-1,3
 41.0400390625 72 41.0400390625 72 19.98046875 103 c 128,-1,4
 -1.080078125 134 -1.080078125 134 -1.080078125 167 c 0,5,6
 -1.080078125 206 -1.080078125 206 26.2197265625 233.5 c 128,-1,7
 53.51953125 261 53.51953125 261 86.2802734375 280.5 c 128,-1,8
 119.040039062 300 119.040039062 300 146.33984375 313 c 128,-1,9
 173.640625 326 173.640625 326 173.640625 333 c 0,10,11
 173.640625 341 173.640625 341 148.680664062 350 c 128,-1,12
 123.719726562 359 123.719726562 359 93.2998046875 375.5 c 128,-1,13
 62.880859375 392 62.880859375 392 38.7001953125 417 c 128,-1,14
 14.51953125 442 14.51953125 442 14.51953125 482 c 0,15,16
 14.51953125 515 14.51953125 515 37.140625 543.5 c 128,-1,17
 59.759765625 572 59.759765625 572 99.5400390625 593.5 c 128,-1,18
 139.319335938 615 139.319335938 615 190.799804688 627.5 c 128,-1,19
 242.280273438 640 242.280273438 640 298.440429688 640 c 0,20,21
 340.559570312 640 340.559570312 640 388.140625 629 c 128,-1,22
 435.719726562 618 435.719726562 618 476.280273438 598.5 c 128,-1,23
 516.83984375 579 516.83984375 579 543.359375 549 c 128,-1,24
 569.880859375 519 569.880859375 519 569.880859375 480 c 0,25,26
 569.880859375 442 569.880859375 442 547.259765625 419 c 128,-1,27
 524.640625 396 524.640625 396 498.119140625 382.5 c 128,-1,28
 471.599609375 369 471.599609375 369 449.759765625 361.5 c 128,-1,29
 427.919921875 354 427.919921875 354 427.919921875 348 c 0,30,31
 427.919921875 339 427.919921875 339 455.219726562 327 c 128,-1,32
 482.51953125 315 482.51953125 315 515.280273438 296.5 c 128,-1,33
 548.040039062 278 548.040039062 278 574.559570312 248 c 128,-1,34
 601.080078125 218 601.080078125 218 601.080078125 173 c 0,35,36
 601.080078125 139 601.080078125 139 576.900390625 107 c 128,-1,37
 552.719726562 75 552.719726562 75 509.040039062 49.5 c 128,-1,38
 465.359375 24 465.359375 24 409.200195312 9 c 128,-1,39
 353.040039062 -6 353.040039062 -6 287.51953125 -6 c 0,0,1
83.16015625 524 m 0,40,41
 84.7197265625 530 84.7197265625 530 92.51953125 537.5 c 128,-1,42
 100.319335938 545 100.319335938 545 109.680664062 551.5 c 128,-1,43
 119.040039062 558 119.040039062 558 127.619140625 563.5 c 128,-1,44
 136.200195312 569 136.200195312 569 140.880859375 572 c 0,45,46
 158.040039062 584 158.040039062 584 159.599609375 592 c 0,47,48
 159.599609375 596 159.599609375 596 153.359375 596 c 0,49,50
 139.319335938 596 139.319335938 596 122.16015625 586.5 c 128,-1,51
 105 577 105 577 90.9599609375 563 c 128,-1,52
 76.919921875 549 76.919921875 549 66.7802734375 535 c 128,-1,53
 56.640625 521 56.640625 521 56.640625 513 c 256,54,55
 56.640625 505 56.640625 505 62.880859375 505 c 0,56,57
 75.359375 505 75.359375 505 83.16015625 524 c 0,40,41
298.440429688 380 m 0,58,59
 318.719726562 380 318.719726562 380 339 388.5 c 128,-1,60
 359.280273438 397 359.280273438 397 374.880859375 411.5 c 128,-1,61
 390.48046875 426 390.48046875 426 401.400390625 444 c 128,-1,62
 412.319335938 462 412.319335938 462 412.319335938 480 c 0,63,64
 412.319335938 516 412.319335938 516 380.33984375 542 c 128,-1,65
 348.359375 568 348.359375 568 296.880859375 568 c 256,66,67
 245.400390625 568 245.400390625 568 208.740234375 545.5 c 128,-1,68
 172.080078125 523 172.080078125 523 172.080078125 484 c 0,69,70
 172.080078125 470 172.080078125 470 179.880859375 452 c 128,-1,71
 187.680664062 434 187.680664062 434 204.059570312 417.5 c 128,-1,72
 220.440429688 401 220.440429688 401 244.619140625 390.5 c 128,-1,73
 268.799804688 380 268.799804688 380 298.440429688 380 c 0,58,59
66 480 m 0,74,75
 66 489 66 489 55.080078125 489 c 0,76,77
 47.2802734375 489 47.2802734375 489 44.9404296875 486 c 128,-1,78
 42.599609375 483 42.599609375 483 42.599609375 480 c 0,79,80
 42.599609375 478 42.599609375 478 44.16015625 476 c 0,81,82
 47.2802734375 472 47.2802734375 472 53.51953125 472 c 0,83,84
 56.640625 472 56.640625 472 61.3193359375 474 c 128,-1,85
 66 476 66 476 66 480 c 0,74,75
290.640625 75 m 0,86,87
 367.080078125 75 367.080078125 75 395.16015625 100.5 c 128,-1,88
 423.240234375 126 423.240234375 126 423.240234375 173 c 0,89,90
 423.240234375 192 423.240234375 192 410.759765625 213 c 128,-1,91
 398.280273438 234 398.280273438 234 380.33984375 251.5 c 128,-1,92
 362.400390625 269 362.400390625 269 341.33984375 280.5 c 128,-1,93
 320.280273438 292 320.280273438 292 303.119140625 292 c 0,94,95
 279.719726562 292 279.719726562 292 255.540039062 280 c 128,-1,96
 231.359375 268 231.359375 268 211.859375 250 c 128,-1,97
 192.359375 232 192.359375 232 180.66015625 210 c 128,-1,98
 168.959960938 188 168.959960938 188 168.959960938 167 c 0,99,100
 168.959960938 151 168.959960938 151 177.540039062 134.5 c 128,-1,101
 186.119140625 118 186.119140625 118 201.719726562 104.5 c 128,-1,102
 217.319335938 91 217.319335938 91 239.940429688 83 c 128,-1,103
 262.559570312 75 262.559570312 75 290.640625 75 c 0,86,87
72.240234375 227 m 256,104,105
 76.919921875 235 76.919921875 235 72.240234375 238.5 c 128,-1,106
 67.5595703125 242 67.5595703125 242 56.640625 234 c 0,107,108
 51.9599609375 231 51.9599609375 231 44.16015625 223.5 c 128,-1,109
 36.359375 216 36.359375 216 29.33984375 207 c 128,-1,110
 22.3193359375 198 22.3193359375 198 16.859375 188 c 128,-1,111
 11.400390625 178 11.400390625 178 11.400390625 170 c 0,112,113
 9.83984375 162 9.83984375 162 15.2998046875 154 c 128,-1,114
 20.759765625 146 20.759765625 146 31.6806640625 146 c 0,115,116
 44.16015625 146 44.16015625 146 42.599609375 159 c 128,-1,117
 41.0400390625 172 41.0400390625 172 44.16015625 183 c 0,118,119
 48.83984375 198 48.83984375 198 58.2001953125 208.5 c 128,-1,120
 67.5595703125 219 67.5595703125 219 72.240234375 227 c 256,104,105
EndSplineSet
EndChar

StartChar: nine.mlym
Encoding: 57 57 25
Width: 600
Flags: W
LayerCount: 2
Fore
SplineSet
296.880859375 623 m 0,0,1
 382.680664062 623 382.680664062 623 440.400390625 601.5 c 128,-1,2
 498.119140625 580 498.119140625 580 532.440429688 546 c 128,-1,3
 566.759765625 512 566.759765625 512 581.580078125 470 c 128,-1,4
 596.400390625 428 596.400390625 428 596.400390625 387 c 0,5,6
 596.400390625 336 596.400390625 336 578.459960938 284 c 128,-1,7
 560.51953125 232 560.51953125 232 528.540039062 185 c 128,-1,8
 496.559570312 138 496.559570312 138 452.880859375 99 c 128,-1,9
 409.200195312 60 409.200195312 60 357.719726562 34 c 0,10,11
 315.599609375 13 315.599609375 13 271.140625 2.5 c 128,-1,12
 226.680664062 -8 226.680664062 -8 192.359375 -8 c 0,13,14
 164.280273438 -8 164.280273438 -8 144.780273438 -1.5 c 128,-1,15
 125.280273438 5 125.280273438 5 125.280273438 21 c 0,16,17
 125.280273438 36 125.280273438 36 137.759765625 51.5 c 128,-1,18
 150.240234375 67 150.240234375 67 192.359375 76 c 0,19,20
 232.919921875 85 232.919921875 85 264.900390625 100 c 128,-1,21
 296.880859375 115 296.880859375 115 321.83984375 135 c 128,-1,22
 346.799804688 155 346.799804688 155 364.740234375 178.5 c 128,-1,23
 382.680664062 202 382.680664062 202 396.719726562 227 c 0,24,25
 404.51953125 239 404.51953125 239 410.759765625 257.5 c 128,-1,26
 417 276 417 276 417 287 c 0,27,28
 417 297 417 297 410.759765625 297 c 0,29,30
 406.080078125 297 406.080078125 297 395.940429688 289 c 128,-1,31
 385.799804688 281 385.799804688 281 365.51953125 272 c 128,-1,32
 345.240234375 263 345.240234375 263 314.040039062 255 c 128,-1,33
 282.83984375 247 282.83984375 247 236.040039062 247 c 0,34,35
 126.83984375 247 126.83984375 247 65.2197265625 295 c 128,-1,36
 3.599609375 343 3.599609375 343 3.599609375 425 c 0,37,38
 3.599609375 463 3.599609375 463 22.3193359375 499 c 128,-1,39
 41.0400390625 535 41.0400390625 535 78.48046875 562.5 c 128,-1,40
 115.919921875 590 115.919921875 590 170.51953125 606.5 c 128,-1,41
 225.119140625 623 225.119140625 623 296.880859375 623 c 0,0,1
304.680664062 535 m 0,42,43
 239.16015625 535 239.16015625 535 199.380859375 508 c 128,-1,44
 159.599609375 481 159.599609375 481 159.599609375 432 c 0,45,46
 159.599609375 390 159.599609375 390 188.459960938 364.5 c 128,-1,47
 217.319335938 339 217.319335938 339 268.799804688 339 c 0,48,49
 300 339 300 339 328.859375 347 c 128,-1,50
 357.719726562 355 357.719726562 355 379.559570312 368 c 128,-1,51
 401.400390625 381 401.400390625 381 415.440429688 398.5 c 128,-1,52
 429.48046875 416 429.48046875 416 429.48046875 434 c 0,53,54
 429.48046875 455 429.48046875 455 424.01953125 473 c 128,-1,55
 418.559570312 491 418.559570312 491 404.51953125 505 c 128,-1,56
 390.48046875 519 390.48046875 519 366.299804688 527 c 128,-1,57
 342.119140625 535 342.119140625 535 304.680664062 535 c 0,42,43
81.599609375 486 m 0,58,59
 84.7197265625 496 84.7197265625 496 88.619140625 503.5 c 128,-1,60
 92.51953125 511 92.51953125 511 92.51953125 517 c 0,61,62
 92.51953125 524 92.51953125 524 81.599609375 524 c 0,63,64
 76.919921875 524 76.919921875 524 68.33984375 511 c 128,-1,65
 59.759765625 498 59.759765625 498 52.740234375 480 c 128,-1,66
 45.7197265625 462 45.7197265625 462 41.0400390625 444 c 128,-1,67
 36.359375 426 36.359375 426 39.48046875 415 c 0,68,69
 44.16015625 403 44.16015625 403 51.9599609375 403 c 256,70,71
 59.759765625 403 59.759765625 403 63.66015625 410.5 c 128,-1,72
 67.5595703125 418 67.5595703125 418 70.6806640625 426 c 0,73,74
 76.919921875 443 76.919921875 443 76.919921875 457 c 128,-1,75
 76.919921875 471 76.919921875 471 81.599609375 486 c 0,58,59
75.359375 380 m 0,76,77
 75.359375 385 75.359375 385 73.01953125 388.5 c 128,-1,78
 70.6806640625 392 70.6806640625 392 66 392 c 0,79,80
 58.2001953125 392 58.2001953125 392 51.9599609375 389 c 128,-1,81
 45.7197265625 386 45.7197265625 386 45.7197265625 376 c 0,82,83
 45.7197265625 373 45.7197265625 373 49.619140625 370 c 128,-1,84
 53.51953125 367 53.51953125 367 59.759765625 367 c 0,85,86
 69.119140625 367 69.119140625 367 72.240234375 372.5 c 128,-1,87
 75.359375 378 75.359375 378 75.359375 380 c 0,76,77
187.680664062 58 m 2,88,89
 187.680664062 61 187.680664062 61 180.66015625 60 c 128,-1,90
 173.640625 59 173.640625 59 165.83984375 55 c 128,-1,91
 158.040039062 51 158.040039062 51 151.799804688 44 c 128,-1,92
 145.559570312 37 145.559570312 37 145.559570312 28 c 0,93,94
 145.559570312 26 145.559570312 26 147.900390625 20 c 128,-1,95
 150.240234375 14 150.240234375 14 156.48046875 14 c 0,96,97
 161.16015625 14 161.16015625 14 166.619140625 20.5 c 128,-1,98
 172.080078125 27 172.080078125 27 176.759765625 35.5 c 128,-1,99
 181.440429688 44 181.440429688 44 184.559570312 51 c 128,-1,100
 187.680664062 58 187.680664062 58 187.680664062 58 c 2,88,89
EndSplineSet
EndChar

StartChar: colon.mlym
Encoding: 58 58 26
Width: 600
VWidth: 1024
Flags: W
LayerCount: 2
Fore
SplineSet
211.099609375 -32.7998046875 m 0,0,1
 211.099609375 20.400390625 211.099609375 20.400390625 237 42.099609375 c 128,-1,2
 262.900390625 63.7998046875 262.900390625 63.7998046875 297.900390625 63.7998046875 c 0,3,4
 335.700195312 63.7998046875 335.700195312 63.7998046875 362.299804688 42.099609375 c 128,-1,5
 388.900390625 20.400390625 388.900390625 20.400390625 388.900390625 -32.7998046875 c 0,6,7
 388.900390625 -84.599609375 388.900390625 -84.599609375 362.299804688 -107 c 128,-1,8
 335.700195312 -129.400390625 335.700195312 -129.400390625 297.900390625 -129.400390625 c 0,9,10
 261.5 -129.400390625 261.5 -129.400390625 236.299804688 -107 c 128,-1,11
 211.099609375 -84.599609375 211.099609375 -84.599609375 211.099609375 -32.7998046875 c 0,0,1
211.099609375 581.799804688 m 0,12,13
 211.099609375 636.400390625 211.099609375 636.400390625 237 657.400390625 c 128,-1,14
 262.900390625 678.400390625 262.900390625 678.400390625 297.900390625 678.400390625 c 0,15,16
 335.700195312 678.400390625 335.700195312 678.400390625 362.299804688 656.700195312 c 128,-1,17
 388.900390625 635 388.900390625 635 388.900390625 581.799804688 c 0,18,19
 388.900390625 530 388.900390625 530 362.299804688 506.900390625 c 128,-1,20
 335.700195312 483.799804688 335.700195312 483.799804688 297.900390625 483.799804688 c 0,21,22
 261.5 483.799804688 261.5 483.799804688 236.299804688 506.900390625 c 128,-1,23
 211.099609375 530 211.099609375 530 211.099609375 581.799804688 c 0,12,13
EndSplineSet
EndChar

StartChar: semicolon.mlym
Encoding: 59 59 27
Width: 600
VWidth: 1024
Flags: W
LayerCount: 2
Fore
SplineSet
400.099609375 65 m 1,0,1
 387.5 14.599609375 387.5 14.599609375 367.900390625 -44.2001953125 c 128,-1,2
 348.299804688 -103 348.299804688 -103 324.5 -161.099609375 c 128,-1,3
 300.700195312 -219.200195312 300.700195312 -219.200195312 276.900390625 -271 c 1,4,-1
 183.099609375 -271 l 1,5,6
 192.900390625 -230.400390625 192.900390625 -230.400390625 203.400390625 -184.900390625 c 128,-1,7
 213.900390625 -139.400390625 213.900390625 -139.400390625 224.400390625 -92.5 c 128,-1,8
 234.900390625 -45.599609375 234.900390625 -45.599609375 242.599609375 -1.5 c 128,-1,9
 250.299804688 42.599609375 250.299804688 42.599609375 255.900390625 80.400390625 c 1,10,-1
 390.299804688 80.400390625 l 1,11,-1
 400.099609375 65 l 1,0,1
239.099609375 605.400390625 m 0,12,13
 239.099609375 660 239.099609375 660 265 681 c 128,-1,14
 290.900390625 702 290.900390625 702 325.900390625 702 c 0,15,16
 363.700195312 702 363.700195312 702 390.299804688 680.299804688 c 128,-1,17
 416.900390625 658.599609375 416.900390625 658.599609375 416.900390625 605.400390625 c 0,18,19
 416.900390625 553.599609375 416.900390625 553.599609375 390.299804688 530.5 c 128,-1,20
 363.700195312 507.400390625 363.700195312 507.400390625 325.900390625 507.400390625 c 0,21,22
 289.5 507.400390625 289.5 507.400390625 264.299804688 530.5 c 128,-1,23
 239.099609375 553.599609375 239.099609375 553.599609375 239.099609375 605.400390625 c 0,12,13
EndSplineSet
EndChar

StartChar: less.mlym
Encoding: 60 60 28
Width: 600
VWidth: 1024
Flags: W
LayerCount: 2
Fore
SplineSet
565.650390625 119 m 5,0,-1
 34.349609375 331 l 5,1,-1
 34.349609375 382 l 5,2,-1
 565.650390625 623 l 5,3,-1
 565.650390625 543 l 5,4,-1
 139.950195312 360 l 5,5,-1
 565.650390625 199 l 5,6,-1
 565.650390625 119 l 5,0,-1
EndSplineSet
EndChar

StartChar: equal.mlym
Encoding: 61 61 29
Width: 600
VWidth: 1024
Flags: W
LayerCount: 2
Fore
SplineSet
18.599609375 432.549804688 m 5,0,-1
 18.599609375 512.849609375 l 5,1,-1
 581.400390625 512.849609375 l 5,2,-1
 581.400390625 432.549804688 l 5,3,-1
 18.599609375 432.549804688 l 5,0,-1
18.599609375 208.150390625 m 5,4,-1
 18.599609375 288.450195312 l 5,5,-1
 581.400390625 288.450195312 l 5,6,-1
 581.400390625 208.150390625 l 5,7,-1
 18.599609375 208.150390625 l 5,4,-1
EndSplineSet
EndChar

StartChar: greater.mlym
Encoding: 62 62 30
Width: 600
VWidth: 1024
Flags: W
LayerCount: 2
Fore
SplineSet
10.2001953125 199 m 5,0,-1
 473.400390625 359 l 5,1,-1
 10.2001953125 543 l 5,2,-1
 10.2001953125 623 l 5,3,-1
 589.799804688 382 l 5,4,-1
 589.799804688 331 l 5,5,-1
 10.2001953125 119 l 5,6,-1
 10.2001953125 199 l 5,0,-1
EndSplineSet
EndChar

StartChar: question.mlym
Encoding: 63 63 31
Width: 600
VWidth: 1024
Flags: W
LayerCount: 2
Fore
SplineSet
206.400390625 204 m 6,0,1
 206.400390625 243 206.400390625 243 216.799804688 271 c 132,-1,2
 227.200195312 299 227.200195312 299 251.900390625 324.5 c 132,-1,3
 276.599609375 350 276.599609375 350 318.200195312 378 c 4,4,5
 370.200195312 412 370.200195312 412 398.799804688 434.5 c 132,-1,6
 427.400390625 457 427.400390625 457 439.75 478.5 c 132,-1,7
 452.099609375 500 452.099609375 500 452.099609375 530 c 4,8,9
 452.099609375 579 452.099609375 579 410.5 606 c 132,-1,10
 368.900390625 633 368.900390625 633 290.900390625 633 c 4,11,12
 225.900390625 633 225.900390625 633 175.200195312 620 c 132,-1,13
 124.5 607 124.5 607 77.7001953125 590 c 5,14,-1
 36.099609375 662 l 5,15,16
 89.400390625 684 89.400390625 684 154.400390625 698 c 132,-1,17
 219.400390625 712 219.400390625 712 298.700195312 712 c 4,18,19
 424.799804688 712 424.799804688 712 494.349609375 663.5 c 132,-1,20
 563.900390625 615 563.900390625 615 563.900390625 532 c 4,21,22
 563.900390625 486 563.900390625 486 544.400390625 454 c 132,-1,23
 524.900390625 422 524.900390625 422 489.799804688 395 c 132,-1,24
 454.700195312 368 454.700195312 368 406.599609375 337 c 4,25,26
 362.400390625 308 362.400390625 308 339 286.5 c 132,-1,27
 315.599609375 265 315.599609375 265 307.799804688 244 c 132,-1,28
 300 223 300 223 300 194 c 6,29,-1
 300 176 l 5,30,-1
 206.400390625 176 l 5,31,-1
 206.400390625 204 l 6,0,1
176.5 26 m 4,32,33
 176.5 64 176.5 64 199.900390625 79 c 132,-1,34
 223.299804688 94 223.299804688 94 258.400390625 94 c 4,35,36
 292.200195312 94 292.200195312 94 316.25 78.5 c 132,-1,37
 340.299804688 63 340.299804688 63 340.299804688 26 c 132,-1,38
 340.299804688 -11 340.299804688 -11 316.25 -27.5 c 132,-1,39
 292.200195312 -44 292.200195312 -44 258.400390625 -44 c 4,40,41
 222 -44 222 -44 199.25 -27.5 c 132,-1,42
 176.5 -11 176.5 -11 176.5 26 c 4,32,33
EndSplineSet
EndChar

StartChar: bracketleft.mlym
Encoding: 91 91 32
Width: 600
VWidth: 1024
Flags: W
LayerCount: 2
Fore
SplineSet
489.094726562 -82 m 4,0,1
 513.495117188 -82 513.495117188 -82 530.6953125 -73.5 c 4,2,3
 548.6953125 -65 548.6953125 -65 548.294921875 -56 c 4,4,5
 548.6953125 -27 548.6953125 -27 525.89453125 -24 c 4,6,7
 483.094726562 -18 483.094726562 -18 471.495117188 -17 c 4,8,9
 439.89453125 -15 439.89453125 -15 409.094726562 -12 c 4,10,11
 399.89453125 -11 399.89453125 -11 375.495117188 -8.5 c 4,12,13
 214.294921875 3 214.294921875 3 214.6953125 3.5 c 4,14,15
 212.6953125 21 212.6953125 21 212.294921875 22 c 6,16,-1
 212.294921875 604 l 6,17,18
 380.294921875 608 l 4,19,20
 382.294921875 606 382.294921875 606 418.6953125 606 c 260,21,22
 427.094726562 606 427.094726562 606 456.294921875 605 c 4,23,24
 476.6953125 604 476.6953125 604 493.89453125 603 c 4,25,26
 516.6953125 603 516.6953125 603 532.294921875 610.5 c 4,27,28
 548.6953125 618 548.6953125 618 548.294921875 648 c 4,29,30
 548.6953125 660 548.6953125 660 521.094726562 669 c 4,31,32
 494.294921875 678 494.294921875 678 445.89453125 678 c 4,33,34
 331.094726562 678 331.094726562 678 216.294921875 678 c 4,35,36
 177.495117188 678 177.495117188 678 145.094726562 676.5 c 4,37,38
 113.495117188 675 113.495117188 675 92.294921875 672 c 4,39,40
 71.89453125 669 71.89453125 669 66.6953125 663 c 4,41,42
 62.294921875 658 62.294921875 658 61.0947265625 641 c 4,43,44
 60.6953125 624 60.6953125 624 60.294921875 584.5 c 4,45,46
 60.6953125 545 60.6953125 545 59.4951171875 477.5 c 4,47,48
 59.0947265625 410 59.0947265625 410 57.0947265625 302 c 4,49,50
 54.294921875 198 54.294921875 198 52.294921875 130.5 c 4,51,52
 51.0947265625 63 51.0947265625 63 52.294921875 22 c 4,53,54
 52.6953125 -7 52.6953125 -7 58.6953125 -25.5 c 4,55,56
 65.4951171875 -44 65.4951171875 -44 74.6953125 -55.5 c 4,57,58
 84.6953125 -67 84.6953125 -67 97.89453125 -72 c 4,59,60
 111.89453125 -77 111.89453125 -77 129.094726562 -78 c 4,61,62
 158.294921875 -80 158.294921875 -80 193.094726562 -81 c 4,63,64
 228.6953125 -82 228.6953125 -82 407.495117188 -82 c 4,65,66
 439.89453125 -82 439.89453125 -82 462.6953125 -82 c 4,67,68
 486.294921875 -82 486.294921875 -82 489.094726562 -82 c 4,0,1
497.094726562 659 m 260,69,70
 503.495117188 664 503.495117188 664 514.6953125 660 c 132,-1,71
 525.89453125 656 525.89453125 656 525.89453125 648 c 4,72,73
 525.89453125 638 525.89453125 638 519.495117188 638 c 260,74,75
 513.094726562 638 513.094726562 638 513.094726562 645 c 4,76,77
 511.495117188 649 511.495117188 649 501.094726562 651.5 c 132,-1,78
 490.6953125 654 490.6953125 654 497.094726562 659 c 260,69,70
EndSplineSet
EndChar

StartChar: backslash.mlym
Encoding: 92 92 33
Width: 600
VWidth: 1024
Flags: W
LayerCount: 2
Fore
SplineSet
137.599609375 682 m 4,0,1
 147.400390625 682 147.400390625 682 173.299804688 645.5 c 132,-1,2
 199.200195312 609 199.200195312 609 232.799804688 554 c 132,-1,3
 266.400390625 499 266.400390625 499 303.5 433 c 132,-1,4
 340.599609375 367 340.599609375 367 373.5 307 c 132,-1,5
 406.400390625 247 406.400390625 247 430.200195312 202.5 c 132,-1,6
 454 158 454 158 462.400390625 145 c 132,-1,7
 470.799804688 132 470.799804688 132 487.599609375 104 c 132,-1,8
 504.400390625 76 504.400390625 76 521.200195312 45.5 c 132,-1,9
 538 15 538 15 549.900390625 -11 c 132,-1,10
 561.799804688 -37 561.799804688 -37 561.799804688 -45 c 4,11,12
 561.799804688 -52 561.799804688 -52 554.799804688 -58.5 c 132,-1,13
 547.799804688 -65 547.799804688 -65 536.599609375 -69.5 c 132,-1,14
 525.400390625 -74 525.400390625 -74 513.5 -76.5 c 132,-1,15
 501.599609375 -79 501.599609375 -79 491.799804688 -79 c 4,16,17
 472.200195312 -79 472.200195312 -79 455.400390625 -69 c 132,-1,18
 438.599609375 -59 438.599609375 -59 428.799804688 -48 c 4,19,20
 420.400390625 -38 420.400390625 -38 398.700195312 -3 c 132,-1,21
 377 32 377 32 348.299804688 81.5 c 132,-1,22
 319.599609375 131 319.599609375 131 285.299804688 191.5 c 132,-1,23
 251 252 251 252 216.700195312 313.5 c 132,-1,24
 182.400390625 375 182.400390625 375 150.200195312 433.5 c 132,-1,25
 118 492 118 492 93.5 538 c 132,-1,26
 69 584 69 584 53.599609375 613 c 132,-1,27
 38.2001953125 642 38.2001953125 642 38.2001953125 645 c 4,28,29
 38.2001953125 654 38.2001953125 654 51.5 661.5 c 132,-1,30
 64.7998046875 669 64.7998046875 669 81.599609375 673.5 c 132,-1,31
 98.400390625 678 98.400390625 678 115.200195312 680 c 132,-1,32
 132 682 132 682 137.599609375 682 c 4,0,1
101.200195312 641 m 4,33,34
 98.400390625 646 98.400390625 646 87.900390625 644 c 132,-1,35
 77.400390625 642 77.400390625 642 77.400390625 635 c 4,36,37
 77.400390625 629 77.400390625 629 84.400390625 614 c 132,-1,38
 91.400390625 599 91.400390625 599 101.200195312 583 c 132,-1,39
 111 567 111 567 120.099609375 553.5 c 132,-1,40
 129.200195312 540 129.200195312 540 132 536 c 4,41,42
 136.200195312 531 136.200195312 531 143.200195312 530.5 c 132,-1,43
 150.200195312 530 150.200195312 530 153 531 c 4,44,45
 160 532 160 532 155.099609375 545 c 132,-1,46
 150.200195312 558 150.200195312 558 140.400390625 575 c 132,-1,47
 130.599609375 592 130.599609375 592 118.700195312 610.5 c 132,-1,48
 106.799804688 629 106.799804688 629 101.200195312 641 c 4,33,34
EndSplineSet
EndChar

StartChar: bracketright.mlym
Encoding: 93 93 34
Width: 600
VWidth: 1024
Flags: W
LayerCount: 2
Fore
SplineSet
110.905273438 -82 m 4,0,1
 86.5048828125 -82 86.5048828125 -82 69.3046875 -73.5 c 4,2,3
 51.3046875 -65 51.3046875 -65 51.705078125 -56 c 4,4,5
 51.3046875 -27 51.3046875 -27 74.10546875 -24 c 4,6,7
 116.905273438 -18 116.905273438 -18 128.504882812 -17 c 4,8,9
 160.10546875 -15 160.10546875 -15 190.905273438 -12 c 4,10,11
 200.10546875 -11 200.10546875 -11 224.504882812 -8.5 c 4,12,13
 385.705078125 3 385.705078125 3 385.3046875 3.5 c 4,14,15
 387.3046875 21 387.3046875 21 387.705078125 22 c 6,16,-1
 387.705078125 604 l 6,17,18
 219.705078125 608 l 4,19,20
 217.705078125 606 217.705078125 606 181.3046875 606 c 260,21,22
 172.905273438 606 172.905273438 606 143.705078125 605 c 4,23,24
 123.3046875 604 123.3046875 604 106.10546875 603 c 4,25,26
 83.3046875 603 83.3046875 603 67.705078125 610.5 c 4,27,28
 51.3046875 618 51.3046875 618 51.705078125 648 c 4,29,30
 51.3046875 660 51.3046875 660 78.9052734375 669 c 4,31,32
 105.705078125 678 105.705078125 678 154.10546875 678 c 4,33,34
 268.905273438 678 268.905273438 678 383.705078125 678 c 4,35,36
 422.504882812 678 422.504882812 678 454.905273438 676.5 c 4,37,38
 486.504882812 675 486.504882812 675 507.705078125 672 c 4,39,40
 528.10546875 669 528.10546875 669 533.3046875 663 c 4,41,42
 537.705078125 658 537.705078125 658 538.905273438 641 c 4,43,44
 539.3046875 624 539.3046875 624 539.705078125 584.5 c 4,45,46
 539.3046875 545 539.3046875 545 540.504882812 477.5 c 4,47,48
 540.905273438 410 540.905273438 410 542.905273438 302 c 4,49,50
 545.705078125 198 545.705078125 198 547.705078125 130.5 c 4,51,52
 548.905273438 63 548.905273438 63 547.705078125 22 c 4,53,54
 547.3046875 -7 547.3046875 -7 541.3046875 -25.5 c 4,55,56
 534.504882812 -44 534.504882812 -44 525.3046875 -55.5 c 4,57,58
 515.3046875 -67 515.3046875 -67 502.10546875 -72 c 4,59,60
 488.10546875 -77 488.10546875 -77 470.905273438 -78 c 4,61,62
 441.705078125 -80 441.705078125 -80 406.905273438 -81 c 4,63,64
 371.3046875 -82 371.3046875 -82 192.504882812 -82 c 4,65,66
 160.10546875 -82 160.10546875 -82 137.3046875 -82 c 4,67,68
 113.705078125 -82 113.705078125 -82 110.905273438 -82 c 4,0,1
102.905273438 659 m 260,69,70
 96.5048828125 664 96.5048828125 664 85.3046875 660 c 132,-1,71
 74.10546875 656 74.10546875 656 74.10546875 648 c 4,72,73
 74.10546875 638 74.10546875 638 80.5048828125 638 c 260,74,75
 86.9052734375 638 86.9052734375 638 86.9052734375 645 c 4,76,77
 88.5048828125 649 88.5048828125 649 98.9052734375 651.5 c 132,-1,78
 109.3046875 654 109.3046875 654 102.905273438 659 c 260,69,70
EndSplineSet
EndChar

StartChar: asciicircum.mlym
Encoding: 94 94 35
Width: 600
VWidth: 1024
Flags: W
LayerCount: 2
Fore
SplineSet
10.4404296875 273 m 5,0,-1
 257.8203125 736 l 5,1,-1
 315.959960938 736 l 5,2,-1
 589.559570312 273 l 5,3,-1
 498.360351562 273 l 5,4,-1
 288.599609375 641 l 5,5,-1
 101.639648438 273 l 5,6,-1
 10.4404296875 273 l 5,0,-1
EndSplineSet
EndChar

StartChar: underscore.mlym
Encoding: 95 95 36
Width: 600
VWidth: 1024
Flags: W
LayerCount: 2
Fore
SplineSet
575.400390625 -161.299804688 m 5,0,-1
 24.599609375 -161.299804688 l 5,1,-1
 24.599609375 -88.7001953125 l 5,2,-1
 575.400390625 -88.7001953125 l 5,3,-1
 575.400390625 -161.299804688 l 5,0,-1
EndSplineSet
EndChar

StartChar: braceleft.mlym
Encoding: 123 123 37
Width: 600
VWidth: 1024
Flags: W
LayerCount: 2
Fore
SplineSet
35 379 m 1,0,1
 76 379 76 379 122.5 388 c 128,-1,2
 169 397 169 397 183.5 417.5 c 128,-1,3
 198 438 198 438 198 471 c 2,4,-1
 198 708 l 2,5,6
 198 759 198 759 220.5 790 c 128,-1,7
 243 821 243 821 379 836 c 128,-1,8
 515 851 515 851 565 852 c 5,9,-1
 565 778 l 5,10,11
 537 778 537 778 420 771.5 c 128,-1,12
 303 765 303 765 292 749 c 128,-1,13
 281 733 281 733 281 701 c 2,14,-1
 281 466 l 2,15,16
 281 415 281 415 253.5 384.5 c 128,-1,17
 226 354 226 354 172 343 c 1,18,-1
 172 338 l 1,19,20
 225 328 225 328 253 298 c 128,-1,21
 281 268 281 268 281 216 c 2,22,-1
 281 -18 l 2,23,24
 281 -50 281 -50 292 -66.5 c 128,-1,25
 303 -83 303 -83 420 -89 c 128,-1,26
 537 -95 537 -95 565 -96 c 5,27,-1
 565 -170 l 5,28,29
 515 -169 515 -169 379 -154 c 128,-1,30
 243 -139 243 -139 220.5 -108 c 128,-1,31
 198 -77 198 -77 198 -26 c 2,32,-1
 198 211 l 2,33,34
 198 245 198 245 183.5 265 c 128,-1,35
 169 285 169 285 122.5 294 c 128,-1,36
 76 303 76 303 35 303 c 1,37,-1
 35 379 l 1,0,1
EndSplineSet
EndChar

StartChar: bar.mlym
Encoding: 124 124 38
Width: 600
VWidth: 1024
Flags: W
LayerCount: 2
Fore
SplineSet
263.5 852 m 1,0,-1
 336.5 852 l 1,1,-1
 336.5 -170 l 1,2,-1
 263.5 -170 l 1,3,-1
 263.5 852 l 1,0,-1
EndSplineSet
EndChar

StartChar: asciitilde.mlym
Encoding: 126 126 40
Width: 600
VWidth: 1024
Flags: W
LayerCount: 2
Fore
SplineSet
29.73046875 343 m 5,0,1
 60.150390625 371 60.150390625 371 95.8349609375 384 c 132,-1,2
 131.51953125 397 131.51953125 397 174.810546875 397 c 4,3,4
 197.040039062 397 197.040039062 397 216.344726562 394.5 c 132,-1,5
 235.650390625 392 235.650390625 392 259.635742188 385.5 c 132,-1,6
 283.620117188 379 283.620117188 379 319.889648438 366 c 4,7,8
 364.349609375 350 364.349609375 350 388.334960938 344 c 132,-1,9
 412.3203125 338 412.3203125 338 436.889648438 338 c 4,10,11
 470.8203125 338 470.8203125 338 506.504882812 355.5 c 132,-1,12
 542.189453125 373 542.189453125 373 570.26953125 398 c 5,13,-1
 570.26953125 317 l 5,14,15
 541.01953125 290 541.01953125 290 504.75 276.5 c 132,-1,16
 468.48046875 263 468.48046875 263 425.189453125 263 c 4,17,18
 402.959960938 263 402.959960938 263 383.655273438 265.5 c 132,-1,19
 364.349609375 268 364.349609375 268 340.950195312 275 c 132,-1,20
 317.549804688 282 317.549804688 282 280.110351562 295 c 4,21,22
 236.819335938 311 236.819335938 311 213.419921875 317 c 132,-1,23
 190.01953125 323 190.01953125 323 163.110351562 323 c 4,24,25
 130.349609375 323 130.349609375 323 94.6650390625 305.5 c 132,-1,26
 58.98046875 288 58.98046875 288 29.73046875 262 c 5,27,-1
 29.73046875 343 l 5,0,1
EndSplineSet
EndChar

StartChar: A
Encoding: 65 65 41
Width: 600
Flags: W
LayerCount: 2
Fore
SplineSet
307.646484375 649.48046875 m 4,0,1
 348.426757812 649.48046875 348.426757812 649.48046875 375.189453125 639.080078125 c 132,-1,2
 401.952148438 628.6796875 401.952148438 628.6796875 412.147460938 614.120117188 c 4,3,4
 419.793945312 601.639648438 419.793945312 601.639648438 434.44921875 559 c 132,-1,5
 449.104492188 516.360351562 449.104492188 516.360351562 466.309570312 458.120117188 c 132,-1,6
 483.513671875 399.879882812 483.513671875 399.879882812 501.993164062 334.360351562 c 132,-1,7
 520.470703125 268.83984375 520.470703125 268.83984375 535.763671875 210.599609375 c 132,-1,8
 551.056640625 152.360351562 551.056640625 152.360351562 560.614257812 109.200195312 c 132,-1,9
 570.172851562 66.0400390625 570.172851562 66.0400390625 570.172851562 53.5595703125 c 4,10,11
 570.172851562 32.759765625 570.172851562 32.759765625 543.41015625 16.6396484375 c 132,-1,12
 516.647460938 0.51953125 516.647460938 0.51953125 486.0625 0.51953125 c 260,13,14
 455.4765625 0.51953125 455.4765625 0.51953125 444.006835938 15.080078125 c 4,15,16
 438.91015625 21.3203125 438.91015625 21.3203125 431.263671875 36.919921875 c 132,-1,17
 423.6171875 52.51953125 423.6171875 52.51953125 415.970703125 73.3203125 c 132,-1,18
 408.32421875 94.1201171875 408.32421875 94.1201171875 401.314453125 117 c 132,-1,19
 394.305664062 139.879882812 394.305664062 139.879882812 389.208007812 161.719726562 c 4,20,21
 384.110351562 182.51953125 384.110351562 182.51953125 374.552734375 187.200195312 c 132,-1,22
 364.994140625 191.879882812 364.994140625 191.879882812 352.25 191.879882812 c 4,23,24
 315.29296875 191.879882812 315.29296875 191.879882812 287.255859375 192.400390625 c 132,-1,25
 259.219726562 192.919921875 259.219726562 192.919921875 245.200195312 192.919921875 c 4,26,27
 219.712890625 192.919921875 219.712890625 192.919921875 207.606445312 188.240234375 c 132,-1,28
 195.499023438 183.559570312 195.499023438 183.559570312 191.67578125 172.120117188 c 6,29,-1
 158.541015625 68.1201171875 l 6,30,31
 148.346679688 37.9599609375 148.346679688 37.9599609375 126.043945312 19.759765625 c 132,-1,32
 103.743164062 1.5595703125 103.743164062 1.5595703125 75.7060546875 1.5595703125 c 4,33,34
 29.8271484375 1.5595703125 29.8271484375 1.5595703125 29.8271484375 53.5595703125 c 4,35,36
 29.8271484375 71.240234375 29.8271484375 71.240234375 34.9248046875 102.959960938 c 132,-1,37
 40.0224609375 134.6796875 40.0224609375 134.6796875 48.306640625 174.719726562 c 132,-1,38
 56.58984375 214.759765625 56.58984375 214.759765625 68.6962890625 260 c 132,-1,39
 80.8037109375 305.240234375 80.8037109375 305.240234375 94.18359375 351.51953125 c 132,-1,40
 107.56640625 397.799804688 107.56640625 397.799804688 121.583984375 441.48046875 c 132,-1,41
 135.602539062 485.16015625 135.602539062 485.16015625 149.620117188 520.51953125 c 4,42,43
 164.913085938 560.040039062 164.913085938 560.040039062 180.84375 585 c 132,-1,44
 196.7734375 609.959960938 196.7734375 609.959960938 214.615234375 624.51953125 c 132,-1,45
 232.45703125 639.080078125 232.45703125 639.080078125 254.758789062 644.280273438 c 132,-1,46
 277.060546875 649.48046875 277.060546875 649.48046875 307.646484375 649.48046875 c 4,0,1
229.907226562 587.080078125 m 4,47,48
 243.926757812 600.599609375 243.926757812 600.599609375 255.396484375 612.559570312 c 132,-1,49
 266.866210938 624.51953125 266.866210938 624.51953125 257.944335938 625.559570312 c 4,50,51
 237.553710938 628.6796875 237.553710938 628.6796875 217.1640625 605.799804688 c 4,52,53
 203.145507812 588.120117188 203.145507812 588.120117188 196.7734375 568.360351562 c 132,-1,54
 190.401367188 548.599609375 190.401367188 548.599609375 200.596679688 546.51953125 c 4,55,56
 203.145507812 546.51953125 203.145507812 546.51953125 205.694335938 550.16015625 c 132,-1,57
 208.243164062 553.799804688 208.243164062 553.799804688 210.791992188 560.040039062 c 132,-1,58
 213.340820312 566.280273438 213.340820312 566.280273438 217.80078125 573.559570312 c 132,-1,59
 222.260742188 580.83984375 222.260742188 580.83984375 229.907226562 587.080078125 c 4,47,48
250.298828125 395.719726562 m 4,60,61
 236.280273438 336.440429688 236.280273438 336.440429688 231.819335938 314.080078125 c 132,-1,62
 227.359375 291.719726562 227.359375 291.719726562 238.829101562 291.719726562 c 6,63,-1
 350.9765625 291.719726562 l 6,64,65
 361.170898438 291.719726562 361.170898438 291.719726562 356.073242188 312 c 132,-1,66
 350.9765625 332.280273438 350.9765625 332.280273438 340.780273438 374.919921875 c 4,67,68
 338.232421875 386.360351562 338.232421875 386.360351562 334.409179688 412.879882812 c 132,-1,69
 330.5859375 439.400390625 330.5859375 439.400390625 324.850585938 466.440429688 c 132,-1,70
 319.116210938 493.48046875 319.116210938 493.48046875 312.744140625 514.799804688 c 132,-1,71
 306.372070312 536.120117188 306.372070312 536.120117188 298.725585938 536.120117188 c 4,72,73
 292.353515625 536.120117188 292.353515625 536.120117188 284.70703125 517.400390625 c 132,-1,74
 277.060546875 498.6796875 277.060546875 498.6796875 270.05078125 474.240234375 c 132,-1,75
 263.04296875 449.799804688 263.04296875 449.799804688 257.944335938 426.919921875 c 132,-1,76
 252.846679688 404.040039062 252.846679688 404.040039062 250.298828125 395.719726562 c 4,60,61
70.607421875 69.16015625 m 4,77,78
 73.1572265625 81.6396484375 73.1572265625 81.6396484375 70.607421875 88.919921875 c 132,-1,79
 68.0595703125 96.2001953125 68.0595703125 96.2001953125 62.9609375 97.240234375 c 4,80,81
 60.4130859375 97.240234375 60.4130859375 97.240234375 57.2265625 94.6396484375 c 132,-1,82
 54.041015625 92.0400390625 54.041015625 92.0400390625 51.4921875 83.7197265625 c 4,83,84
 46.39453125 62.919921875 46.39453125 62.919921875 50.2177734375 43.6796875 c 132,-1,85
 54.041015625 24.4404296875 54.041015625 24.4404296875 64.236328125 22.3603515625 c 4,86,87
 76.98046875 20.2802734375 76.98046875 20.2802734375 69.333984375 37.9599609375 c 4,88,89
 66.7841796875 44.2001953125 66.7841796875 44.2001953125 67.4228515625 52 c 132,-1,90
 68.0595703125 59.7998046875 68.0595703125 59.7998046875 70.607421875 69.16015625 c 4,77,78
459.299804688 70.2001953125 m 4,91,92
 450.379882812 84.759765625 450.379882812 84.759765625 447.830078125 89.9599609375 c 132,-1,93
 445.28125 95.16015625 445.28125 95.16015625 442.733398438 95.16015625 c 4,94,95
 438.91015625 95.16015625 438.91015625 95.16015625 436.360351562 84.759765625 c 4,96,97
 436.360351562 80.599609375 436.360351562 80.599609375 439.546875 69.6796875 c 132,-1,98
 442.733398438 58.759765625 442.733398438 58.759765625 447.830078125 47.83984375 c 132,-1,99
 452.927734375 36.919921875 452.927734375 36.919921875 459.9375 28.599609375 c 132,-1,100
 466.946289062 20.2802734375 466.946289062 20.2802734375 473.319335938 20.2802734375 c 4,101,102
 477.140625 20.2802734375 477.140625 20.2802734375 477.140625 25.48046875 c 132,-1,103
 477.140625 30.6796875 477.140625 30.6796875 473.956054688 39 c 132,-1,104
 470.76953125 47.3203125 470.76953125 47.3203125 466.946289062 55.6396484375 c 132,-1,105
 463.123046875 63.9599609375 463.123046875 63.9599609375 459.299804688 70.2001953125 c 4,91,92
EndSplineSet
EndChar

StartChar: B
Encoding: 66 66 42
Width: 600
Flags: W
LayerCount: 2
Fore
SplineSet
89.9404296875 0.6201171875 m 6,0,1
 59.7001953125 0.6201171875 59.7001953125 0.6201171875 48.3603515625 23.5 c 132,-1,2
 37.01953125 46.3798828125 37.01953125 46.3798828125 37.01953125 107.740234375 c 6,3,-1
 37.01953125 552.860351562 l 6,4,5
 37.01953125 597.580078125 37.01953125 597.580078125 51.0595703125 619.419921875 c 132,-1,6
 65.099609375 641.259765625 65.099609375 641.259765625 101.8203125 641.259765625 c 4,7,8
 122.33984375 641.259765625 122.33984375 641.259765625 164.459960938 642.8203125 c 132,-1,9
 206.580078125 644.379882812 206.580078125 644.379882812 390.1796875 644.379882812 c 4,10,11
 425.8203125 644.379882812 425.8203125 644.379882812 454.98046875 631.900390625 c 132,-1,12
 484.139648438 619.419921875 484.139648438 619.419921875 505.200195312 597.580078125 c 132,-1,13
 526.259765625 575.740234375 526.259765625 575.740234375 538.139648438 545.580078125 c 132,-1,14
 550.01953125 515.419921875 550.01953125 515.419921875 550.01953125 480.059570312 c 4,15,16
 550.01953125 438.459960938 550.01953125 438.459960938 538.139648438 410.379882812 c 132,-1,17
 526.259765625 382.299804688 526.259765625 382.299804688 507.900390625 365.139648438 c 132,-1,18
 489.540039062 347.98046875 489.540039062 347.98046875 469.01953125 339.139648438 c 132,-1,19
 448.5 330.299804688 448.5 330.299804688 430.139648438 326.66015625 c 132,-1,20
 411.780273438 323.01953125 411.780273438 323.01953125 399.900390625 321.459960938 c 132,-1,21
 388.01953125 319.900390625 388.01953125 319.900390625 388.01953125 317.8203125 c 260,22,23
 388.01953125 315.740234375 388.01953125 315.740234375 400.98046875 315.740234375 c 132,-1,24
 413.940429688 315.740234375 413.940429688 315.740234375 433.379882812 314.1796875 c 132,-1,25
 452.8203125 312.620117188 452.8203125 312.620117188 475.5 305.860351562 c 132,-1,26
 498.1796875 299.099609375 498.1796875 299.099609375 517.620117188 283.5 c 132,-1,27
 537.059570312 267.900390625 537.059570312 267.900390625 550.01953125 240.33984375 c 132,-1,28
 562.98046875 212.780273438 562.98046875 212.780273438 562.98046875 169.099609375 c 4,29,30
 562.98046875 127.5 562.98046875 127.5 544.620117188 95.7802734375 c 132,-1,31
 526.259765625 64.0595703125 526.259765625 64.0595703125 496.559570312 43.259765625 c 132,-1,32
 466.860351562 22.4599609375 466.860351562 22.4599609375 430.6796875 11.5400390625 c 132,-1,33
 394.5 0.6201171875 394.5 0.6201171875 358.860351562 0.6201171875 c 6,34,-1
 89.9404296875 0.6201171875 l 6,0,1
75.900390625 557.01953125 m 4,35,36
 74.8203125 559.099609375 74.8203125 559.099609375 73.740234375 561.1796875 c 4,37,38
 70.5 566.379882812 70.5 566.379882812 70.5 574.700195312 c 4,39,40
 70.5 588.219726562 70.5 588.219726562 81.83984375 601.219726562 c 132,-1,41
 93.1796875 614.219726562 93.1796875 614.219726562 107.219726562 613.1796875 c 4,42,43
 113.700195312 613.1796875 113.700195312 613.1796875 116.940429688 616.8203125 c 132,-1,44
 120.1796875 620.459960938 120.1796875 620.459960938 120.1796875 622.540039062 c 4,45,46
 120.1796875 625.66015625 120.1796875 625.66015625 115.3203125 627.740234375 c 132,-1,47
 110.459960938 629.8203125 110.459960938 629.8203125 105.059570312 629.8203125 c 4,48,49
 83.4599609375 629.8203125 83.4599609375 629.8203125 67.7998046875 611.620117188 c 132,-1,50
 52.1396484375 593.419921875 52.1396484375 593.419921875 52.1396484375 567.419921875 c 4,51,52
 52.1396484375 555.98046875 52.1396484375 555.98046875 55.3798828125 548.1796875 c 132,-1,53
 58.6201171875 540.379882812 58.6201171875 540.379882812 64.01953125 540.379882812 c 4,54,55
 67.259765625 540.379882812 67.259765625 540.379882812 71.580078125 545.059570312 c 4,56,57
 78.0595703125 552.860351562 78.0595703125 552.860351562 75.900390625 557.01953125 c 4,35,36
341.580078125 370.860351562 m 6,58,59
 378.299804688 370.860351562 378.299804688 370.860351562 402.599609375 400.5 c 132,-1,60
 426.900390625 430.139648438 426.900390625 430.139648438 426.900390625 474.860351562 c 4,61,62
 426.900390625 506.059570312 426.900390625 506.059570312 411.780273438 526.860351562 c 132,-1,63
 396.66015625 547.66015625 396.66015625 547.66015625 362.099609375 547.66015625 c 6,64,-1
 176.33984375 547.66015625 l 6,65,66
 157.98046875 547.66015625 157.98046875 547.66015625 155.8203125 535.1796875 c 132,-1,67
 153.66015625 522.700195312 153.66015625 522.700195312 153.66015625 512.299804688 c 6,68,-1
 153.66015625 404.139648438 l 6,69,70
 153.66015625 389.580078125 153.66015625 389.580078125 159.599609375 380.219726562 c 132,-1,71
 165.540039062 370.860351562 165.540039062 370.860351562 174.1796875 370.860351562 c 6,72,-1
 341.580078125 370.860351562 l 6,58,59
349.139648438 95.259765625 m 6,73,74
 388.01953125 95.259765625 388.01953125 95.259765625 413.940429688 114.5 c 132,-1,75
 439.860351562 133.740234375 439.860351562 133.740234375 439.860351562 180.540039062 c 4,76,77
 439.860351562 226.299804688 439.860351562 226.299804688 411.240234375 242.940429688 c 132,-1,78
 382.620117188 259.580078125 382.620117188 259.580078125 336.1796875 259.580078125 c 6,79,-1
 174.1796875 259.580078125 l 6,80,81
 153.66015625 259.580078125 153.66015625 259.580078125 153.66015625 217.98046875 c 6,82,-1
 153.66015625 132.700195312 l 6,83,84
 153.66015625 107.740234375 153.66015625 107.740234375 158.51953125 101.5 c 132,-1,85
 163.379882812 95.259765625 163.379882812 95.259765625 183.900390625 95.259765625 c 6,86,-1
 349.139648438 95.259765625 l 6,73,74
65.099609375 76.5400390625 m 4,87,88
 67.259765625 76.5400390625 67.259765625 76.5400390625 68.8798828125 86.9404296875 c 132,-1,89
 70.5 97.33984375 70.5 97.33984375 71.0400390625 110.860351562 c 132,-1,90
 71.580078125 124.379882812 71.580078125 124.379882812 71.580078125 137.379882812 c 132,-1,91
 71.580078125 150.379882812 71.580078125 150.379882812 71.580078125 154.540039062 c 4,92,93
 71.580078125 184.700195312 71.580078125 184.700195312 68.8798828125 191.459960938 c 132,-1,94
 66.1796875 198.219726562 66.1796875 198.219726562 62.9404296875 198.219726562 c 4,95,96
 60.7802734375 198.219726562 60.7802734375 198.219726562 58.080078125 191.459960938 c 132,-1,97
 55.3798828125 184.700195312 55.3798828125 184.700195312 55.3798828125 154.540039062 c 4,98,99
 55.3798828125 109.8203125 55.3798828125 109.8203125 57 93.1796875 c 132,-1,100
 58.6201171875 76.5400390625 58.6201171875 76.5400390625 65.099609375 76.5400390625 c 4,87,88
65.099609375 61.98046875 m 4,101,102
 56.4599609375 61.98046875 56.4599609375 61.98046875 56.4599609375 50.5400390625 c 4,103,104
 56.4599609375 42.2197265625 56.4599609375 42.2197265625 59.7001953125 39.6201171875 c 132,-1,105
 62.9404296875 37.01953125 62.9404296875 37.01953125 66.1796875 37.01953125 c 4,106,107
 72.66015625 37.01953125 72.66015625 37.01953125 72.66015625 50.5400390625 c 4,108,109
 72.66015625 57.8203125 72.66015625 57.8203125 71.580078125 59.900390625 c 132,-1,110
 70.5 61.98046875 70.5 61.98046875 65.099609375 61.98046875 c 4,101,102
EndSplineSet
EndChar

StartChar: C
Encoding: 67 67 43
Width: 600
Flags: W
LayerCount: 2
Fore
SplineSet
292 667.599609375 m 0,0,1
 263 668 263 668 245.029296875 683.849609375 c 0,2,3
 227 700 227 700 227.3203125 727.399414062 c 0,4,5
 227 752 227 752 242.719726562 773.549804688 c 0,6,7
 258 795 258 795 292 795 c 0,8,9
 327 795 327 795 345.900390625 774.849609375 c 0,10,11
 364 755 364 755 364.379882812 727.399414062 c 0,12,13
 364 698 364 698 343.590820312 682.549804688 c 0,14,15
 323 668 323 668 292 667.599609375 c 0,0,1
264.279296875 735.200195312 m 0,16,17
 266 750 266 750 271.979492188 761.200195312 c 0,18,19
 278 773 278 773 270.440429688 772.899414062 c 0,20,21
 260 773 260 773 252.729492188 754.049804688 c 0,22,23
 246 735 246 735 245.799804688 720.899414062 c 0,24,25
 246 708 246 708 253.5 707.899414062 c 0,26,27
 260 708 260 708 261.200195312 717.649414062 c 0,28,29
 263 727 263 727 264.279296875 735.200195312 c 0,16,17
EndSplineSet
Refer: 69 99 N 1 0 0 1 0 0 2
EndChar

StartChar: D
Encoding: 68 68 44
Width: 600
Flags: W
LayerCount: 2
Fore
SplineSet
135.982421875 2.4599609375 m 6,0,1
 119.725585938 1.287109375 119.725585938 1.287109375 96.134765625 6.7001953125 c 4,2,3
 77.654296875 10.9404296875 77.654296875 10.9404296875 62.6396484375 21.5400390625 c 4,4,5
 43.0048828125 35.3203125 43.0048828125 35.3203125 39.5390625 50.16015625 c 4,6,7
 31.455078125 95.740234375 31.455078125 95.740234375 30.876953125 95.740234375 c 6,8,-1
 30.876953125 549.419921875 l 6,9,10
 31.455078125 575.919921875 31.455078125 575.919921875 41.849609375 598.709960938 c 4,11,12
 52.2451171875 619.379882812 52.2451171875 619.379882812 70.724609375 632.629882812 c 132,-1,13
 89.205078125 645.879882812 89.205078125 645.879882812 112.8828125 651.709960938 c 4,14,15
 141.200195312 658.333984375 141.200195312 658.333984375 163.702148438 657.540039062 c 6,16,-1
 313.8515625 652.240234375 l 6,17,18
 368.713867188 650.120117188 368.713867188 650.120117188 409.716796875 631.5703125 c 4,19,20
 456.495117188 610.900390625 456.495117188 610.900390625 491.145507812 573.799804688 c 132,-1,21
 525.794921875 536.700195312 525.794921875 536.700195312 547.739257812 478.9296875 c 132,-1,22
 569.684570312 421.16015625 569.684570312 421.16015625 569.107421875 348.01953125 c 4,23,24
 569.684570312 274.879882812 569.684570312 274.879882812 547.162109375 206.509765625 c 132,-1,25
 524.639648438 138.139648438 524.639648438 138.139648438 488.2578125 97.330078125 c 4,26,27
 458.8046875 65 458.8046875 65 401.6328125 39.0302734375 c 4,28,29
 355.919921875 18.3193359375 355.919921875 18.3193359375 297.682617188 14.1201171875 c 6,30,-1
 135.982421875 2.4599609375 l 6,0,1
244.551757812 104.219726562 m 6,31,32
 322.514648438 104.219726562 322.514648438 104.219726562 348.501953125 121.709960938 c 4,33,34
 375.645507812 139.200195312 375.645507812 139.200195312 394.125 171.530273438 c 132,-1,35
 412.604492188 203.860351562 412.604492188 203.860351562 424.154296875 249.440429688 c 132,-1,36
 435.705078125 295.01953125 435.705078125 295.01953125 435.126953125 351.200195312 c 4,37,38
 435.705078125 446.599609375 435.705078125 446.599609375 400.4765625 497.48046875 c 4,39,40
 360.629882812 553.66015625 360.629882812 553.66015625 310.387695312 553.66015625 c 6,41,-1
 293.0625 553.66015625 l 6,42,43
 171.208984375 553.66015625 171.208984375 553.66015625 169.4765625 545.709960938 c 4,44,45
 163.125 512.3203125 163.125 512.3203125 162.546875 511.259765625 c 6,46,-1
 162.546875 142.379882812 l 6,47,48
 163.283203125 120.794921875 163.283203125 120.794921875 166.588867188 112.700195312 c 4,49,50
 170.0546875 104.219726562 170.0546875 104.219726562 229.537109375 104.219726562 c 6,51,-1
 244.551757812 104.219726562 l 6,31,32
66.6826171875 90.4404296875 m 4,52,53
 71.8798828125 90.4404296875 71.8798828125 90.4404296875 73.0341796875 101.5703125 c 132,-1,54
 74.189453125 112.700195312 74.189453125 112.700195312 74.767578125 127.009765625 c 4,55,56
 74.189453125 141.3203125 74.189453125 141.3203125 74.189453125 154.5703125 c 132,-1,57
 74.189453125 167.8203125 74.189453125 167.8203125 73.6123046875 173.120117188 c 4,58,59
 74.189453125 231.419921875 74.189453125 231.419921875 66.6826171875 231.419921875 c 4,60,61
 62.6396484375 231.419921875 62.6396484375 231.419921875 59.751953125 218.169921875 c 4,62,63
 55.708984375 204.919921875 55.708984375 204.919921875 56.287109375 173.120117188 c 4,64,65
 55.708984375 125.419921875 55.708984375 125.419921875 56.8642578125 107.9296875 c 132,-1,66
 58.0205078125 90.4404296875 58.0205078125 90.4404296875 66.6826171875 90.4404296875 c 4,52,53
65.5263671875 75.599609375 m 4,67,68
 58.0205078125 75.599609375 58.0205078125 75.599609375 57.4423828125 63.9404296875 c 4,69,70
 58.0205078125 44.8603515625 58.0205078125 44.8603515625 66.6826171875 44.8603515625 c 4,71,72
 69.5703125 44.8603515625 69.5703125 44.8603515625 72.4580078125 51.2197265625 c 4,73,74
 74.189453125 57.580078125 74.189453125 57.580078125 74.767578125 63.9404296875 c 4,75,76
 74.189453125 75.599609375 74.189453125 75.599609375 65.5263671875 75.599609375 c 4,67,68
EndSplineSet
EndChar

StartChar: E
Encoding: 69 69 45
Width: 600
Flags: W
LayerCount: 2
Fore
SplineSet
394.049804688 20 m 6,0,1
 210.900390625 20 210.900390625 20 113.549804688 94 c 4,2,3
 17.2998046875 168 17.2998046875 168 16.75 311 c 260,4,5
 17.2998046875 454 17.2998046875 454 112.450195312 528 c 132,-1,6
 207.599609375 602 207.599609375 602 394.049804688 602 c 6,7,-1
 583.25 602 l 5,8,-1
 583.25 531 l 5,9,-1
 380.849609375 531 l 6,10,11
 122.900390625 531 122.900390625 531 98.150390625 347 c 5,12,-1
 583.25 347 l 5,13,-1
 583.25 276 l 5,14,-1
 98.150390625 276 l 5,15,16
 109.700195312 185 109.700195312 185 181.75 138 c 4,17,18
 254.900390625 91 254.900390625 91 380.849609375 91 c 6,19,-1
 583.25 91 l 5,20,-1
 583.25 20 l 5,21,-1
 394.049804688 20 l 6,0,1
EndSplineSet
EndChar

StartChar: F
Encoding: 70 70 46
Width: 600
Flags: W
LayerCount: 2
Fore
SplineSet
123 0 m 0,0,1
 96 0 96 0 78.5 9.5 c 128,-1,2
 61 19 61 19 61 49 c 2,3,-1
 61 543 l 2,4,5
 61 582 61 582 89.5 599.5 c 0,6,7
 118.209960938 617.12890625 118.209960938 617.12890625 163 617 c 2,8,-1
 510 616 l 2,9,10
 521 616 521 616 530 604.5 c 128,-1,11
 539 593 539 593 539 579 c 0,12,13
 539 572 539 572 537.5 561.5 c 128,-1,14
 536 551 536 551 533 541.5 c 128,-1,15
 530 532 530 532 525.5 525.5 c 128,-1,16
 520.986328125 518.98046875 520.986328125 518.98046875 515 519 c 2,17,-1
 201 520 l 2,18,19
 175 520 175 520 175 494 c 2,20,-1
 175 345 l 2,21,22
 175 335 175 335 181.5 330.5 c 128,-1,23
 188.150390625 325.895507812 188.150390625 325.895507812 198 326 c 2,24,-1
 481 329 l 2,25,26
 489 329 489 329 495 324 c 128,-1,27
 501 319 501 319 506 310.5 c 128,-1,28
 511 302 511 302 513.5 293 c 128,-1,29
 516 284 516 284 516 276 c 0,30,31
 516 236.40234375 516 236.40234375 478 236 c 2,32,-1
 195 233 l 2,33,34
 187 233 187 233 181 227 c 128,-1,35
 175 221 175 221 175 213 c 2,36,-1
 175 48 l 2,37,38
 175 32 175 32 170.5 22.5 c 128,-1,39
 166 13 166 13 158.5 8 c 128,-1,40
 151 3 151 3 141.5 1.5 c 128,-1,41
 132 0 132 0 123 0 c 0,0,1
111 26 m 0,42,43
 110 31 110 31 101.5 42 c 128,-1,44
 93 53 93 53 91 78 c 0,45,46
 89 91 89 91 85.5 94 c 128,-1,47
 82 97 82 97 80 97 c 256,48,49
 78 97 78 97 76.5 91 c 128,-1,50
 75 85 75 85 77 75 c 0,51,52
 77 70 77 70 79 60.5 c 128,-1,53
 81 51 81 51 84.5 41.5 c 128,-1,54
 88 32 88 32 93 25 c 128,-1,55
 98 18 98 18 105 19 c 0,56,57
 111 19 111 19 111 26 c 0,42,43
EndSplineSet
EndChar

StartChar: G
Encoding: 71 71 47
Width: 600
Flags: W
LayerCount: 2
Fore
SplineSet
493.822265625 665.599609375 m 4,0,1
 461.903320312 665.599609375 461.903320312 665.599609375 442.58203125 681.849609375 c 132,-1,2
 423.262695312 698.099609375 423.262695312 698.099609375 423.262695312 725.399414062 c 4,3,4
 423.262695312 750.099609375 423.262695312 750.099609375 440.0625 771.549804688 c 132,-1,5
 456.86328125 793 456.86328125 793 493.822265625 793 c 4,6,7
 532.462890625 793 532.462890625 793 552.623046875 772.849609375 c 132,-1,8
 572.782226562 752.700195312 572.782226562 752.700195312 572.782226562 725.399414062 c 4,9,10
 572.782226562 695.5 572.782226562 695.5 550.103515625 680.549804688 c 132,-1,11
 527.422851562 665.599609375 527.422851562 665.599609375 493.822265625 665.599609375 c 4,0,1
463.58203125 733.200195312 m 4,12,13
 465.262695312 747.5 465.262695312 747.5 471.982421875 759.200195312 c 132,-1,14
 478.703125 770.899414062 478.703125 770.899414062 470.302734375 770.899414062 c 4,15,16
 458.54296875 770.899414062 458.54296875 770.899414062 450.982421875 752.049804688 c 132,-1,17
 443.422851562 733.200195312 443.422851562 733.200195312 443.422851562 718.899414062 c 4,18,19
 443.422851562 705.899414062 443.422851562 705.899414062 451.822265625 705.899414062 c 4,20,21
 458.54296875 705.899414062 458.54296875 705.899414062 460.22265625 715.649414062 c 132,-1,22
 461.903320312 725.399414062 461.903320312 725.399414062 463.58203125 733.200195312 c 4,12,13
326.166015625 -5 m 0,23,24
 222.022460938 -5 222.022460938 -5 168.965820312 28 c 0,25,26
 116.422851562 61 116.422851562 61 84.9658203125 111 c 0,27,28
 65.87109375 142.1953125 65.87109375 142.1953125 40.56640625 219 c 0,29,30
 30.0224609375 251 30.0224609375 251 27.3662109375 328 c 0,31,32
 25.662109375 361.112304688 25.662109375 361.112304688 43.56640625 437.5 c 0,33,34
 55.22265625 487 55.22265625 487 89.765625 532.5 c 0,35,36
 121.22265625 574 121.22265625 574 174.366210938 599.5 c 0,37,38
 226.822265625 625 226.822265625 625 327.366210938 625 c 0,39,40
 364.822265625 625 364.822265625 625 398.765625 616.5 c 0,41,42
 432.022460938 608 432.022460938 608 459.366210938 589.5 c 0,43,44
 487.22265625 569 487.22265625 569 501.366210938 540.5 c 0,45,46
 518.422851562 506 518.422851562 506 516.965820312 466 c 0,47,48
 516.022460938 450 516.022460938 450 509.166015625 440.5 c 0,49,50
 501.623046875 431 501.623046875 431 489.965820312 425.5 c 0,51,52
 477.623046875 420 477.623046875 420 466.56640625 418.5 c 0,53,54
 453.623046875 417 453.623046875 417 447.366210938 417 c 0,55,56
 429.623046875 417 429.623046875 417 415.56640625 427 c 0,57,58
 400.822265625 437 400.822265625 437 400.56640625 466 c 0,59,60
 400.822265625 511 400.822265625 511 375.965820312 529 c 0,61,62
 350.422851562 547 350.422851562 547 309.366210938 547 c 0,63,64
 267.623046875 547 267.623046875 547 246.366210938 530.5 c 0,65,66
 224.422851562 514 224.422851562 514 207.366210938 483.5 c 0,67,68
 188.422851562 449 188.422851562 449 180.965820312 410 c 0,69,70
 170.422851562 360 170.422851562 360 171.366210938 314 c 0,71,72
 171.623046875 285 171.623046875 285 175.56640625 245 c 0,73,74
 178.822265625 210 178.822265625 210 194.166015625 169 c 0,75,76
 207.623046875 133 207.623046875 133 234.965820312 107.5 c 0,77,78
 260.422851562 82 260.422851562 82 328.56640625 82 c 0,79,80
 362.422851562 82 362.422851562 82 383.166015625 96.5 c 0,81,82
 403.22265625 111 403.22265625 111 411.965820312 132 c 0,83,84
 420.022460938 153 420.022460938 153 422.765625 175.5 c 0,85,86
 424.822265625 198 424.822265625 198 423.366210938 214 c 256,87,88
 422.422851562 230 422.422851562 230 407.166015625 231.5 c 0,89,90
 392.422851562 233 392.422851562 233 364.56640625 233 c 2,91,-1
 303.366210938 233 l 2,92,93
 295.22265625 233 295.22265625 233 290.166015625 239 c 0,94,95
 283.22265625 245 283.22265625 245 268.56640625 253.5 c 0,96,97
 253.22265625 262 253.22265625 262 250.56640625 271 c 0,98,99
 247.22265625 284 247.22265625 284 248.166015625 286 c 0,100,101
 266.422851562 300 266.422851562 300 284.166015625 314.5 c 0,102,103
 297.84765625 327.208984375 297.84765625 327.208984375 324.965820312 327 c 2,104,-1
 454.56640625 326 l 2,105,106
 493.22265625 326 493.22265625 326 521.765625 306 c 0,107,108
 552.022460938 286 552.022460938 286 551.765625 249 c 0,109,110
 552.022460938 206 552.022460938 206 540.366210938 161 c 0,111,112
 526.822265625 112 526.822265625 112 502.56640625 79 c 0,113,114
 475.22265625 42 475.22265625 42 432.965820312 18.5 c 0,115,116
 388.822265625 -5 388.822265625 -5 326.166015625 -5 c 0,23,24
188.166015625 58 m 128,-1,118
 188.765625 64 188.765625 64 164.166015625 84 c 0,119,120
 152.765625 93 152.765625 93 142.56640625 106.5 c 0,121,122
 131.166015625 120 131.166015625 120 122.765625 133 c 128,-1,123
 114.366210938 146 114.366210938 146 108.366210938 157.5 c 128,-1,124
 102.366210938 169 102.366210938 169 102.965820312 173 c 0,125,126
 102.366210938 178 102.366210938 178 99.3662109375 179.5 c 0,127,128
 95.166015625 181 95.166015625 181 94.56640625 181 c 0,129,130
 85.56640625 181 85.56640625 181 84.9658203125 170 c 256,131,132
 85.56640625 159 85.56640625 159 95.765625 139 c 0,133,134
 107.166015625 119 107.166015625 119 121.56640625 99.5 c 128,-1,135
 135.965820312 80 135.965820312 80 152.765625 66 c 128,-1,136
 169.56640625 52 169.56640625 52 180.965820312 52 c 0,137,117
 187.56640625 52 187.56640625 52 188.166015625 58 c 128,-1,118
215.765625 45 m 0,138,139
 215.166015625 52 215.166015625 52 207.366210938 52 c 0,140,141
 203.166015625 52 203.166015625 52 200.765625 49 c 128,-1,142
 198.366210938 46 198.366210938 46 198.965820312 44 c 0,143,144
 198.366210938 39 198.366210938 39 201.965820312 38 c 128,-1,145
 205.56640625 37 205.56640625 37 207.366210938 37 c 0,146,147
 216.366210938 37 216.366210938 37 215.765625 45 c 0,138,139
EndSplineSet
EndChar

StartChar: H
Encoding: 72 72 48
Width: 600
Flags: W
LayerCount: 2
Fore
SplineSet
156.995117188 20.5400390625 m 1028,0,-1
498.32421875 2.51953125 m 4,1,2
 478.31640625 2.51953125 478.31640625 2.51953125 466.545898438 12.58984375 c 132,-1,3
 454.775390625 22.66015625 454.775390625 22.66015625 448.890625 36.9697265625 c 132,-1,4
 443.005859375 51.2802734375 443.005859375 51.2802734375 441.240234375 68.76953125 c 132,-1,5
 439.474609375 86.259765625 439.474609375 86.259765625 439.474609375 100.040039062 c 6,6,-1
 439.474609375 253.740234375 l 6,7,8
 439.474609375 267.51953125 439.474609375 267.51953125 436.532226562 274.41015625 c 132,-1,9
 433.58984375 281.299804688 433.58984375 281.299804688 424.172851562 281.299804688 c 6,10,-1
 181.7109375 281.299804688 l 6,11,12
 169.94140625 281.299804688 169.94140625 281.299804688 165.234375 278.120117188 c 132,-1,13
 160.525390625 274.940429688 160.525390625 274.940429688 160.525390625 264.33984375 c 6,14,-1
 160.525390625 113.8203125 l 6,15,16
 160.525390625 98.98046875 160.525390625 98.98046875 158.171875 79.3701171875 c 132,-1,17
 155.817382812 59.759765625 155.817382812 59.759765625 148.755859375 42.7998046875 c 132,-1,18
 141.693359375 25.83984375 141.693359375 25.83984375 129.922851562 14.1796875 c 132,-1,19
 118.153320312 2.51953125 118.153320312 2.51953125 99.322265625 2.51953125 c 4,20,21
 78.134765625 2.51953125 78.134765625 2.51953125 64.01171875 11.5302734375 c 132,-1,22
 49.8876953125 20.5400390625 49.8876953125 20.5400390625 42.2373046875 35.3798828125 c 132,-1,23
 34.5859375 50.2197265625 34.5859375 50.2197265625 31.64453125 70.3603515625 c 132,-1,24
 28.7021484375 90.5 28.7021484375 90.5 28.7021484375 113.8203125 c 6,25,-1
 28.7021484375 581.280273438 l 6,26,27
 28.7021484375 587.639648438 28.7021484375 587.639648438 31.64453125 599.830078125 c 132,-1,28
 34.5859375 612.01953125 34.5859375 612.01953125 41.6484375 624.740234375 c 132,-1,29
 48.7099609375 637.459960938 48.7099609375 637.459960938 61.658203125 646.469726562 c 132,-1,30
 74.6044921875 655.48046875 74.6044921875 655.48046875 95.791015625 655.48046875 c 4,31,32
 113.4453125 655.48046875 113.4453125 655.48046875 125.803710938 648.059570312 c 132,-1,33
 138.162109375 640.639648438 138.162109375 640.639648438 145.813476562 628.98046875 c 132,-1,34
 153.463867188 617.3203125 153.463867188 617.3203125 156.995117188 604.0703125 c 132,-1,35
 160.525390625 590.8203125 160.525390625 590.8203125 160.525390625 579.16015625 c 6,36,-1
 160.525390625 393.66015625 l 6,37,38
 160.525390625 385.1796875 160.525390625 385.1796875 163.467773438 378.8203125 c 132,-1,39
 166.391601562 372.5 166.391601562 372.5 175.827148438 372.459960938 c 6,40,-1
 426.528320312 371.400390625 l 6,41,42
 432.412109375 371.400390625 432.412109375 371.400390625 435.943359375 374.049804688 c 132,-1,43
 439.474609375 376.700195312 439.474609375 376.700195312 439.474609375 391.540039062 c 6,44,-1
 439.474609375 574.919921875 l 6,45,46
 439.474609375 615.200195312 439.474609375 615.200195312 453.598632812 635.33984375 c 132,-1,47
 467.721679688 655.48046875 467.721679688 655.48046875 492.439453125 655.48046875 c 4,48,49
 505.38671875 655.48046875 505.38671875 655.48046875 518.921875 651.240234375 c 132,-1,50
 532.458007812 647 532.458007812 647 544.227539062 636.9296875 c 132,-1,51
 555.997070312 626.860351562 555.997070312 626.860351562 563.647460938 610.959960938 c 132,-1,52
 571.297851562 595.059570312 571.297851562 595.059570312 571.297851562 571.740234375 c 6,53,-1
 571.297851562 98.98046875 l 6,54,55
 571.297851562 84.1396484375 571.297851562 84.1396484375 567.178710938 67.1796875 c 132,-1,56
 563.05859375 50.2197265625 563.05859375 50.2197265625 554.232421875 35.91015625 c 132,-1,57
 545.404296875 21.599609375 545.404296875 21.599609375 531.280273438 12.0595703125 c 132,-1,58
 517.15625 2.51953125 517.15625 2.51953125 498.32421875 2.51953125 c 4,1,2
48.7099609375 590.8203125 m 4,59,60
 52.2412109375 590.8203125 52.2412109375 590.8203125 57.5380859375 595.58984375 c 132,-1,61
 62.833984375 600.360351562 62.833984375 600.360351562 68.130859375 607.25 c 132,-1,62
 73.427734375 614.139648438 73.427734375 614.139648438 78.134765625 621.030273438 c 132,-1,63
 82.84375 627.919921875 82.84375 627.919921875 84.0205078125 631.099609375 c 260,64,65
 85.197265625 634.280273438 85.197265625 634.280273438 84.609375 639.049804688 c 132,-1,66
 84.0205078125 643.8203125 84.0205078125 643.8203125 80.490234375 642.759765625 c 4,67,68
 72.2509765625 641.700195312 72.2509765625 641.700195312 66.3662109375 635.870117188 c 132,-1,69
 60.48046875 630.040039062 60.48046875 630.040039062 55.7724609375 622.620117188 c 132,-1,70
 51.064453125 615.200195312 51.064453125 615.200195312 48.7099609375 608.83984375 c 132,-1,71
 46.3564453125 602.48046875 46.3564453125 602.48046875 46.3564453125 599.299804688 c 4,72,73
 46.3564453125 597.1796875 46.3564453125 597.1796875 46.3564453125 594.530273438 c 132,-1,74
 46.3564453125 591.879882812 46.3564453125 591.879882812 48.7099609375 590.8203125 c 4,59,60
483.0234375 612.01953125 m 4,75,76
 484.200195312 620.5 484.200195312 620.5 490.673828125 628.98046875 c 132,-1,77
 497.147460938 637.459960938 497.147460938 637.459960938 490.084960938 638.51953125 c 4,78,79
 480.669921875 639.580078125 480.669921875 639.580078125 470.665039062 629.509765625 c 4,80,81
 459.484375 618.379882812 459.484375 618.379882812 458.306640625 604.599609375 c 4,82,83
 457.12890625 588.700195312 457.12890625 588.700195312 464.19140625 587.639648438 c 4,84,85
 473.607421875 586.580078125 473.607421875 586.580078125 477.727539062 597.1796875 c 132,-1,86
 481.846679688 607.780273438 481.846679688 607.780273438 483.0234375 612.01953125 c 4,75,76
78.134765625 34.3203125 m 4,87,88
 78.134765625 39.6201171875 78.134765625 39.6201171875 73.427734375 43.8603515625 c 4,89,90
 67.5419921875 49.16015625 67.5419921875 49.16015625 65.1884765625 65.58984375 c 132,-1,91
 62.833984375 82.01953125 62.833984375 82.01953125 62.833984375 93.6796875 c 4,92,93
 62.833984375 111.700195312 62.833984375 111.700195312 54.595703125 111.700195312 c 4,94,95
 49.8876953125 111.700195312 49.8876953125 111.700195312 48.7099609375 104.280273438 c 132,-1,96
 47.5341796875 96.8603515625 47.5341796875 96.8603515625 47.5341796875 93.6796875 c 4,97,98
 47.5341796875 89.4404296875 47.5341796875 89.4404296875 48.7099609375 78.83984375 c 132,-1,99
 49.8876953125 68.240234375 49.8876953125 68.240234375 52.2412109375 57.6396484375 c 132,-1,100
 54.595703125 47.0400390625 54.595703125 47.0400390625 59.302734375 39.08984375 c 132,-1,101
 64.01171875 31.1396484375 64.01171875 31.1396484375 71.0732421875 31.1396484375 c 260,102,103
 78.134765625 31.1396484375 78.134765625 31.1396484375 78.134765625 34.3203125 c 4,87,88
484.200195312 30.080078125 m 4,104,105
 477.138671875 36.4404296875 477.138671875 36.4404296875 471.841796875 55.51953125 c 132,-1,106
 466.545898438 74.599609375 466.545898438 74.599609375 466.545898438 84.1396484375 c 4,107,108
 466.545898438 88.3798828125 466.545898438 88.3798828125 464.19140625 88.3798828125 c 4,109,110
 460.66015625 88.3798828125 460.66015625 88.3798828125 458.306640625 80.4296875 c 132,-1,111
 455.953125 72.48046875 455.953125 72.48046875 455.953125 64 c 4,112,113
 455.953125 51.2802734375 455.953125 51.2802734375 461.837890625 35.91015625 c 132,-1,114
 467.721679688 20.5400390625 467.721679688 20.5400390625 484.200195312 20.5400390625 c 4,115,116
 487.731445312 20.5400390625 487.731445312 20.5400390625 487.142578125 24.25 c 132,-1,117
 486.5546875 27.9599609375 486.5546875 27.9599609375 484.200195312 30.080078125 c 4,104,105
EndSplineSet
EndChar

StartChar: I
Encoding: 73 73 49
Width: 600
Flags: W
LayerCount: 2
Fore
SplineSet
59.099609375 448 m 5,0,-1
 260.400390625 790 l 5,1,-1
 315.400390625 790 l 5,2,-1
 531 448 l 5,3,-1
 445.200195312 448 l 5,4,-1
 289 697 l 5,5,-1
 144.900390625 448 l 5,6,-1
 59.099609375 448 l 5,0,-1
47 0 m 5,7,-1
 47 60 l 5,8,-1
 257.099609375 75 l 5,9,-1
 257.099609375 526 l 5,10,-1
 356.099609375 526 l 5,11,-1
 356.099609375 75 l 5,12,-1
 553 60 l 5,13,-1
 553 0 l 5,14,-1
 47 0 l 5,7,-1
EndSplineSet
EndChar

StartChar: J
Encoding: 74 74 50
Width: 600
Flags: W
LayerCount: 2
Fore
SplineSet
248.299804688 4 m 0,0,1
 292 2 292 2 319.25 22.5 c 0,2,3
 348.331726433 44.9410172472 348.331726433 44.9410172472 352.799804688 67.5 c 0,4,5
 364 119 364 119 364.900390625 130 c 0,6,7
 366.549804688 135.84118128 366.549804688 135.84118128 366.549804688 206 c 2,8,-1
 366.549804688 541 l 1,9,-1
 542.549804688 541 l 2,10,11
 567 541 567 541 575.549804688 552 c 128,-1,12
 584 563 584 563 584.349609375 580 c 256,13,14
 584 597 584 597 577.200195312 607 c 0,15,16
 570 617 570 617 542.549804688 617 c 2,17,-1
 51.9501953125 617 l 2,18,19
 32 617 32 617 23.900390625 608.5 c 128,-1,20
 16 600 16 600 15.650390625 586 c 0,21,22
 16 566 16 566 22.7998046875 553.5 c 0,23,24
 30 541 30 541 47.5498046875 541 c 2,25,-1
 253.25 541 l 1,26,-1
 253.25 156 l 2,27,28
 253 127 253 127 250.5 96 c 0,29,30
 248 73 248 73 235.650390625 73 c 2,31,-1
 226.849609375 73 l 1,32,-1
 147.549804688 71 l 0,33,34
 138 56 138 56 138.75 4 c 0,35,-1
 248.299804688 4 l 0,0,1
562.349609375 587 m 0,36,37
 562.349609375 592 562.349609375 592 560.700195312 598.5 c 128,-1,38
 559.049804688 605 559.049804688 605 561.25 605 c 0,39,40
 566.75 605 566.75 605 570.599609375 597.5 c 128,-1,41
 574.450195312 590 574.450195312 590 574.450195312 579 c 0,42,43
 574.450195312 572 574.450195312 572 571.700195312 564.5 c 128,-1,44
 568.950195312 557 568.950195312 557 563.450195312 557 c 256,45,46
 557.950195312 557 557.950195312 557 560.150390625 567.5 c 128,-1,47
 562.349609375 578 562.349609375 578 562.349609375 587 c 0,36,37
313.258789062 33.8388671875 m 0,48,-1
 284.049804688 42 l 0,49,50
 276.349609375 45 276.349609375 45 264.448242188 52.5595703125 c 0,51,52
 256.549804688 58 256.549804688 58 252.502929688 63.1533203125 c 0,53,54
 248.849609375 69 248.849609375 69 250.872070312 71.267578125 c 0,55,56
 253.25 77 253.25 77 264.076171875 72.251953125 c 0,57,58
 279.650390625 66 279.650390625 66 280.004882812 65.6904296875 c 0,59,60
 295.049804688 60 295.049804688 60 297.25 60 c 0,61,-1
 311.549804688 55 l 0,62,63
 322.549804688 55 322.549804688 55 327.65234375 47.486328125 c 0,64,65
 331.349609375 42 331.349609375 42 330.647460938 35.599609375 c 0,66,67
 330.25 32 330.25 32 322.907226562 32.7421875 c 0,68,69
 315.950195312 33 315.950195312 33 313.258789062 33.8388671875 c 0,48,-1
EndSplineSet
EndChar

StartChar: K
Encoding: 75 75 51
Width: 600
Flags: W
LayerCount: 2
Fore
SplineSet
99.7998046875 0 m 4,0,1
 70.400390625 0 70.400390625 0 56.400390625 11 c 132,-1,2
 42.400390625 22 42.400390625 22 37.5 38.5 c 132,-1,3
 32.599609375 55 32.599609375 55 32.599609375 73 c 132,-1,4
 32.599609375 91 32.599609375 91 32.599609375 105 c 6,5,-1
 32.599609375 204 l 5,6,-1
 31.2001953125 402 l 5,7,-1
 31.2001953125 501 l 6,8,9
 31.2001953125 533 31.2001953125 533 34 554 c 132,-1,10
 36.7998046875 575 36.7998046875 575 45.2001953125 590 c 132,-1,11
 53.599609375 605 53.599609375 605 69.7001953125 613 c 132,-1,12
 85.7998046875 621 85.7998046875 621 113.799804688 621 c 4,13,14
 146 621 146 621 170.5 602.5 c 132,-1,15
 195 584 195 584 195 554 c 4,16,17
 195 549 195 549 194.299804688 533 c 132,-1,18
 193.599609375 517 193.599609375 517 193.599609375 493.5 c 132,-1,19
 193.599609375 470 193.599609375 470 193.599609375 446.5 c 132,-1,20
 193.599609375 423 193.599609375 423 193.599609375 403.5 c 132,-1,21
 193.599609375 384 193.599609375 384 195.700195312 371 c 132,-1,22
 197.799804688 358 197.799804688 358 200.599609375 358 c 4,23,24
 206.200195312 358 206.200195312 358 223 377 c 132,-1,25
 239.799804688 396 239.799804688 396 262.200195312 425 c 132,-1,26
 284.599609375 454 284.599609375 454 311.200195312 487 c 132,-1,27
 337.799804688 520 337.799804688 520 364.400390625 549 c 132,-1,28
 391 578 391 578 414.099609375 597 c 132,-1,29
 437.200195312 616 437.200195312 616 452.599609375 616 c 4,30,31
 465.200195312 616 465.200195312 616 480.599609375 613 c 132,-1,32
 496 610 496 610 508.599609375 604 c 132,-1,33
 521.200195312 598 521.200195312 598 529.599609375 589 c 132,-1,34
 538 580 538 580 538 567 c 4,35,36
 538 559 538 559 522.599609375 538.5 c 132,-1,37
 507.200195312 518 507.200195312 518 484.799804688 492 c 132,-1,38
 462.400390625 466 462.400390625 466 435.099609375 437.5 c 132,-1,39
 407.799804688 409 407.799804688 409 385.400390625 385 c 132,-1,40
 363 361 363 361 347.599609375 344 c 132,-1,41
 332.200195312 327 332.200195312 327 332.200195312 324 c 4,42,43
 332.200195312 320 332.200195312 320 349.700195312 300.5 c 132,-1,44
 367.200195312 281 367.200195312 281 393.799804688 253.5 c 132,-1,45
 420.400390625 226 420.400390625 226 450.5 194 c 132,-1,46
 480.599609375 162 480.599609375 162 507.200195312 133 c 132,-1,47
 533.799804688 104 533.799804688 104 551.299804688 81 c 132,-1,48
 568.799804688 58 568.799804688 58 568.799804688 48 c 4,49,50
 568.799804688 35 568.799804688 35 556.900390625 26 c 132,-1,51
 545 17 545 17 528.200195312 11 c 132,-1,52
 511.400390625 5 511.400390625 5 494.599609375 2 c 132,-1,53
 477.799804688 -1 477.799804688 -1 466.599609375 -1 c 4,54,55
 447 -1 447 -1 426 18 c 4,56,57
 399.400390625 41 399.400390625 41 388.200195312 57 c 4,58,59
 382.599609375 65 382.599609375 65 363 87.5 c 132,-1,60
 343.400390625 110 343.400390625 110 321 136 c 4,61,62
 284.599609375 179 284.599609375 179 276.200195312 186 c 4,63,64
 252.400390625 210 252.400390625 210 241.200195312 223 c 4,65,66
 237 228 237 228 230 228 c 4,67,68
 224.400390625 229 224.400390625 229 217.400390625 223 c 6,69,-1
 203.400390625 210 l 6,70,71
 192.200195312 200 192.200195312 200 192.200195312 178 c 6,72,-1
 192.200195312 155 l 5,73,-1
 193.599609375 125 l 5,74,-1
 193.599609375 102 l 6,75,76
 193.599609375 51 193.599609375 51 171.200195312 25.5 c 132,-1,77
 148.799804688 0 148.799804688 0 99.7998046875 0 c 4,0,1
57.7998046875 566 m 4,78,79
 64.7998046875 565 64.7998046875 565 71.7998046875 568.5 c 132,-1,80
 78.7998046875 572 78.7998046875 572 85.099609375 577.5 c 132,-1,81
 91.400390625 583 91.400390625 583 96.2998046875 589 c 132,-1,82
 101.200195312 595 101.200195312 595 102.599609375 599 c 4,83,84
 104 602 104 602 99.7998046875 604.5 c 132,-1,85
 95.599609375 607 95.599609375 607 91.400390625 607 c 4,86,87
 85.7998046875 607 85.7998046875 607 79.5 602.5 c 132,-1,88
 73.2001953125 598 73.2001953125 598 66.900390625 591.5 c 132,-1,89
 60.599609375 585 60.599609375 585 57.099609375 579 c 132,-1,90
 53.599609375 573 53.599609375 573 53.599609375 570 c 4,91,92
 53.599609375 566 53.599609375 566 57.7998046875 566 c 4,78,79
416.200195312 558 m 4,93,94
 420.400390625 558 420.400390625 558 428.099609375 562.5 c 132,-1,95
 435.799804688 567 435.799804688 567 442.799804688 573.5 c 132,-1,96
 449.799804688 580 449.799804688 580 454.700195312 586.5 c 132,-1,97
 459.599609375 593 459.599609375 593 458.200195312 597 c 4,98,99
 458.200195312 601 458.200195312 601 452.599609375 601 c 4,100,101
 448.400390625 602 448.400390625 602 440 597.5 c 132,-1,102
 431.599609375 593 431.599609375 593 423.900390625 586.5 c 132,-1,103
 416.200195312 580 416.200195312 580 410.599609375 573.5 c 132,-1,104
 405 567 405 567 406.400390625 564 c 4,105,106
 409.200195312 559 409.200195312 559 416.200195312 558 c 4,93,94
78.7998046875 81 m 4,107,108
 78.7998046875 85 78.7998046875 85 78.7998046875 97.5 c 132,-1,109
 78.7998046875 110 78.7998046875 110 77.400390625 123.5 c 132,-1,110
 76 137 76 137 73.2001953125 147.5 c 132,-1,111
 70.400390625 158 70.400390625 158 64.7998046875 158 c 4,112,113
 60.599609375 158 60.599609375 158 57.099609375 153 c 132,-1,114
 53.599609375 148 53.599609375 148 52.2001953125 141 c 132,-1,115
 50.7998046875 134 50.7998046875 134 50.099609375 127.5 c 132,-1,116
 49.400390625 121 49.400390625 121 49.400390625 119 c 4,117,118
 49.400390625 115 49.400390625 115 49.400390625 104.5 c 132,-1,119
 49.400390625 94 49.400390625 94 51.5 83 c 132,-1,120
 53.599609375 72 53.599609375 72 57.7998046875 63 c 132,-1,121
 62 54 62 54 70.400390625 54 c 4,122,123
 73.2001953125 54 73.2001953125 54 75.2998046875 58 c 132,-1,124
 77.400390625 62 77.400390625 62 78.099609375 66.5 c 132,-1,125
 78.7998046875 71 78.7998046875 71 78.7998046875 75.5 c 132,-1,126
 78.7998046875 80 78.7998046875 80 78.7998046875 81 c 4,107,108
470.799804688 21 m 4,127,128
 470.799804688 24 470.799804688 24 466.599609375 30.5 c 132,-1,129
 462.400390625 37 462.400390625 37 456.099609375 43 c 132,-1,130
 449.799804688 49 449.799804688 49 442.799804688 54 c 132,-1,131
 435.799804688 59 435.799804688 59 431.599609375 59 c 4,132,133
 428.799804688 59 428.799804688 59 427.400390625 55.5 c 132,-1,134
 426 52 426 52 426 50 c 4,135,136
 426 47 426 47 429.5 41 c 132,-1,137
 433 35 433 35 437.900390625 29 c 132,-1,138
 442.799804688 23 442.799804688 23 449.799804688 19 c 132,-1,139
 456.799804688 15 456.799804688 15 462.400390625 15 c 4,140,141
 470.799804688 15 470.799804688 15 470.799804688 21 c 4,127,128
91.400390625 31 m 4,142,143
 94.2001953125 36 94.2001953125 36 88.599609375 41 c 132,-1,144
 83 46 83 46 76 46 c 4,145,146
 67.599609375 46 67.599609375 46 62.7001953125 41 c 132,-1,147
 57.7998046875 36 57.7998046875 36 60.599609375 31 c 4,148,149
 66.2001953125 21 66.2001953125 21 76 21 c 260,150,151
 85.7998046875 21 85.7998046875 21 91.400390625 31 c 4,142,143
EndSplineSet
EndChar

StartChar: L
Encoding: 76 76 52
Width: 600
Flags: W
LayerCount: 2
Fore
SplineSet
39.2998046875 30.900390625 m 4,0,1
 39.2998046875 38.25 39.2998046875 38.25 40.9501953125 44.025390625 c 132,-1,2
 42.599609375 49.7998046875 42.599609375 49.7998046875 45.900390625 57.6748046875 c 132,-1,3
 49.2001953125 65.5498046875 49.2001953125 65.5498046875 54.150390625 76.0498046875 c 132,-1,4
 59.099609375 86.5498046875 59.099609375 86.5498046875 65.7001953125 102.299804688 c 260,5,6
 72.2998046875 118.049804688 72.2998046875 118.049804688 76.7001953125 131.174804688 c 132,-1,7
 81.099609375 144.299804688 81.099609375 144.299804688 83.849609375 159 c 132,-1,8
 86.599609375 173.700195312 86.599609375 173.700195312 88.25 191.025390625 c 132,-1,9
 89.900390625 208.349609375 89.900390625 208.349609375 89.900390625 230.400390625 c 6,10,-1
 89.900390625 265.049804688 l 5,11,-1
 67.900390625 265.049804688 l 6,12,13
 47 265.049804688 47 265.049804688 36.5498046875 274.5 c 132,-1,14
 26.099609375 283.950195312 26.099609375 283.950195312 26.099609375 296.549804688 c 4,15,16
 26.099609375 308.099609375 26.099609375 308.099609375 33.25 322.799804688 c 132,-1,17
 40.400390625 337.5 40.400390625 337.5 60.2001953125 337.5 c 6,18,-1
 87.7001953125 337.5 l 5,19,-1
 87.7001953125 407.849609375 l 6,20,21
 87.7001953125 456.150390625 87.7001953125 456.150390625 95.9501953125 500.25 c 132,-1,22
 104.200195312 544.349609375 104.200195312 544.349609375 124.549804688 578.474609375 c 132,-1,23
 144.900390625 612.599609375 144.900390625 612.599609375 179.549804688 632.549804688 c 132,-1,24
 214.200195312 652.5 214.200195312 652.5 267 652.5 c 4,25,26
 292.299804688 652.5 292.299804688 652.5 315.950195312 644.625 c 132,-1,27
 339.599609375 636.75 339.599609375 636.75 358.299804688 621.525390625 c 132,-1,28
 377 606.299804688 377 606.299804688 388.549804688 584.25 c 132,-1,29
 400.099609375 562.200195312 400.099609375 562.200195312 400.099609375 534.900390625 c 4,30,31
 400.099609375 488.700195312 400.099609375 488.700195312 374.799804688 488.700195312 c 4,32,33
 356.099609375 488.700195312 356.099609375 488.700195312 337.400390625 520.200195312 c 4,34,35
 325.299804688 540.150390625 325.299804688 540.150390625 308.799804688 555.375 c 132,-1,36
 292.299804688 570.599609375 292.299804688 570.599609375 272.5 570.599609375 c 4,37,38
 246.099609375 570.599609375 246.099609375 570.599609375 230.150390625 558 c 132,-1,39
 214.200195312 545.400390625 214.200195312 545.400390625 205.400390625 522.825195312 c 132,-1,40
 196.599609375 500.25 196.599609375 500.25 193.299804688 468.75 c 132,-1,41
 190 437.25 190 437.25 190 399.450195312 c 6,42,-1
 190 339.599609375 l 5,43,-1
 284.599609375 339.599609375 l 6,44,45
 311 339.599609375 311 339.599609375 325.849609375 335.924804688 c 132,-1,46
 340.700195312 332.25 340.700195312 332.25 348.400390625 326.474609375 c 132,-1,47
 356.099609375 320.700195312 356.099609375 320.700195312 358.299804688 312.825195312 c 132,-1,48
 360.5 304.950195312 360.5 304.950195312 360.5 295.5 c 4,49,50
 360.5 289.200195312 360.5 289.200195312 358.849609375 283.424804688 c 132,-1,51
 357.200195312 277.650390625 357.200195312 277.650390625 351.150390625 273.974609375 c 132,-1,52
 345.099609375 270.299804688 345.099609375 270.299804688 333 267.674804688 c 132,-1,53
 320.900390625 265.049804688 320.900390625 265.049804688 300 265.049804688 c 6,54,-1
 190 265.049804688 l 5,55,-1
 190 196.799804688 l 6,56,57
 190 147.450195312 190 147.450195312 179 122.775390625 c 132,-1,58
 168 98.099609375 168 98.099609375 161.400390625 84.4501953125 c 4,59,60
 157 76.0498046875 157 76.0498046875 162.5 76.5751953125 c 132,-1,61
 168 77.099609375 168 77.099609375 179 79.2001953125 c 4,62,63
 185.599609375 80.25 185.599609375 80.25 191.650390625 81.2998046875 c 132,-1,64
 197.700195312 82.349609375 197.700195312 82.349609375 205.400390625 82.875 c 132,-1,65
 213.099609375 83.400390625 213.099609375 83.400390625 224.099609375 83.400390625 c 4,66,67
 238.400390625 83.400390625 238.400390625 83.400390625 252.700195312 83.400390625 c 6,68,-1
 490.299804688 83.400390625 l 6,69,70
 536.5 83.400390625 536.5 83.400390625 555.200195312 75.525390625 c 132,-1,71
 573.900390625 67.650390625 573.900390625 67.650390625 573.900390625 46.650390625 c 4,72,73
 573.900390625 19.349609375 573.900390625 19.349609375 560.150390625 9.900390625 c 132,-1,74
 546.400390625 0.4501953125 546.400390625 0.4501953125 515.599609375 2.5498046875 c 4,75,76
 458.400390625 4.650390625 458.400390625 4.650390625 313.200195312 3.0751953125 c 132,-1,77
 168 1.5 168 1.5 105.299804688 1.5 c 4,78,79
 76.7001953125 1.5 76.7001953125 1.5 58 8.849609375 c 132,-1,80
 39.2998046875 16.2001953125 39.2998046875 16.2001953125 39.2998046875 30.900390625 c 4,0,1
126.200195312 484.5 m 4,81,82
 128.400390625 484.5 128.400390625 484.5 132.799804688 496.049804688 c 132,-1,83
 137.200195312 507.599609375 137.200195312 507.599609375 144.349609375 524.400390625 c 132,-1,84
 151.5 541.200195312 151.5 541.200195312 162.5 559.575195312 c 132,-1,85
 173.5 577.950195312 173.5 577.950195312 190 591.599609375 c 4,86,87
 204.299804688 604.200195312 204.299804688 604.200195312 205.950195312 609.974609375 c 132,-1,88
 207.599609375 615.75 207.599609375 615.75 204.299804688 615.75 c 4,89,90
 195.5 615.75 195.5 615.75 184.5 609.974609375 c 132,-1,91
 173.5 604.200195312 173.5 604.200195312 158.099609375 589.5 c 4,92,93
 149.299804688 581.099609375 149.299804688 581.099609375 142.150390625 568.5 c 132,-1,94
 135 555.900390625 135 555.900390625 130.049804688 542.25 c 132,-1,95
 125.099609375 528.599609375 125.099609375 528.599609375 122.900390625 516 c 132,-1,96
 120.700195312 503.400390625 120.700195312 503.400390625 120.700195312 493.950195312 c 260,97,98
 120.700195312 484.5 120.700195312 484.5 126.200195312 484.5 c 4,81,82
126.200195312 455.099609375 m 4,99,100
 126.200195312 459.299804688 126.200195312 459.299804688 122.900390625 461.400390625 c 132,-1,101
 119.599609375 463.5 119.599609375 463.5 116.299804688 463.5 c 4,102,103
 111.900390625 463.5 111.900390625 463.5 107.5 457.200195312 c 4,104,105
 106.400390625 454.049804688 106.400390625 454.049804688 105.299804688 450.900390625 c 4,106,107
 105.299804688 441.450195312 105.299804688 441.450195312 116.299804688 441.450195312 c 4,108,109
 126.200195312 441.450195312 126.200195312 441.450195312 126.200195312 455.099609375 c 4,99,100
EndSplineSet
EndChar

StartChar: M
Encoding: 77 77 53
Width: 600
Flags: W
LayerCount: 2
Fore
SplineSet
322.08984375 595.75 m 4,0,1
 284.490234375 595.75 284.490234375 595.75 257.69921875 623.469726562 c 132,-1,2
 230.91015625 651.190429688 230.91015625 651.190429688 230.91015625 694.75 c 4,3,4
 230.91015625 718.509765625 230.91015625 718.509765625 238.900390625 739.794921875 c 132,-1,5
 246.890625 761.080078125 246.890625 761.080078125 260.990234375 776.424804688 c 132,-1,6
 275.08984375 791.76953125 275.08984375 791.76953125 294.830078125 801.174804688 c 132,-1,7
 314.5703125 810.580078125 314.5703125 810.580078125 338.0703125 810.580078125 c 4,8,9
 356.869140625 810.580078125 356.869140625 810.580078125 372.849609375 802.165039062 c 132,-1,10
 388.830078125 793.75 388.830078125 793.75 400.109375 778.900390625 c 132,-1,11
 411.390625 764.049804688 411.390625 764.049804688 417.5 745.240234375 c 132,-1,12
 423.609375 726.4296875 423.609375 726.4296875 423.609375 705.639648438 c 4,13,14
 423.609375 678.91015625 423.609375 678.91015625 415.619140625 658.615234375 c 132,-1,15
 407.630859375 638.3203125 407.630859375 638.3203125 393.529296875 624.459960938 c 132,-1,16
 379.4296875 610.599609375 379.4296875 610.599609375 361.099609375 603.174804688 c 132,-1,17
 342.76953125 595.75 342.76953125 595.75 322.08984375 595.75 c 4,0,1
287.310546875 767.01953125 m 4,18,19
 293.890625 773.950195312 293.890625 773.950195312 295.30078125 778.900390625 c 132,-1,20
 296.7109375 783.849609375 296.7109375 783.849609375 294.830078125 783.849609375 c 4,21,22
 287.310546875 783.849609375 287.310546875 783.849609375 278.849609375 776.424804688 c 132,-1,23
 270.390625 769 270.390625 769 263.33984375 758.60546875 c 132,-1,24
 256.291015625 748.209960938 256.291015625 748.209960938 251.58984375 736.330078125 c 132,-1,25
 246.890625 724.450195312 246.890625 724.450195312 246.890625 714.549804688 c 4,26,27
 246.890625 712.5703125 246.890625 712.5703125 248.30078125 706.629882812 c 132,-1,28
 249.7109375 700.690429688 249.7109375 700.690429688 252.529296875 700.690429688 c 4,29,30
 256.291015625 700.690429688 256.291015625 700.690429688 261.9296875 722.469726562 c 4,31,32
 264.75 736.330078125 264.75 736.330078125 272.26953125 747.71484375 c 132,-1,33
 279.791015625 759.099609375 279.791015625 759.099609375 287.310546875 767.01953125 c 4,18,19
325.849609375 652.1796875 m 4,34,35
 337.130859375 652.1796875 337.130859375 652.1796875 352.640625 666.040039062 c 132,-1,36
 368.150390625 679.900390625 368.150390625 679.900390625 368.150390625 705.639648438 c 4,37,38
 368.150390625 725.440429688 368.150390625 725.440429688 358.279296875 738.8046875 c 132,-1,39
 348.41015625 752.169921875 348.41015625 752.169921875 332.4296875 752.169921875 c 260,40,41
 316.44921875 752.169921875 316.44921875 752.169921875 303.291015625 738.8046875 c 132,-1,42
 290.130859375 725.440429688 290.130859375 725.440429688 290.130859375 701.6796875 c 260,43,44
 290.130859375 677.919921875 290.130859375 677.919921875 300.470703125 665.049804688 c 132,-1,45
 310.810546875 652.1796875 310.810546875 652.1796875 325.849609375 652.1796875 c 4,34,35
88.970703125 2.740234375 m 0,46,47
 74.869140625 2.740234375 74.869140625 2.740234375 66.41015625 8.1845703125 c 128,-1,48
 57.94921875 13.6298828125 57.94921875 13.6298828125 53.720703125 22.5400390625 c 128,-1,49
 49.490234375 31.4501953125 49.490234375 31.4501953125 48.080078125 42.8349609375 c 128,-1,50
 46.669921875 54.2197265625 46.669921875 54.2197265625 46.669921875 67.08984375 c 2,51,-1
 46.669921875 493.780273438 l 2,52,53
 46.669921875 504.669921875 46.669921875 504.669921875 47.140625 517.540039062 c 128,-1,54
 47.609375 530.41015625 47.609375 530.41015625 51.369140625 541.299804688 c 128,-1,55
 55.130859375 552.190429688 55.130859375 552.190429688 63.58984375 559.615234375 c 128,-1,56
 72.05078125 567.040039062 72.05078125 567.040039062 87.08984375 567.040039062 c 0,57,58
 105.890625 567.040039062 105.890625 567.040039062 115.291015625 552.684570312 c 128,-1,59
 124.689453125 538.330078125 124.689453125 538.330078125 128.919921875 520.509765625 c 128,-1,60
 133.150390625 502.690429688 133.150390625 502.690429688 134.08984375 488.334960938 c 128,-1,61
 135.029296875 473.98046875 135.029296875 473.98046875 136.91015625 473.98046875 c 256,62,63
 138.791015625 473.98046875 138.791015625 473.98046875 142.55078125 489.325195312 c 128,-1,64
 146.310546875 504.669921875 146.310546875 504.669921875 156.1796875 522.490234375 c 128,-1,65
 166.05078125 540.309570312 166.05078125 540.309570312 183.91015625 555.655273438 c 128,-1,66
 201.76953125 571 201.76953125 571 232.791015625 571 c 0,67,68
 259.109375 571 259.109375 571 276.029296875 556.150390625 c 128,-1,69
 292.94921875 541.299804688 292.94921875 541.299804688 303.291015625 522.985351562 c 128,-1,70
 313.630859375 504.669921875 313.630859375 504.669921875 319.26953125 489.8203125 c 128,-1,71
 324.91015625 474.969726562 324.91015625 474.969726562 327.73046875 474.969726562 c 256,72,73
 330.55078125 474.969726562 330.55078125 474.969726562 335.720703125 489.8203125 c 128,-1,74
 340.890625 504.669921875 340.890625 504.669921875 351.23046875 522.985351562 c 128,-1,75
 361.5703125 541.299804688 361.5703125 541.299804688 379.900390625 556.150390625 c 128,-1,76
 398.23046875 571 398.23046875 571 428.310546875 571 c 0,77,78
 466.849609375 571 466.849609375 571 491.291015625 551.200195312 c 128,-1,79
 515.73046875 531.400390625 515.73046875 531.400390625 529.359375 496.254882812 c 128,-1,80
 542.990234375 461.110351562 542.990234375 461.110351562 548.16015625 413.094726562 c 128,-1,81
 553.330078125 365.080078125 553.330078125 365.080078125 553.330078125 309.639648438 c 2,82,-1
 553.330078125 29.4697265625 l 2,83,84
 553.330078125 15.6103515625 553.330078125 15.6103515625 535.470703125 9.1748046875 c 128,-1,85
 517.609375 2.740234375 517.609375 2.740234375 498.810546875 2.740234375 c 256,86,87
 480.009765625 2.740234375 480.009765625 2.740234375 469.669921875 8.1845703125 c 128,-1,88
 459.330078125 13.6298828125 459.330078125 13.6298828125 459.330078125 28.48046875 c 2,89,-1
 459.330078125 300.73046875 l 2,90,91
 459.330078125 312.610351562 459.330078125 312.610351562 459.330078125 340.825195312 c 128,-1,92
 459.330078125 369.040039062 459.330078125 369.040039062 455.099609375 398.740234375 c 128,-1,93
 450.869140625 428.440429688 450.869140625 428.440429688 441 450.71484375 c 128,-1,94
 431.130859375 472.990234375 431.130859375 472.990234375 411.390625 472.990234375 c 0,95,96
 394.470703125 472.990234375 394.470703125 472.990234375 383.66015625 459.129882812 c 128,-1,97
 372.849609375 445.26953125 372.849609375 445.26953125 366.26953125 421.014648438 c 128,-1,98
 359.689453125 396.759765625 359.689453125 396.759765625 356.400390625 362.60546875 c 128,-1,99
 353.109375 328.450195312 353.109375 328.450195312 351.23046875 286.870117188 c 0,100,101
 348.41015625 238.360351562 348.41015625 238.360351562 347.470703125 211.629882812 c 128,-1,102
 346.529296875 184.900390625 346.529296875 184.900390625 347 142.825195312 c 128,-1,103
 347.470703125 100.75 347.470703125 100.75 347.939453125 71.544921875 c 128,-1,104
 348.41015625 42.33984375 348.41015625 42.33984375 348.41015625 33.4296875 c 0,105,106
 348.41015625 19.5703125 348.41015625 19.5703125 332.900390625 11.1552734375 c 128,-1,107
 317.390625 2.740234375 317.390625 2.740234375 294.830078125 2.740234375 c 256,108,109
 272.26953125 2.740234375 272.26953125 2.740234375 262.869140625 9.669921875 c 128,-1,110
 253.470703125 16.599609375 253.470703125 16.599609375 253.470703125 40.3603515625 c 2,111,-1
 253.470703125 300.73046875 l 2,112,113
 253.470703125 311.620117188 253.470703125 311.620117188 253.470703125 340.330078125 c 128,-1,114
 253.470703125 369.040039062 253.470703125 369.040039062 249.7109375 398.740234375 c 128,-1,115
 245.94921875 428.440429688 245.94921875 428.440429688 236.55078125 451.209960938 c 128,-1,116
 227.150390625 473.98046875 227.150390625 473.98046875 208.349609375 473.98046875 c 0,117,118
 191.4296875 473.98046875 191.4296875 473.98046875 179.6796875 458.634765625 c 128,-1,119
 167.9296875 443.290039062 167.9296875 443.290039062 160.41015625 419.530273438 c 128,-1,120
 152.890625 395.76953125 152.890625 395.76953125 148.66015625 366.0703125 c 128,-1,121
 144.4296875 336.370117188 144.4296875 336.370117188 142.55078125 308.650390625 c 128,-1,122
 140.669921875 280.9296875 140.669921875 280.9296875 140.19921875 257.169921875 c 128,-1,123
 139.73046875 233.41015625 139.73046875 233.41015625 139.73046875 221.530273438 c 2,124,-1
 139.73046875 47.2900390625 l 2,125,126
 139.73046875 28.48046875 139.73046875 28.48046875 124.689453125 15.6103515625 c 128,-1,127
 109.650390625 2.740234375 109.650390625 2.740234375 88.970703125 2.740234375 c 0,46,47
69.23046875 473.98046875 m 0,128,129
 74.869140625 474.969726562 74.869140625 474.969726562 75.33984375 485.365234375 c 128,-1,130
 75.810546875 495.759765625 75.810546875 495.759765625 75.810546875 503.6796875 c 0,131,132
 75.810546875 510.610351562 75.810546875 510.610351562 77.689453125 519.025390625 c 128,-1,133
 79.5703125 527.440429688 79.5703125 527.440429688 80.98046875 534.370117188 c 128,-1,134
 82.390625 541.299804688 82.390625 541.299804688 82.390625 546.25 c 128,-1,135
 82.390625 551.200195312 82.390625 551.200195312 78.630859375 551.200195312 c 0,136,137
 72.05078125 551.200195312 72.05078125 551.200195312 67.8203125 544.764648438 c 128,-1,138
 63.58984375 538.330078125 63.58984375 538.330078125 61.7109375 529.419921875 c 128,-1,139
 59.830078125 520.509765625 59.830078125 520.509765625 58.890625 512.58984375 c 128,-1,140
 57.94921875 504.669921875 57.94921875 504.669921875 57.94921875 501.700195312 c 0,141,142
 57.94921875 493.780273438 57.94921875 493.780273438 59.830078125 483.384765625 c 128,-1,143
 61.7109375 472.990234375 61.7109375 472.990234375 69.23046875 473.98046875 c 0,128,129
286.369140625 25.509765625 m 0,144,145
 286.369140625 35.41015625 286.369140625 35.41015625 280.259765625 38.875 c 128,-1,146
 274.150390625 42.33984375 274.150390625 42.33984375 274.150390625 53.23046875 c 0,147,148
 274.150390625 55.2099609375 274.150390625 55.2099609375 274.150390625 60.6552734375 c 128,-1,149
 274.150390625 66.099609375 274.150390625 66.099609375 273.6796875 71.544921875 c 128,-1,150
 273.2109375 76.990234375 273.2109375 76.990234375 271.330078125 81.4453125 c 128,-1,151
 269.44921875 85.900390625 269.44921875 85.900390625 266.630859375 85.900390625 c 0,152,153
 264.75 85.900390625 264.75 85.900390625 263.810546875 81.4453125 c 128,-1,154
 262.869140625 76.990234375 262.869140625 76.990234375 262.400390625 71.0498046875 c 128,-1,155
 261.9296875 65.1103515625 261.9296875 65.1103515625 261.9296875 59.6650390625 c 128,-1,156
 261.9296875 54.2197265625 261.9296875 54.2197265625 261.9296875 52.240234375 c 0,157,158
 261.9296875 40.3603515625 261.9296875 40.3603515625 265.220703125 26.9951171875 c 128,-1,159
 268.509765625 13.6298828125 268.509765625 13.6298828125 277.91015625 13.6298828125 c 0,160,161
 286.369140625 13.6298828125 286.369140625 13.6298828125 286.369140625 25.509765625 c 0,144,145
489.41015625 26.5 m 0,162,163
 489.41015625 36.400390625 489.41015625 36.400390625 484.240234375 43.8251953125 c 128,-1,164
 479.0703125 51.25 479.0703125 51.25 479.0703125 62.1396484375 c 0,165,166
 479.0703125 66.099609375 479.0703125 66.099609375 478.599609375 76 c 128,-1,167
 478.130859375 85.900390625 478.130859375 85.900390625 472.490234375 85.900390625 c 0,168,169
 467.791015625 85.900390625 467.791015625 85.900390625 467.3203125 75.009765625 c 128,-1,170
 466.849609375 64.1201171875 466.849609375 64.1201171875 466.849609375 61.150390625 c 256,171,172
 466.849609375 58.1796875 466.849609375 58.1796875 467.3203125 50.259765625 c 128,-1,173
 467.791015625 42.33984375 467.791015625 42.33984375 469.669921875 34.9150390625 c 128,-1,174
 471.55078125 27.490234375 471.55078125 27.490234375 474.369140625 21.5498046875 c 128,-1,175
 477.189453125 15.6103515625 477.189453125 15.6103515625 481.890625 15.6103515625 c 0,176,177
 485.650390625 15.6103515625 485.650390625 15.6103515625 487.529296875 20.0654296875 c 128,-1,178
 489.41015625 24.51953125 489.41015625 24.51953125 489.41015625 26.5 c 0,162,163
87.08984375 26.5 m 0,179,180
 87.08984375 37.3896484375 87.08984375 37.3896484375 82.859375 38.3798828125 c 128,-1,181
 78.630859375 39.3701171875 78.630859375 39.3701171875 73.9296875 46.2998046875 c 0,182,183
 72.990234375 48.2802734375 72.990234375 48.2802734375 72.51953125 53.724609375 c 128,-1,184
 72.05078125 59.169921875 72.05078125 59.169921875 72.05078125 64.615234375 c 128,-1,185
 72.05078125 70.0595703125 72.05078125 70.0595703125 70.640625 74.5146484375 c 128,-1,186
 69.23046875 78.9697265625 69.23046875 78.9697265625 66.41015625 78.9697265625 c 0,187,188
 61.7109375 78.9697265625 61.7109375 78.9697265625 61.240234375 69.5654296875 c 128,-1,189
 60.76953125 60.16015625 60.76953125 60.16015625 60.76953125 53.23046875 c 0,190,191
 60.76953125 49.26953125 60.76953125 49.26953125 61.7109375 43.330078125 c 128,-1,192
 62.650390625 37.3896484375 62.650390625 37.3896484375 65 31.4501953125 c 128,-1,193
 67.349609375 25.509765625 67.349609375 25.509765625 70.640625 21.0546875 c 128,-1,194
 73.9296875 16.599609375 73.9296875 16.599609375 78.630859375 16.599609375 c 0,195,196
 87.08984375 16.599609375 87.08984375 16.599609375 87.08984375 26.5 c 0,179,180
EndSplineSet
EndChar

StartChar: N
Encoding: 78 78 54
Width: 600
Flags: W
LayerCount: 2
Fore
SplineSet
292.08984375 586.75 m 0,0,1
 254.490234375 586.75 254.490234375 586.75 227.69921875 614.469726562 c 128,-1,2
 200.91015625 642.190429688 200.91015625 642.190429688 200.91015625 685.75 c 0,3,4
 200.91015625 709.509765625 200.91015625 709.509765625 208.900390625 730.794921875 c 128,-1,5
 216.890625 752.080078125 216.890625 752.080078125 230.990234375 767.424804688 c 128,-1,6
 245.08984375 782.76953125 245.08984375 782.76953125 264.830078125 792.174804688 c 128,-1,7
 284.5703125 801.580078125 284.5703125 801.580078125 308.0703125 801.580078125 c 0,8,9
 326.869140625 801.580078125 326.869140625 801.580078125 342.849609375 793.165039062 c 128,-1,10
 358.830078125 784.75 358.830078125 784.75 370.109375 769.900390625 c 128,-1,11
 381.390625 755.049804688 381.390625 755.049804688 387.5 736.240234375 c 128,-1,12
 393.609375 717.4296875 393.609375 717.4296875 393.609375 696.639648438 c 0,13,14
 393.609375 669.91015625 393.609375 669.91015625 385.619140625 649.615234375 c 128,-1,15
 377.630859375 629.3203125 377.630859375 629.3203125 363.529296875 615.459960938 c 128,-1,16
 349.4296875 601.599609375 349.4296875 601.599609375 331.099609375 594.174804688 c 128,-1,17
 312.76953125 586.75 312.76953125 586.75 292.08984375 586.75 c 0,0,1
257.310546875 758.01953125 m 0,18,19
 263.890625 764.950195312 263.890625 764.950195312 265.30078125 769.900390625 c 128,-1,20
 266.7109375 774.849609375 266.7109375 774.849609375 264.830078125 774.849609375 c 0,21,22
 257.310546875 774.849609375 257.310546875 774.849609375 248.849609375 767.424804688 c 128,-1,23
 240.390625 760 240.390625 760 233.33984375 749.60546875 c 128,-1,24
 226.291015625 739.209960938 226.291015625 739.209960938 221.58984375 727.330078125 c 128,-1,25
 216.890625 715.450195312 216.890625 715.450195312 216.890625 705.549804688 c 0,26,27
 216.890625 703.5703125 216.890625 703.5703125 218.30078125 697.629882812 c 128,-1,28
 219.7109375 691.690429688 219.7109375 691.690429688 222.529296875 691.690429688 c 0,29,30
 226.291015625 691.690429688 226.291015625 691.690429688 231.9296875 713.469726562 c 0,31,32
 234.75 727.330078125 234.75 727.330078125 242.26953125 738.71484375 c 128,-1,33
 249.791015625 750.099609375 249.791015625 750.099609375 257.310546875 758.01953125 c 0,18,19
295.849609375 643.1796875 m 0,34,35
 307.130859375 643.1796875 307.130859375 643.1796875 322.640625 657.040039062 c 128,-1,36
 338.150390625 670.900390625 338.150390625 670.900390625 338.150390625 696.639648438 c 0,37,38
 338.150390625 716.440429688 338.150390625 716.440429688 328.279296875 729.8046875 c 128,-1,39
 318.41015625 743.169921875 318.41015625 743.169921875 302.4296875 743.169921875 c 256,40,41
 286.44921875 743.169921875 286.44921875 743.169921875 273.291015625 729.8046875 c 128,-1,42
 260.130859375 716.440429688 260.130859375 716.440429688 260.130859375 692.6796875 c 256,43,44
 260.130859375 668.919921875 260.130859375 668.919921875 270.470703125 656.049804688 c 128,-1,45
 280.810546875 643.1796875 280.810546875 643.1796875 295.849609375 643.1796875 c 0,34,35
46.5400390625 0 m 1,46,-1
 37.259765625 560 l 1,47,-1
 130.059570312 560 l 1,48,-1
 145.139648438 459 l 1,49,-1
 150.940429688 459 l 1,50,51
 170 490 170 490 199.080078125 509.5 c 128,-1,52
 228 529 228 529 268.099609375 538.5 c 0,53,54
 307 548 307 548 353.940429688 548 c 0,55,56
 448 548 448 548 505.3203125 502.5 c 0,57,58
 562.740234375 457.204913314 562.740234375 457.204913314 562.740234375 360 c 2,59,-1
 562.740234375 0 l 1,60,-1
 458.33984375 0 l 1,61,-1
 458.33984375 344 l 2,62,63
 458 397 458 397 426.440429688 430.5 c 0,64,65
 384 473 384 473 323.780273438 462 c 0,66,67
 209 441 209 441 189.799804688 410 c 0,68,69
 150.940429688 348.906345171 150.940429688 348.906345171 150.940429688 277 c 2,70,-1
 150.940429688 0 l 1,71,-1
 46.5400390625 0 l 1,46,-1
EndSplineSet
EndChar

StartChar: O
Encoding: 79 79 55
Width: 600
Flags: W
LayerCount: 2
Fore
SplineSet
172.780273438 381.428710938 m 0,0,1
 159.705078125 386.329101562 159.705078125 386.329101562 151.157226562 396.12890625 c 128,-1,2
 142.609375 405.930664062 142.609375 405.930664062 140.094726562 416.8203125 c 128,-1,3
 137.580078125 427.709960938 137.580078125 427.709960938 141.100585938 439.145507812 c 0,4,5
 145.625 451.66796875 145.625 451.66796875 154.677734375 457.658203125 c 0,6,7
 159.705078125 460.379882812 159.705078125 460.379882812 167.249023438 463.103515625 c 0,8,9
 174.791992188 464.736328125 174.791992188 464.736328125 188.369140625 466.915039062 c 128,-1,10
 201.9453125 469.091796875 201.9453125 469.091796875 222.059570312 469.091796875 c 0,11,12
 282.400390625 469.091796875 282.400390625 469.091796875 313.577148438 469.63671875 c 0,13,14
 385.987304688 469.091796875 385.987304688 469.091796875 411.12890625 468.00390625 c 128,-1,15
 436.271484375 466.915039062 436.271484375 466.915039062 448.84375 460.924804688 c 0,16,17
 461.415039062 456.024414062 461.415039062 456.024414062 464.430664062 445.678710938 c 0,18,19
 467.448242188 436.421875 467.448242188 436.421875 467.448242188 419.54296875 c 0,20,21
 467.448242188 405.930664062 467.448242188 405.930664062 461.91796875 398.307617188 c 128,-1,22
 456.385742188 390.684570312 456.385742188 390.684570312 442.305664062 385.240234375 c 128,-1,23
 428.2265625 379.794921875 428.2265625 379.794921875 404.08984375 378.16015625 c 0,24,25
 379.954101562 375.438476562 379.954101562 375.438476562 313.577148438 375.983398438 c 0,26,27
 235.1328125 375.438476562 235.1328125 375.438476562 206.470703125 377.616210938 c 128,-1,28
 177.80859375 379.794921875 177.80859375 379.794921875 172.780273438 381.428710938 c 0,0,1
180.825195312 447.857421875 m 0,29,30
 180.825195312 449.491210938 180.825195312 449.491210938 178.311523438 451.66796875 c 0,31,32
 176.802734375 452.7578125 176.802734375 452.7578125 171.774414062 450.034179688 c 128,-1,33
 166.745117188 447.3125 166.745117188 447.3125 164.232421875 436.966796875 c 0,34,35
 161.716796875 427.709960938 161.716796875 427.709960938 161.716796875 419.54296875 c 256,36,37
 161.716796875 412.46484375 161.716796875 412.46484375 163.728515625 411.919921875 c 0,38,39
 166.745117188 412.46484375 166.745117188 412.46484375 171.774414062 426.077148438 c 0,40,41
 177.80859375 440.779296875 177.80859375 440.779296875 177.80859375 441.322265625 c 0,42,43
 180.825195312 444.045898438 180.825195312 444.045898438 180.825195312 447.857421875 c 0,29,30
170.768554688 206.098632812 m 0,44,45
 151.66015625 209.91015625 151.66015625 209.91015625 142.10546875 225.15625 c 128,-1,46
 132.551757812 240.40234375 132.551757812 240.40234375 139.591796875 256.192382812 c 0,47,48
 144.620117188 266.5390625 144.620117188 266.5390625 152.162109375 271.439453125 c 0,49,50
 159.705078125 277.428710938 159.705078125 277.428710938 175.293945312 279.606445312 c 0,51,52
 198.928710938 282.873046875 198.928710938 282.873046875 216.024414062 282.873046875 c 0,53,54
 280.388671875 282.873046875 280.388671875 282.873046875 334.194335938 283.41796875 c 128,-1,55
 387.999023438 283.962890625 387.999023438 283.962890625 413.64453125 281.78515625 c 128,-1,56
 439.2890625 279.606445312 439.2890625 279.606445312 453.369140625 276.33984375 c 128,-1,57
 467.448242188 273.072265625 467.448242188 273.072265625 472.98046875 265.44921875 c 128,-1,58
 478.51171875 257.826171875 478.51171875 257.826171875 478.51171875 246.391601562 c 0,59,60
 478.51171875 231.69140625 478.51171875 231.69140625 472.4765625 222.434570312 c 0,61,62
 466.442382812 212.088867188 466.442382812 212.088867188 450.85546875 207.1875 c 0,63,64
 435.266601562 201.198242188 435.266601562 201.198242188 409.118164062 199.020507812 c 0,65,66
 371.907226562 195.75390625 371.907226562 195.75390625 314.583007812 196.297851562 c 0,67,68
 236.138671875 196.841796875 236.138671875 196.841796875 207.475585938 200.110351562 c 128,-1,69
 178.814453125 203.376953125 178.814453125 203.376953125 170.768554688 206.098632812 c 0,44,45
173.78515625 259.458984375 m 0,70,71
 173.78515625 262.182617188 173.78515625 262.182617188 170.768554688 262.727539062 c 256,72,73
 167.750976562 262.182617188 167.750976562 262.182617188 166.745117188 261.637695312 c 0,74,75
 164.734375 260.00390625 164.734375 260.00390625 161.716796875 255.6484375 c 128,-1,76
 158.700195312 251.291992188 158.700195312 251.291992188 158.700195312 243.125 c 0,77,78
 158.700195312 233.868164062 158.700195312 233.868164062 160.208984375 232.234375 c 0,79,80
 161.716796875 231.69140625 161.716796875 231.69140625 166.745117188 236.591796875 c 0,81,82
 170.768554688 240.40234375 170.768554688 240.40234375 172.27734375 247.48046875 c 0,83,84
 173.78515625 253.470703125 173.78515625 253.470703125 173.78515625 259.458984375 c 0,70,71
297.486328125 -1.35546875 m 0,85,86
 225.076171875 -1.35546875 225.076171875 -1.35546875 171.271484375 28.591796875 c 128,-1,87
 117.465820312 58.5400390625 117.465820312 58.5400390625 82.267578125 105.91015625 c 128,-1,88
 47.068359375 153.282226562 47.068359375 153.282226562 29.4677734375 212.088867188 c 128,-1,89
 11.8681640625 270.89453125 11.8681640625 270.89453125 11.8681640625 329.700195312 c 0,90,91
 11.8681640625 401.57421875 11.8681640625 401.57421875 31.982421875 462.55859375 c 128,-1,92
 52.0966796875 523.541992188 52.0966796875 523.541992188 89.810546875 567.647460938 c 128,-1,93
 127.5234375 611.751953125 127.5234375 611.751953125 181.831054688 636.797851562 c 128,-1,94
 236.138671875 661.845703125 236.138671875 661.845703125 303.520507812 661.845703125 c 0,95,96
 365.874023438 661.845703125 365.874023438 661.845703125 418.168945312 637.342773438 c 128,-1,97
 470.46484375 612.840820312 470.46484375 612.840820312 508.1796875 569.825195312 c 128,-1,98
 545.892578125 526.809570312 545.892578125 526.809570312 567.01171875 467.458984375 c 128,-1,99
 588.131835938 408.108398438 588.131835938 408.108398438 588.131835938 339.501953125 c 0,100,101
 588.131835938 269.805664062 588.131835938 269.805664062 566.509765625 207.732421875 c 128,-1,102
 544.88671875 145.66015625 544.88671875 145.66015625 506.16796875 99.376953125 c 128,-1,103
 467.448242188 53.0947265625 467.448242188 53.0947265625 414.146484375 25.869140625 c 128,-1,104
 360.844726562 -1.35546875 360.844726562 -1.35546875 297.486328125 -1.35546875 c 0,85,86
299.498046875 82.4970703125 m 0,105,106
 401.073242188 82.4970703125 401.073242188 82.4970703125 452.866210938 151.6484375 c 128,-1,107
 504.66015625 220.80078125 504.66015625 220.80078125 504.66015625 339.501953125 c 0,108,109
 504.66015625 387.416992188 504.66015625 387.416992188 491.083007812 431.522460938 c 128,-1,110
 477.505859375 475.626953125 477.505859375 475.626953125 451.358398438 509.384765625 c 128,-1,111
 425.209960938 543.14453125 425.209960938 543.14453125 387.999023438 563.291015625 c 128,-1,112
 350.788085938 583.4375 350.788085938 583.4375 303.520507812 583.4375 c 0,113,114
 258.263671875 583.4375 258.263671875 583.4375 220.55078125 563.834960938 c 128,-1,115
 182.836914062 544.233398438 182.836914062 544.233398438 155.682617188 511.563476562 c 128,-1,116
 128.529296875 478.893554688 128.529296875 478.893554688 113.443359375 435.333984375 c 128,-1,117
 98.3583984375 391.7734375 98.3583984375 391.7734375 98.3583984375 342.768554688 c 256,118,119
 98.3583984375 293.763671875 98.3583984375 293.763671875 111.935546875 246.936523438 c 128,-1,120
 125.512695312 200.110351562 125.512695312 200.110351562 151.157226562 163.62890625 c 128,-1,121
 176.802734375 127.146484375 176.802734375 127.146484375 214.013671875 104.822265625 c 128,-1,122
 251.224609375 82.4970703125 251.224609375 82.4970703125 299.498046875 82.4970703125 c 0,105,106
EndSplineSet
EndChar

StartChar: P
Encoding: 80 80 56
Width: 600
Flags: W
LayerCount: 2
Fore
SplineSet
109.9375 -14 m 0,0,1
 89.9375 -14 89.9375 -14 72.9375 1 c 128,-1,2
 55.9375 16 55.9375 16 55.9375 69 c 2,3,-1
 55.9375 526 l 2,4,5
 55.9375 547 55.9375 547 64.4375 564 c 128,-1,6
 72.9375 581 72.9375 581 87.4375 592.5 c 128,-1,7
 101.9375 604 101.9375 604 120.4375 610 c 128,-1,8
 138.9375 616 138.9375 616 158.9375 616 c 2,9,-1
 340.9375 616 l 2,10,11
 371.9375 616 371.9375 616 407.4375 604 c 128,-1,12
 442.9375 592 442.9375 592 472.9375 566 c 128,-1,13
 502.9375 540 502.9375 540 522.9375 498 c 0,14,15
 548.9375 444 548.9375 444 542.9375 397 c 256,16,17
 541.9375 391 541.9375 391 523.4375 356.5 c 0,18,19
 490.9375 296 490.9375 296 474.9375 278.5 c 0,20,21
 445.9375 247 445.9375 247 411.9375 230.5 c 128,-1,22
 377.9375 214 377.9375 214 347.9375 214 c 2,23,-1
 195.9375 214 l 2,24,25
 186.9375 214 186.9375 214 178.4375 210 c 128,-1,26
 169.9375 206 169.9375 206 169.9375 132 c 2,27,-1
 169.9375 65 l 2,28,29
 169.9375 33 169.9375 33 164.4375 21 c 128,-1,30
 158.9375 9 158.9375 9 149.9375 1 c 128,-1,31
 140.9375 -7 140.9375 -7 130.4375 -10.5 c 128,-1,32
 119.9375 -14 119.9375 -14 109.9375 -14 c 0,0,1
336.9375 303 m 2,33,34
 353.9375 303 353.9375 303 369.9375 311 c 0,35,36
 393.9375 323 393.9375 323 399.4375 336.5 c 0,37,38
 416.9375 381 416.9375 381 420.9375 382 c 0,39,40
 428.9375 384 428.9375 384 428.9375 385 c 0,41,42
 428.9375 428 428.9375 428 420.9375 456.5 c 128,-1,43
 412.9375 485 412.9375 485 399.9375 501.5 c 128,-1,44
 386.9375 518 386.9375 518 370.9375 525 c 128,-1,45
 354.9375 532 354.9375 532 339.9375 532 c 2,46,-1
 194.9375 532 l 2,47,48
 169.9375 532 169.9375 532 169.9375 498 c 2,49,-1
 169.9375 326 l 2,50,51
 169.9375 303 169.9375 303 200.9375 303 c 2,52,-1
 336.9375 303 l 2,33,34
95.9375 21 m 256,53,54
 90.9375 26 90.9375 26 87.4375 39 c 128,-1,55
 83.9375 52 83.9375 52 83.9375 78.5 c 128,-1,56
 83.9375 105 83.9375 105 76.9375 105 c 0,57,58
 71.9375 105 71.9375 105 70.4375 96.5 c 128,-1,59
 68.9375 88 68.9375 88 68.9375 76 c 0,60,61
 68.9375 38 68.9375 38 75.9375 22 c 128,-1,62
 82.9375 6 82.9375 6 92.9375 6 c 0,63,64
 94.9375 6 94.9375 6 97.9375 8 c 128,-1,65
 100.9375 10 100.9375 10 100.9375 12 c 0,66,67
 100.9375 16 100.9375 16 95.9375 21 c 256,53,54
EndSplineSet
EndChar

StartChar: Q
Encoding: 81 81 57
Width: 600
Flags: W
LayerCount: 2
Fore
SplineSet
251.588867188 647 m 4,0,1
 224.989257812 647 224.989257812 647 208.888671875 663.25 c 4,2,3
 192.7890625 679.5 192.7890625 679.5 192.7890625 706.799804688 c 4,4,5
 192.7890625 731.5 192.7890625 731.5 206.7890625 752.950195312 c 4,6,7
 220.7890625 774.400390625 220.7890625 774.400390625 251.588867188 774.400390625 c 4,8,9
 283.7890625 774.400390625 283.7890625 774.400390625 300.588867188 754.25 c 4,10,11
 317.388671875 734.100585938 317.388671875 734.100585938 317.388671875 706.799804688 c 4,12,13
 317.388671875 676.900390625 317.388671875 676.900390625 298.489257812 661.950195312 c 4,14,15
 279.588867188 647 279.588867188 647 251.588867188 647 c 4,0,1
226.388671875 714.600585938 m 4,16,17
 227.7890625 728.900390625 227.7890625 728.900390625 233.388671875 740.600585938 c 4,18,19
 238.989257812 752.299804688 238.989257812 752.299804688 231.989257812 752.299804688 c 4,20,21
 222.189453125 752.299804688 222.189453125 752.299804688 215.888671875 733.450195312 c 4,22,23
 209.588867188 714.600585938 209.588867188 714.600585938 209.588867188 700.299804688 c 4,24,25
 209.588867188 687.299804688 209.588867188 687.299804688 216.588867188 687.299804688 c 4,26,27
 222.189453125 687.299804688 222.189453125 687.299804688 223.588867188 697.049804688 c 4,28,29
 224.989257812 706.799804688 224.989257812 706.799804688 226.388671875 714.600585938 c 4,16,17
EndSplineSet
Refer: 83 113 N 1 0 0 1 0.000554694 0 2
EndChar

StartChar: R
Encoding: 82 82 58
Width: 600
Flags: W
LayerCount: 2
Fore
SplineSet
331 609 m 4,0,1
 304.400390625 609 304.400390625 609 288.299804688 625.25 c 132,-1,2
 272.200195312 641.5 272.200195312 641.5 272.200195312 668.799804688 c 4,3,4
 272.200195312 693.5 272.200195312 693.5 286.200195312 714.950195312 c 132,-1,5
 300.200195312 736.400390625 300.200195312 736.400390625 331 736.400390625 c 4,6,7
 363.200195312 736.400390625 363.200195312 736.400390625 380 716.25 c 132,-1,8
 396.799804688 696.100585938 396.799804688 696.100585938 396.799804688 668.799804688 c 4,9,10
 396.799804688 638.900390625 396.799804688 638.900390625 377.900390625 623.950195312 c 132,-1,11
 359 609 359 609 331 609 c 4,0,1
305.799804688 676.600585938 m 4,12,13
 307.200195312 690.900390625 307.200195312 690.900390625 312.799804688 702.600585938 c 132,-1,14
 318.400390625 714.299804688 318.400390625 714.299804688 311.400390625 714.299804688 c 4,15,16
 301.600585938 714.299804688 301.600585938 714.299804688 295.299804688 695.450195312 c 132,-1,17
 289 676.600585938 289 676.600585938 289 662.299804688 c 4,18,19
 289 649.299804688 289 649.299804688 296 649.299804688 c 4,20,21
 301.600585938 649.299804688 301.600585938 649.299804688 303 659.049804688 c 132,-1,22
 304.400390625 668.799804688 304.400390625 668.799804688 305.799804688 676.600585938 c 4,12,13
45 0 m 1,23,-1
 45 60 l 1,24,-1
 208 75 l 1,25,-1
 208 461 l 1,26,-1
 61 474 l 1,27,-1
 61 536 l 1,28,-1
 280 536 l 1,29,-1
 292 438 l 1,30,-1
 296 438 l 1,31,32
 324 491 324 491 357.5 518.5 c 128,-1,33
 391 546 391 546 446 546 c 0,34,35
 480 546 480 546 506.5 540 c 128,-1,36
 533 534 533 534 555 524 c 1,37,-1
 531 445 l 1,38,39
 515 454 515 454 493 460.5 c 128,-1,40
 471 467 471 467 446 467 c 0,41,42
 403 467 403 467 370 440 c 128,-1,43
 337 413 337 413 318 368 c 128,-1,44
 299 323 299 323 299 269 c 2,45,-1
 299 75 l 1,46,-1
 455 60 l 1,47,-1
 455 0 l 1,48,-1
 45 0 l 1,23,-1
EndSplineSet
EndChar

StartChar: S
Encoding: 83 83 59
Width: 600
Flags: W
LayerCount: 2
Fore
SplineSet
274.799804688 -4.01953125 m 4,0,1
 214.799804688 -4.01953125 214.799804688 -4.01953125 160.19921875 5.9697265625 c 132,-1,2
 105.599609375 15.9599609375 105.599609375 15.9599609375 66 33.7197265625 c 5,3,-1
 66 125.849609375 l 5,4,5
 108 108.08984375 108 108.08984375 159 93.10546875 c 132,-1,6
 210 78.1201171875 210 78.1201171875 280.799804688 78.1201171875 c 4,7,8
 360 78.1201171875 360 78.1201171875 393 100.875 c 132,-1,9
 426 123.629882812 426 123.629882812 426 166.919921875 c 4,10,11
 426 190.23046875 426 190.23046875 414.599609375 205.21484375 c 132,-1,12
 403.19921875 220.200195312 403.19921875 220.200195312 370.799804688 235.740234375 c 132,-1,13
 338.399414062 251.280273438 338.399414062 251.280273438 276 275.700195312 c 4,14,15
 213.599609375 301.23046875 213.599609375 301.23046875 169.19921875 323.4296875 c 132,-1,16
 124.799804688 345.629882812 124.799804688 345.629882812 100.799804688 376.155273438 c 132,-1,17
 76.7998046875 406.6796875 76.7998046875 406.6796875 76.7998046875 454.41015625 c 4,18,19
 76.7998046875 507.690429688 76.7998046875 507.690429688 106.19921875 542.655273438 c 132,-1,20
 135.599609375 577.620117188 135.599609375 577.620117188 191.399414062 595.379882812 c 132,-1,21
 247.19921875 613.139648438 247.19921875 613.139648438 324 613.139648438 c 4,22,23
 376.799804688 613.139648438 376.799804688 613.139648438 424.799804688 604.259765625 c 132,-1,24
 472.799804688 595.379882812 472.799804688 595.379882812 524.399414062 575.400390625 c 5,25,-1
 492 497.700195312 l 5,26,27
 444 516.5703125 444 516.5703125 403.799804688 523.23046875 c 132,-1,28
 363.599609375 529.889648438 363.599609375 529.889648438 324 529.889648438 c 4,29,30
 249.599609375 529.889648438 249.599609375 529.889648438 215.399414062 512.129882812 c 132,-1,31
 181.19921875 494.370117188 181.19921875 494.370117188 181.19921875 456.629882812 c 4,32,33
 181.19921875 432.209960938 181.19921875 432.209960938 196.19921875 415.559570312 c 132,-1,34
 211.19921875 398.91015625 211.19921875 398.91015625 245.399414062 383.370117188 c 132,-1,35
 279.599609375 367.830078125 279.599609375 367.830078125 336 345.629882812 c 4,36,37
 399.599609375 321.209960938 399.599609375 321.209960938 444 300.120117188 c 132,-1,38
 488.399414062 279.030273438 488.399414062 279.030273438 511.19921875 249.615234375 c 132,-1,39
 534 220.200195312 534 220.200195312 534 169.139648438 c 4,40,41
 534 112.530273438 534 112.530273438 504.599609375 74.2353515625 c 132,-1,42
 475.19921875 35.9404296875 475.19921875 35.9404296875 417.599609375 15.9599609375 c 132,-1,43
 360 -4.01953125 360 -4.01953125 274.799804688 -4.01953125 c 4,0,1
326 659.599609375 m 4,44,45
 299.400390625 659.599609375 299.400390625 659.599609375 283.299804688 675.849609375 c 132,-1,46
 267.200195312 692.099609375 267.200195312 692.099609375 267.200195312 719.399414062 c 4,47,48
 267.200195312 744.099609375 267.200195312 744.099609375 281.200195312 765.549804688 c 132,-1,49
 295.200195312 787 295.200195312 787 326 787 c 4,50,51
 358.200195312 787 358.200195312 787 375 766.849609375 c 132,-1,52
 391.799804688 746.700195312 391.799804688 746.700195312 391.799804688 719.399414062 c 4,53,54
 391.799804688 689.5 391.799804688 689.5 372.900390625 674.549804688 c 132,-1,55
 354 659.599609375 354 659.599609375 326 659.599609375 c 4,44,45
300.799804688 727.200195312 m 4,56,57
 302.200195312 741.5 302.200195312 741.5 307.799804688 753.200195312 c 132,-1,58
 313.400390625 764.899414062 313.400390625 764.899414062 306.400390625 764.899414062 c 4,59,60
 296.600585938 764.899414062 296.600585938 764.899414062 290.299804688 746.049804688 c 132,-1,61
 284 727.200195312 284 727.200195312 284 712.899414062 c 4,62,63
 284 699.899414062 284 699.899414062 291 699.899414062 c 4,64,65
 296.600585938 699.899414062 296.600585938 699.899414062 298 709.649414062 c 132,-1,66
 299.400390625 719.399414062 299.400390625 719.399414062 300.799804688 727.200195312 c 4,56,57
EndSplineSet
EndChar

StartChar: T
Encoding: 84 84 60
Width: 600
Flags: W
LayerCount: 2
Fore
SplineSet
317.544921875 0 m 4,0,1
 307.865234375 0 307.865234375 0 296.974609375 3 c 132,-1,2
 286.084960938 6 286.084960938 6 276.404296875 11 c 132,-1,3
 266.724609375 16 266.724609375 16 260.0703125 23.5 c 132,-1,4
 253.415039062 31 253.415039062 31 253.415039062 40 c 6,5,-1
 253.415039062 525 l 5,6,7
 191.705078125 525 191.705078125 525 131.205078125 525 c 4,8,9
 79.1748046875 525 79.1748046875 525 59.2099609375 529 c 132,-1,10
 39.2451171875 533 39.2451171875 533 25.330078125 542.5 c 132,-1,11
 11.4150390625 552 11.4150390625 552 11.4150390625 570 c 4,12,13
 11.4150390625 592 11.4150390625 592 28.3544921875 604 c 132,-1,14
 45.294921875 616 45.294921875 616 70.705078125 616 c 6,15,-1
 548.654296875 616 l 6,16,17
 568.015625 616 568.015625 616 578.299804688 602 c 132,-1,18
 588.584960938 588 588.584960938 588 588.584960938 574 c 4,19,20
 588.584960938 556 588.584960938 556 578.299804688 546.5 c 132,-1,21
 568.015625 537 568.015625 537 552.284179688 532 c 132,-1,22
 536.5546875 527 536.5546875 527 492.390625 526 c 132,-1,23
 448.224609375 525 448.224609375 525 399.825195312 525 c 6,24,-1
 390.145507812 525 l 5,25,-1
 390.145507812 47 l 6,26,27
 390.145507812 24 390.145507812 24 365.9453125 12 c 132,-1,28
 341.745117188 0 341.745117188 0 317.544921875 0 c 4,0,1
39.2451171875 553 m 260,29,30
 45.294921875 553 45.294921875 553 45.294921875 560 c 4,31,32
 45.294921875 568 45.294921875 568 48.9248046875 578.5 c 132,-1,33
 52.5546875 589 52.5546875 589 59.8154296875 598 c 4,34,35
 63.4453125 603 63.4453125 603 53.765625 603 c 4,36,37
 42.875 603 42.875 603 35.615234375 591.5 c 132,-1,38
 28.3544921875 580 28.3544921875 580 28.3544921875 569 c 4,39,40
 28.3544921875 565 28.3544921875 565 30.775390625 559 c 132,-1,41
 33.1953125 553 33.1953125 553 39.2451171875 553 c 260,29,30
294.5546875 23 m 4,42,43
 305.4453125 23 305.4453125 23 305.4453125 32 c 4,44,45
 305.4453125 36 305.4453125 36 300.604492188 37 c 4,46,47
 293.345703125 39 293.345703125 39 290.3203125 49.5 c 132,-1,48
 287.294921875 60 287.294921875 60 287.294921875 65 c 4,49,50
 287.294921875 67 287.294921875 67 287.900390625 73 c 132,-1,51
 288.504882812 79 288.504882812 79 288.504882812 85 c 132,-1,52
 288.504882812 91 288.504882812 91 287.294921875 95.5 c 132,-1,53
 286.084960938 100 286.084960938 100 281.245117188 100 c 260,54,55
 276.404296875 100 276.404296875 100 273.984375 96 c 132,-1,56
 271.565429688 92 271.565429688 92 270.354492188 86.5 c 132,-1,57
 269.145507812 81 269.145507812 81 268.540039062 75.5 c 132,-1,58
 267.934570312 70 267.934570312 70 267.934570312 68 c 4,59,60
 267.934570312 64 267.934570312 64 269.145507812 56 c 132,-1,61
 270.354492188 48 270.354492188 48 273.379882812 41 c 132,-1,62
 276.404296875 34 276.404296875 34 281.849609375 28.5 c 132,-1,63
 287.294921875 23 287.294921875 23 294.5546875 23 c 4,42,43
EndSplineSet
EndChar

StartChar: U
Encoding: 85 85 61
Width: 600
Flags: W
LayerCount: 2
Fore
SplineSet
233.491210938 -4 m 0,0,1
 187.991210938 -4 187.991210938 -4 151.991210938 12.5 c 0,2,3
 106.225585938 32.9990234375 106.225585938 32.9990234375 90.4912109375 58.5 c 0,4,5
 43.9912109375 129 43.9912109375 129 51.9912109375 129.5 c 0,6,7
 53.6982421875 132.6171875 53.6982421875 132.6171875 38.4912109375 221 c 2,8,-1
 38.4912109375 530 l 2,9,10
 38.9912109375 536 38.9912109375 536 40.4912109375 555 c 0,11,12
 41.9912109375 570 41.9912109375 570 48.4912109375 583.5 c 0,13,14
 53.9912109375 597 53.9912109375 597 64.9912109375 606.5 c 128,-1,15
 75.9912109375 616 75.9912109375 616 91.4912109375 616 c 0,16,17
 134.991210938 616 134.991210938 616 138.491210938 599 c 0,18,19
 151.991210938 530 151.991210938 530 152.491210938 528 c 2,20,-1
 152.491210938 228 l 2,21,22
 151.991210938 204 151.991210938 204 152.491210938 179.5 c 0,23,24
 151.991210938 155 151.991210938 155 159.991210938 135.5 c 128,-1,25
 167.991210938 116 167.991210938 116 203.991210938 103.5 c 128,-1,26
 239.991210938 91 239.991210938 91 319.491210938 91 c 128,-1,27
 398.991210938 91 398.991210938 91 415.491210938 110 c 0,28,29
 432.991210938 129 432.991210938 129 439.991210938 157.5 c 128,-1,30
 446.991210938 186 446.991210938 186 447.991210938 220 c 0,31,32
 447.991210938 237 447.991210938 237 448.491210938 284 c 2,33,-1
 448.491210938 531 l 2,34,35
 447.991210938 543 447.991210938 543 450.491210938 556 c 0,36,37
 452.991210938 571 452.991210938 571 457.991210938 584.5 c 128,-1,38
 462.991210938 598 462.991210938 598 472.991210938 608 c 128,-1,39
 482.991210938 618 482.991210938 618 498.491210938 618 c 0,40,41
 546.991210938 618 546.991210938 618 553.491210938 597.5 c 0,42,43
 561.491210938 573.5 561.491210938 573.5 561.491210938 532 c 2,44,-1
 561.491210938 246 l 2,45,46
 561.991210938 189 561.991210938 189 548.991210938 143 c 0,47,48
 536.991210938 97 536.991210938 97 510.991210938 64.5 c 128,-1,49
 484.991210938 32 484.991210938 32 448.491210938 14 c 0,50,51
 410.991210938 -4 410.991210938 -4 233.491210938 -4 c 0,0,1
476.491210938 556 m 0,52,53
 476.991210938 560 476.991210938 560 479.491210938 568 c 0,54,55
 482.991210938 576 482.991210938 576 489.491210938 584 c 0,56,57
 496.991210938 595 496.991210938 595 497.991210938 599 c 128,-1,58
 498.991210938 603 498.991210938 603 489.491210938 603 c 0,59,60
 484.991210938 603 484.991210938 603 479.991210938 598 c 128,-1,61
 474.991210938 593 474.991210938 593 472.491210938 588 c 0,62,63
 470.991210938 583 470.991210938 583 466.991210938 575 c 0,64,65
 461.991210938 565 461.991210938 565 462.491210938 558 c 0,66,67
 462.991210938 553 462.991210938 553 463.491210938 548.5 c 0,68,69
 464.991210938 544 464.991210938 544 469.491210938 544 c 256,70,71
 474.991210938 544 474.991210938 544 475.491210938 547.5 c 128,-1,72
 475.991210938 551 475.991210938 551 476.491210938 556 c 0,52,53
80.4912109375 570 m 0,73,74
 84.9912109375 579 84.9912109375 579 89.9912109375 585 c 0,75,76
 95.9912109375 592 95.9912109375 592 95.4912109375 598 c 0,77,78
 94.9912109375 603 94.9912109375 603 92.4912109375 603 c 256,79,80
 88.9912109375 603 88.9912109375 603 83.4912109375 600.5 c 0,81,82
 76.9912109375 598 76.9912109375 598 72.4912109375 590 c 0,83,84
 56.9912109375 569 56.9912109375 569 55.4912109375 552 c 0,85,86
 52.9912109375 535 52.9912109375 535 59.4912109375 535 c 0,87,88
 64.9912109375 535 64.9912109375 535 69.9912109375 545.5 c 0,89,90
 73.9912109375 556 73.9912109375 556 80.4912109375 570 c 0,73,74
149.491210938 48 m 0,91,92
 148.991210938 51 148.991210938 51 141.991210938 57 c 128,-1,93
 134.991210938 63 134.991210938 63 126.491210938 72 c 0,94,95
 118.991210938 80 118.991210938 80 107.991210938 93.5 c 0,96,97
 101.991210938 100 101.991210938 100 90.4912109375 122 c 0,98,99
 84.9912109375 132 84.9912109375 132 80.9912109375 136 c 128,-1,100
 76.9912109375 140 76.9912109375 140 74.4912109375 140 c 0,101,102
 70.9912109375 140 70.9912109375 140 70.4912109375 133 c 0,103,104
 70.9912109375 125 70.9912109375 125 78.4912109375 109.5 c 0,105,106
 86.9912109375 94 86.9912109375 94 97.4912109375 79 c 0,107,108
 108.991210938 64 108.991210938 64 120.991210938 53 c 128,-1,109
 132.991210938 42 132.991210938 42 143.491210938 42 c 0,110,111
 150.991210938 42 150.991210938 42 149.491210938 48 c 0,91,92
172.491210938 39 m 0,112,113
 172.991210938 40 172.991210938 40 169.991210938 43 c 128,-1,114
 166.991210938 46 166.991210938 46 164.491210938 46 c 0,115,116
 158.991210938 45 158.991210938 45 157.491210938 42 c 0,117,118
 154.991210938 39 154.991210938 39 155.491210938 37 c 0,119,120
 156.991210938 34 156.991210938 34 157.491210938 31.5 c 0,121,122
 158.991210938 29 158.991210938 29 163.491210938 30 c 0,123,124
 167.991210938 30 167.991210938 30 172.491210938 39 c 0,112,113
EndSplineSet
EndChar

StartChar: V
Encoding: 86 86 62
Width: 600
Flags: W
LayerCount: 2
Fore
SplineSet
284.5 641 m 4,0,1
 257.900390625 641 257.900390625 641 241.799804688 657.25 c 4,2,3
 225.700195312 673.5 225.700195312 673.5 225.700195312 700.799804688 c 4,4,5
 225.700195312 725.5 225.700195312 725.5 239.700195312 746.950195312 c 4,6,7
 253.700195312 768.400390625 253.700195312 768.400390625 284.5 768.400390625 c 4,8,9
 316.700195312 768.400390625 316.700195312 768.400390625 333.5 748.25 c 4,10,11
 350.299804688 728.100585938 350.299804688 728.100585938 350.299804688 700.799804688 c 4,12,13
 350.299804688 670.900390625 350.299804688 670.900390625 331.400390625 655.950195312 c 4,14,15
 312.5 641 312.5 641 284.5 641 c 4,0,1
259.299804688 708.600585938 m 4,16,17
 260.700195312 722.900390625 260.700195312 722.900390625 266.299804688 734.600585938 c 4,18,19
 271.900390625 746.299804688 271.900390625 746.299804688 264.900390625 746.299804688 c 4,20,21
 255.100585938 746.299804688 255.100585938 746.299804688 248.799804688 727.450195312 c 4,22,23
 242.5 708.600585938 242.5 708.600585938 242.5 694.299804688 c 4,24,25
 242.5 681.299804688 242.5 681.299804688 249.5 681.299804688 c 4,26,27
 255.100585938 681.299804688 255.100585938 681.299804688 256.5 691.049804688 c 4,28,29
 257.900390625 700.799804688 257.900390625 700.799804688 259.299804688 708.600585938 c 4,16,17
EndSplineSet
Refer: 88 118 S 1 0 0 1 0 0 2
EndChar

StartChar: W
Encoding: 87 87 63
Width: 600
Flags: W
LayerCount: 2
Fore
SplineSet
578.459960938 538 m 5,0,-1
 29.7001953125 538 l 5,1,-1
 29.7001953125 617 l 5,2,-1
 578.459960938 617 l 5,3,-1
 578.459960938 538 l 5,0,-1
405.059570312 0 m 4,4,5
 381.599609375 0 381.599609375 0 364.76953125 6 c 132,-1,6
 347.940429688 12 347.940429688 12 336.209960938 23.5 c 132,-1,7
 324.48046875 35 324.48046875 35 316.3203125 51 c 4,8,9
 304.080078125 75 304.080078125 75 301.01953125 87 c 4,10,11
 300 91 300 91 298.98046875 97 c 132,-1,12
 297.959960938 103 297.959960938 103 296.4296875 109 c 132,-1,13
 294.900390625 115 294.900390625 115 293.370117188 119 c 132,-1,14
 291.83984375 123 291.83984375 123 289.799804688 123 c 260,15,16
 287.759765625 123 287.759765625 123 285.719726562 115.5 c 132,-1,17
 283.6796875 108 283.6796875 108 279.599609375 97 c 4,18,19
 269.400390625 71 269.400390625 71 260.219726562 52.5 c 132,-1,20
 251.040039062 34 251.040039062 34 239.309570312 22.5 c 132,-1,21
 227.580078125 11 227.580078125 11 213.299804688 5.5 c 132,-1,22
 199.01953125 0 199.01953125 0 178.620117188 0 c 4,23,24
 137.8203125 0 137.8203125 0 107.73046875 13.5 c 132,-1,25
 77.6396484375 27 77.6396484375 27 58.259765625 51.5 c 132,-1,26
 38.8798828125 76 38.8798828125 76 29.7001953125 109.5 c 132,-1,27
 20.51953125 143 20.51953125 143 20.51953125 183 c 6,28,-1
 20.51953125 522 l 6,29,30
 20.51953125 532 20.51953125 532 23.580078125 545.5 c 132,-1,31
 26.6396484375 559 26.6396484375 559 33.7802734375 571 c 132,-1,32
 40.919921875 583 40.919921875 583 52.650390625 591.5 c 132,-1,33
 64.3798828125 600 64.3798828125 600 82.740234375 600 c 4,34,35
 112.3203125 600 112.3203125 600 123.540039062 579.5 c 132,-1,36
 134.661132812 559.1796875 134.661132812 559.1796875 134.759765625 527 c 6,37,-1
 135.780273438 193 l 6,38,39
 135.780273438 183 135.780273438 183 137.8203125 166.5 c 132,-1,40
 139.860351562 150 139.860351562 150 144.450195312 134 c 132,-1,41
 149.040039062 118 149.040039062 118 158.219726562 106.5 c 132,-1,42
 167.400390625 95 167.400390625 95 180.66015625 95 c 4,43,44
 204.120117188 95 204.120117188 95 217.889648438 129 c 132,-1,45
 231.66015625 163 231.66015625 163 238.799804688 219 c 132,-1,46
 245.940429688 275 245.940429688 275 247.469726562 285.5 c 132,-1,47
 249 296 249 296 249 372 c 4,48,49
 249 436 249 436 259.200195312 460.5 c 132,-1,50
 269.400390625 485 269.400390625 485 300 485 c 4,51,52
 314.280273438 485 314.280273438 485 323.459960938 480 c 132,-1,53
 332.639648438 475 332.639648438 475 338.759765625 459 c 132,-1,54
 344.879882812 443 344.879882812 443 347.4296875 413 c 132,-1,55
 349.98046875 383 349.98046875 383 349.98046875 333 c 4,56,57
 349.98046875 271 l 4,58,-1
 351.509765625 236.5 l 4,59,60
 353.040039062 202 353.040039062 202 355.58984375 181.5 c 132,-1,61
 358.139648438 161 358.139648438 161 363.240234375 146 c 4,62,63
 372.419921875 117 372.419921875 117 382.620117188 105.5 c 132,-1,64
 392.8203125 94 392.8203125 94 406.080078125 94 c 4,65,66
 466.259765625 94 466.259765625 94 466.259765625 239 c 6,67,-1
 466.259765625 539 l 6,68,69
 466.259765625 550 466.259765625 550 468.299804688 561 c 132,-1,70
 470.33984375 572 470.33984375 572 475.950195312 580.5 c 132,-1,71
 481.559570312 589 481.559570312 589 491.759765625 594.5 c 132,-1,72
 501.959960938 600 501.959960938 600 517.259765625 600 c 4,73,74
 549.900390625 600 549.900390625 600 564.690429688 582.5 c 132,-1,75
 579.48046875 565 579.48046875 565 579.48046875 539 c 6,76,-1
 579.48046875 220 l 6,77,78
 579.48046875 178 579.48046875 178 567.75 138.5 c 132,-1,79
 556.01953125 99 556.01953125 99 534.08984375 68 c 132,-1,80
 512.16015625 37 512.16015625 37 479.51953125 18.5 c 132,-1,81
 446.879882812 0 446.879882812 0 405.059570312 0 c 4,4,5
46.01953125 515 m 4,82,83
 53.16015625 515 53.16015625 515 55.7099609375 522 c 132,-1,84
 58.259765625 529 58.259765625 529 59.2802734375 534 c 4,85,86
 61.3203125 548 61.3203125 548 70.5 557.5 c 4,87,88
 85.7998046875 573 85.7998046875 573 85.7998046875 579 c 4,89,90
 85.7998046875 581 85.7998046875 581 83.759765625 584 c 132,-1,91
 81.7197265625 587 81.7197265625 587 78.66015625 587 c 4,92,93
 72.5400390625 587 72.5400390625 587 65.400390625 580.5 c 132,-1,94
 58.259765625 574 58.259765625 574 52.1396484375 565 c 132,-1,95
 46.01953125 556 46.01953125 556 42.4501953125 545.5 c 132,-1,96
 38.8798828125 535 38.8798828125 535 38.8798828125 527 c 4,97,98
 38.8798828125 523 38.8798828125 523 39.900390625 519 c 132,-1,99
 40.919921875 515 40.919921875 515 46.01953125 515 c 4,82,83
499.919921875 533 m 4,100,101
 499.919921875 543 499.919921875 543 502.98046875 551 c 132,-1,102
 506.040039062 559 506.040039062 559 510.120117188 566 c 4,103,104
 515.219726562 574 515.219726562 574 514.200195312 579 c 132,-1,105
 513.1796875 584 513.1796875 584 510.120117188 584 c 4,106,107
 505.01953125 584 505.01953125 584 498.389648438 580.5 c 132,-1,108
 491.759765625 577 491.759765625 577 487.6796875 567 c 4,109,110
 482.580078125 551 482.580078125 551 484.110351562 536 c 132,-1,111
 485.639648438 521 485.639648438 521 493.799804688 521 c 4,112,113
 495.83984375 521 495.83984375 521 497.879882812 524.5 c 132,-1,114
 499.919921875 528 499.919921875 528 499.919921875 533 c 4,100,101
276.540039062 421 m 4,115,116
 276.540039062 422 276.540039062 422 278.580078125 431.5 c 132,-1,117
 280.620117188 441 280.620117188 441 283.6796875 447 c 4,118,119
 290.8203125 460 290.8203125 460 292.860351562 465 c 132,-1,120
 294.900390625 470 294.900390625 470 291.83984375 470 c 4,121,122
 289.799804688 470 289.799804688 470 284.190429688 468 c 132,-1,123
 278.580078125 466 278.580078125 466 273.48046875 459 c 4,124,125
 262.259765625 444 262.259765625 444 262.76953125 427 c 132,-1,126
 263.280273438 410 263.280273438 410 271.440429688 410 c 4,127,128
 276.540039062 410 276.540039062 410 276.540039062 421 c 4,115,116
124.559570312 37 m 4,129,130
 123.540039062 42 123.540039062 42 110.280273438 51 c 132,-1,131
 97.01953125 60 97.01953125 60 90.900390625 67 c 4,132,133
 79.6796875 78 79.6796875 78 75.08984375 89 c 132,-1,134
 70.5 100 70.5 100 65.400390625 99 c 4,135,136
 61.3203125 99 61.3203125 99 61.830078125 92 c 132,-1,137
 62.33984375 85 62.33984375 85 66.9296875 75 c 132,-1,138
 71.51953125 65 71.51953125 65 80.7001953125 54 c 132,-1,139
 89.8798828125 43 89.8798828125 43 103.139648438 34 c 4,140,141
 112.3203125 27 112.3203125 27 119.459960938 29 c 4,142,143
 124.559570312 29 124.559570312 29 124.559570312 37 c 4,129,130
395.879882812 22 m 4,144,145
 395.879882812 26 395.879882812 26 392.309570312 27 c 132,-1,146
 388.740234375 28 388.740234375 28 385.6796875 28 c 4,147,148
 380.580078125 29 380.580078125 29 370.379882812 38 c 132,-1,149
 360.1796875 47 360.1796875 47 354.059570312 57 c 4,150,151
 343.860351562 72 343.860351562 72 335.700195312 74 c 4,152,153
 332.639648438 74 332.639648438 74 332.639648438 69 c 4,154,155
 332.639648438 67 332.639648438 67 336.209960938 59 c 132,-1,156
 339.780273438 51 339.780273438 51 346.919921875 42 c 132,-1,157
 354.059570312 33 354.059570312 33 363.75 25.5 c 132,-1,158
 373.440429688 18 373.440429688 18 384.66015625 17 c 4,159,160
 388.740234375 17 388.740234375 17 391.799804688 17 c 132,-1,161
 394.860351562 17 394.860351562 17 395.879882812 22 c 4,144,145
EndSplineSet
EndChar

StartChar: X
Encoding: 88 88 64
Width: 600
Flags: W
LayerCount: 2
Fore
SplineSet
69.6552734375 -3 m 0,0,1
 49.525390625 -3 49.525390625 -3 34.0927734375 7.5 c 128,-1,2
 18.6591796875 18 18.6591796875 18 18.6591796875 29 c 0,3,4
 18.6591796875 36 18.6591796875 36 24.0283203125 43 c 2,5,-1
 197.146484375 265 l 2,6,7
 218.6171875 293 218.6171875 293 218.6171875 304 c 0,8,9
 218.6171875 310 218.6171875 310 213.25 318.5 c 128,-1,10
 207.881835938 327 207.881835938 327 201.171875 335 c 2,11,-1
 50.8671875 526 l 2,12,13
 44.158203125 535 44.158203125 535 38.119140625 547 c 128,-1,14
 32.0791015625 559 32.0791015625 559 32.0791015625 574 c 0,15,16
 32.0791015625 588 32.0791015625 588 51.5390625 602 c 128,-1,17
 70.9970703125 616 70.9970703125 616 107.231445312 616 c 0,18,19
 115.284179688 616 115.284179688 616 122.665039062 614 c 128,-1,20
 130.045898438 612 130.045898438 612 138.09765625 606 c 128,-1,21
 146.149414062 600 146.149414062 600 155.543945312 589.5 c 128,-1,22
 164.9375 579 164.9375 579 178.357421875 562 c 2,23,-1
 283.034179688 430 l 2,24,25
 291.084960938 420 291.084960938 420 295.783203125 414 c 128,-1,26
 300.479492188 408 300.479492188 408 303.1640625 408 c 256,27,28
 305.84765625 408 305.84765625 408 321.952148438 430 c 2,29,-1
 449.44140625 602 l 2,30,31
 454.809570312 610 454.809570312 610 464.203125 613 c 128,-1,32
 473.59765625 616 473.59765625 616 482.991210938 616 c 256,33,34
 492.385742188 616 492.385742188 616 507.818359375 613 c 128,-1,35
 523.251953125 610 523.251953125 610 536.671875 603 c 128,-1,36
 550.091796875 596 550.091796875 596 556.130859375 586 c 128,-1,37
 562.169921875 576 562.169921875 576 551.43359375 561 c 2,38,-1
 399.788085938 353 l 2,39,40
 378.31640625 324 378.31640625 324 378.31640625 316 c 0,41,42
 378.31640625 312 378.31640625 312 387.0390625 301.5 c 128,-1,43
 395.76171875 291 395.76171875 291 414.549804688 265 c 2,44,-1
 579.616210938 43 l 2,45,46
 583.641601562 39 583.641601562 39 578.2734375 31.5 c 128,-1,47
 572.905273438 24 572.905273438 24 560.828125 17 c 128,-1,48
 548.75 10 548.75 10 531.302734375 5 c 128,-1,49
 513.857421875 0 513.857421875 0 493.728515625 0 c 0,50,51
 487.017578125 0 487.017578125 0 476.953125 2 c 128,-1,52
 466.887695312 4 466.887695312 4 461.51953125 11 c 2,53,-1
 323.293945312 189 l 2,54,55
 316.583984375 198 316.583984375 198 310.544921875 205.5 c 128,-1,56
 304.505859375 213 304.505859375 213 299.137695312 213 c 256,57,58
 293.76953125 213 293.76953125 213 289.072265625 207 c 128,-1,59
 284.375976562 201 284.375976562 201 272.296875 186 c 2,60,-1
 147.491210938 34 l 2,61,62
 130.045898438 13 130.045898438 13 111.2578125 5 c 128,-1,63
 92.4697265625 -3 92.4697265625 -3 69.6552734375 -3 c 0,0,1
474.940429688 576 m 0,64,65
 474.940429688 582 474.940429688 582 489.702148438 593 c 256,66,67
 504.463867188 604 504.463867188 604 496.411132812 604 c 0,68,69
 489.702148438 604 489.702148438 604 481.649414062 601.5 c 128,-1,70
 473.59765625 599 473.59765625 599 466.887695312 591 c 0,71,72
 458.834960938 580 458.834960938 580 460.848632812 575.5 c 128,-1,73
 462.861328125 571 462.861328125 571 466.887695312 571 c 0,74,75
 474.940429688 571 474.940429688 571 474.940429688 576 c 0,64,65
73.681640625 563 m 0,76,77
 73.681640625 575 73.681640625 575 81.0625 579.5 c 128,-1,78
 88.443359375 584 88.443359375 584 87.1015625 588 c 0,79,80
 84.41796875 596 84.41796875 596 75.0234375 596 c 0,81,82
 69.6552734375 596 69.6552734375 596 64.2880859375 590.5 c 128,-1,83
 58.919921875 585 58.919921875 585 56.2353515625 577 c 128,-1,84
 53.5517578125 569 53.5517578125 569 54.22265625 560 c 128,-1,85
 54.8935546875 551 54.8935546875 551 60.26171875 544 c 0,86,87
 65.62890625 538 65.62890625 538 70.9970703125 539 c 0,88,89
 77.7080078125 541 77.7080078125 541 75.6953125 549.5 c 128,-1,90
 73.681640625 558 73.681640625 558 73.681640625 563 c 0,76,77
503.122070312 13 m 0,91,92
 507.147460938 18 507.147460938 18 488.359375 27 c 0,93,94
 484.333984375 29 484.333984375 29 478.965820312 34.5 c 128,-1,95
 473.59765625 40 473.59765625 40 469.572265625 46 c 128,-1,96
 465.545898438 52 465.545898438 52 461.51953125 57 c 128,-1,97
 457.494140625 62 457.494140625 62 454.809570312 62 c 0,98,99
 448.099609375 62 448.099609375 62 448.099609375 56 c 0,100,101
 448.099609375 52 448.099609375 52 451.454101562 45 c 128,-1,102
 454.809570312 38 454.809570312 38 460.848632812 30.5 c 128,-1,103
 466.887695312 23 466.887695312 23 474.268554688 17 c 128,-1,104
 481.649414062 11 481.649414062 11 489.702148438 10 c 0,105,106
 493.728515625 10 493.728515625 10 498.424804688 10 c 128,-1,107
 503.122070312 10 503.122070312 10 503.122070312 13 c 0,91,92
57.578125 20 m 0,108,109
 54.8935546875 24 54.8935546875 24 48.8544921875 30 c 128,-1,110
 42.81640625 36 42.81640625 36 45.5 41 c 0,111,112
 48.18359375 49 48.18359375 49 44.828125 49 c 128,-1,113
 41.4736328125 49 41.4736328125 49 37.447265625 43 c 0,114,115
 32.0791015625 35 32.0791015625 35 36.77734375 25 c 128,-1,116
 41.4736328125 15 41.4736328125 15 48.18359375 13 c 0,117,118
 53.5517578125 11 53.5517578125 11 57.578125 12.5 c 128,-1,119
 61.603515625 14 61.603515625 14 57.578125 20 c 0,108,109
287.02734375 641 m 0,120,121
 257.767578125 641 257.767578125 641 240.056640625 657.25 c 128,-1,122
 222.34765625 673.5 222.34765625 673.5 222.34765625 700.799804688 c 0,123,124
 222.34765625 725.5 222.34765625 725.5 237.747070312 746.950195312 c 128,-1,125
 253.147460938 768.400390625 253.147460938 768.400390625 287.02734375 768.400390625 c 0,126,127
 322.447265625 768.400390625 322.447265625 768.400390625 340.926757812 748.25 c 128,-1,128
 359.40625 728.100585938 359.40625 728.100585938 359.40625 700.799804688 c 0,129,130
 359.40625 670.900390625 359.40625 670.900390625 338.6171875 655.950195312 c 128,-1,131
 317.827148438 641 317.827148438 641 287.02734375 641 c 0,120,121
259.306640625 708.600585938 m 0,132,133
 260.84765625 722.900390625 260.84765625 722.900390625 267.006835938 734.600585938 c 128,-1,134
 273.166992188 746.299804688 273.166992188 746.299804688 265.467773438 746.299804688 c 0,135,136
 254.6875 746.299804688 254.6875 746.299804688 247.756835938 727.450195312 c 128,-1,137
 240.827148438 708.600585938 240.827148438 708.600585938 240.827148438 694.299804688 c 0,138,139
 240.827148438 681.299804688 240.827148438 681.299804688 248.52734375 681.299804688 c 0,140,141
 254.6875 681.299804688 254.6875 681.299804688 256.2265625 691.049804688 c 128,-1,142
 257.767578125 700.799804688 257.767578125 700.799804688 259.306640625 708.600585938 c 0,132,133
EndSplineSet
EndChar

StartChar: Y
Encoding: 89 89 65
Width: 600
Flags: W
LayerCount: 2
Fore
SplineSet
298.818359375 0 m 4,0,1
 267.182617188 0 267.182617188 0 251.41796875 16.5 c 4,2,3
 235.217773438 32.5673828125 235.217773438 32.5673828125 235.217773438 52 c 6,4,-1
 235.217773438 191 l 6,5,6
 234.782226562 206 234.782226562 206 233.41796875 214.5 c 4,7,8
 231.182617188 225 231.182617188 225 227.41796875 236 c 4,9,10
 222.782226562 247 222.782226562 247 216.018554688 260.5 c 4,11,12
 199.982421875 290 199.982421875 290 198.018554688 294 c 6,13,-1
 20.41796875 556 l 6,14,15
 16.3818359375 562 16.3818359375 562 19.818359375 573.5 c 4,16,17
 22.3818359375 584 22.3818359375 584 31.818359375 593.5 c 4,18,19
 40.3818359375 603 40.3818359375 603 55.2177734375 609.5 c 4,20,21
 69.1826171875 616 69.1826171875 616 88.818359375 616 c 4,22,23
 102.782226562 616 102.782226562 616 109.818359375 611.5 c 4,24,25
 118.8203125 605.71875 118.8203125 605.71875 126.018554688 595 c 6,26,-1
 272.41796875 377 l 6,27,28
 277.982421875 367 277.982421875 367 286.217773438 354 c 4,29,30
 293.58203125 342 293.58203125 342 301.217773438 342 c 260,31,32
 318.782226562 342 318.782226562 342 315.618164062 351.5 c 4,33,34
 315.056640625 353.431640625 315.056640625 353.431640625 331.217773438 377 c 6,35,-1
 489.618164062 608 l 6,36,37
 497.58203125 619 497.58203125 619 507.618164062 621.5 c 4,38,39
 519.182617188 624 519.182617188 624 528.018554688 624 c 4,40,41
 543.182617188 624 543.182617188 624 555.018554688 617 c 4,42,43
 565.982421875 610 565.982421875 610 573.018554688 600 c 4,44,45
 579.182617188 590 579.182617188 590 581.41796875 579 c 4,46,47
 582.834960938 566.540039062 582.834960938 566.540039062 578.41796875 560 c 6,48,-1
 390.018554688 281 l 6,49,50
 387.182617188 275 387.182617188 275 376.818359375 255.5 c 4,51,52
 371.58203125 245 371.58203125 245 370.217773438 234 c 4,53,54
 367.982421875 210 367.982421875 210 367.818359375 209.5 c 4,55,56
 367.217773438 209.209960938 367.217773438 209.209960938 367.217773438 174 c 6,57,-1
 367.217773438 52 l 6,58,59
 366.782226562 36 366.782226562 36 360.618164062 27 c 4,60,61
 353.58203125 17 353.58203125 17 343.818359375 11 c 4,62,63
 333.182617188 5 333.182617188 5 321.618164062 2.5 c 4,64,65
 309.182617188 0 309.182617188 0 298.818359375 0 c 4,0,1
57.6181640625 551 m 4,66,67
 54.7822265625 559 54.7822265625 559 55.818359375 564.5 c 4,68,69
 55.982421875 570 55.982421875 570 55.2177734375 575 c 260,70,71
 53.58203125 580 53.58203125 580 51.6181640625 584 c 4,72,73
 48.7822265625 588 48.7822265625 588 46.818359375 587 c 4,74,75
 33.1826171875 582 33.1826171875 582 35.41796875 568 c 4,76,77
 36.7822265625 554 36.7822265625 554 40.818359375 546 c 4,78,79
 47.58203125 534 47.58203125 534 55.2177734375 537 c 4,80,81
 59.58203125 539 59.58203125 539 60.0185546875 543 c 4,82,83
 59.58203125 547 59.58203125 547 57.6181640625 551 c 4,66,67
279.618164062 33 m 4,84,85
 277.217773438 37 277.217773438 37 273.018554688 47 c 132,-1,86
 268.818359375 57 268.818359375 57 266.41796875 74 c 4,87,88
 265.217773438 97 265.217773438 97 260.41796875 97 c 4,89,90
 259.217773438 97 259.217773438 97 256.818359375 93.5 c 132,-1,91
 254.41796875 90 254.41796875 90 253.217773438 81 c 4,92,93
 250.818359375 49 250.818359375 49 259.818359375 35 c 132,-1,94
 268.818359375 21 268.818359375 21 279.618164062 21 c 4,95,96
 284.41796875 21 284.41796875 21 283.217773438 24.5 c 132,-1,97
 282.018554688 28 282.018554688 28 279.618164062 33 c 4,84,85
EndSplineSet
EndChar

StartChar: Z
Encoding: 90 90 66
Width: 600
Flags: W
LayerCount: 2
Fore
SplineSet
5.75 0 m 5,0,-1
 5.75 61 l 5,1,-1
 478.75 467 l 5,2,-1
 23.349609375 467 l 5,3,-1
 23.349609375 536 l 5,4,-1
 585.450195312 536 l 5,5,-1
 585.450195312 465 l 5,6,-1
 123.450195312 76 l 5,7,-1
 594.25 76 l 5,8,-1
 594.25 0 l 5,9,-1
 5.75 0 l 5,0,-1
EndSplineSet
EndChar

StartChar: a
Encoding: 97 97 67
Width: 600
Flags: W
LayerCount: 2
Fore
SplineSet
114.796875 77 m 4,0,1
 102.5859375 93 102.5859375 93 93.427734375 108.5 c 132,-1,2
 84.26953125 124 84.26953125 124 82.2333984375 139 c 4,3,4
 79.181640625 153 79.181640625 153 73.0751953125 152 c 4,5,6
 64.93359375 152 64.93359375 152 67.9873046875 134 c 4,7,8
 69.0048828125 125 69.0048828125 125 73.583984375 112 c 132,-1,9
 78.1630859375 99 78.1630859375 99 84.26953125 88 c 132,-1,10
 90.3740234375 77 90.3740234375 77 98.515625 69.5 c 132,-1,11
 106.655273438 62 106.655273438 62 115.814453125 63 c 4,12,13
 123.955078125 65 123.955078125 65 114.796875 77 c 4,0,1
228.258789062 -1 m 4,14,15
 165.676757812 -1 165.676757812 -1 118.358398438 30.5 c 4,16,17
 70.0224609375 62 70.0224609375 62 43.564453125 123.5 c 132,-1,18
 17.107421875 185 17.107421875 185 16.5986328125 274 c 4,19,20
 17.107421875 368 17.107421875 368 50.1787109375 433.5 c 4,21,22
 84.26953125 499 84.26953125 499 139.21875 534 c 132,-1,23
 194.168945312 569 194.168945312 569 258.787109375 569 c 4,24,25
 293.89453125 569 293.89453125 569 326.45703125 555 c 132,-1,26
 359.021484375 541 359.021484375 541 386.49609375 509.5 c 132,-1,27
 413.970703125 478 413.970703125 478 428.7265625 426 c 5,28,-1
 431.778320312 426 l 5,29,-1
 455.184570312 509 l 5,30,-1
 546.767578125 509 l 5,31,32
 536.083007812 456 536.083007812 456 523.872070312 420 c 132,-1,33
 511.661132812 384 511.661132812 384 501.484375 326.5 c 132,-1,34
 491.30859375 269 491.30859375 269 484.185546875 218.5 c 4,35,36
 478.080078125 178 478.080078125 178 477.571289062 131 c 4,37,38
 477.0625 104 477.0625 104 493.344726562 89.5 c 132,-1,39
 509.625976562 75 509.625976562 75 532.521484375 75 c 4,40,41
 542.189453125 75 542.189453125 75 551.85546875 77 c 4,42,43
 562.541015625 79 562.541015625 79 570.172851562 83 c 5,44,-1
 583.401367188 13 l 5,45,46
 572.716796875 8 572.716796875 8 554.909179688 3.5 c 4,47,48
 538.118164062 -1 538.118164062 -1 513.1875 -1 c 4,49,50
 464.850585938 -1 464.850585938 -1 434.323242188 25.5 c 132,-1,51
 403.794921875 52 403.794921875 52 404.3046875 109 c 5,52,-1
 400.233398438 109 l 5,53,54
 336.633789062 -1 336.633789062 -1 228.258789062 -1 c 4,14,15
247.59375 76 m 4,55,56
 284.227539062 76 284.227539062 76 317.298828125 98.5 c 132,-1,57
 350.37109375 121 350.37109375 121 372.758789062 159.5 c 132,-1,58
 395.145507812 198 395.145507812 198 398.198242188 244 c 6,59,-1
 407.356445312 347 l 5,60,61
 395.145507812 391 395.145507812 391 379.372070312 419.5 c 132,-1,62
 363.599609375 448 363.599609375 448 345.283203125 464 c 132,-1,63
 326.965820312 480 326.965820312 480 307.123046875 486 c 132,-1,64
 287.280273438 492 287.280273438 492 267.946289062 492 c 4,65,66
 228.258789062 492 228.258789062 492 192.643554688 467.5 c 132,-1,67
 157.02734375 443 157.02734375 443 134.639648438 395 c 132,-1,68
 112.252929688 347 112.252929688 347 112.252929688 275 c 4,69,70
 112.252929688 180 112.252929688 180 148.376953125 128 c 132,-1,71
 184.502929688 76 184.502929688 76 247.59375 76 c 4,55,56
EndSplineSet
EndChar

StartChar: b
Encoding: 98 98 68
Width: 600
Flags: W
LayerCount: 2
Fore
SplineSet
168.165039062 566 m 4,0,1
 207.64453125 566 207.64453125 566 231.14453125 539 c 132,-1,2
 254.64453125 512 254.64453125 512 270.625 469 c 5,3,-1
 280.025390625 428 l 5,4,-1
 285.665039062 266 l 5,5,-1
 285.665039062 0 l 5,6,-1
 245.245117188 0 l 5,7,-1
 245.245117188 306 l 6,8,9
 245.245117188 365 245.245117188 365 240.309570312 400 c 132,-1,10
 235.375 435 235.375 435 224.565429688 456 c 4,11,12
 214.6953125 475 214.6953125 475 201.76953125 484.5 c 132,-1,13
 188.844726562 494 188.844726562 494 167.6953125 494 c 4,14,15
 133.85546875 494 133.85546875 494 109.1796875 460.5 c 132,-1,16
 84.5048828125 427 84.5048828125 427 71.1103515625 369.5 c 132,-1,17
 57.71484375 312 57.71484375 312 57.71484375 239 c 6,18,-1
 57.71484375 228 l 6,19,20
 57.71484375 172 57.71484375 172 64.7646484375 134 c 132,-1,21
 71.8154296875 96 71.8154296875 96 84.26953125 77 c 132,-1,22
 96.724609375 58 96.724609375 58 113.64453125 58 c 4,23,24
 125.39453125 58 125.39453125 58 134.325195312 69.5 c 132,-1,25
 143.254882812 81 143.254882812 81 148.424804688 103 c 132,-1,26
 153.594726562 125 153.594726562 125 153.594726562 157 c 4,27,28
 153.594726562 207 153.594726562 207 141.375 232.5 c 132,-1,29
 129.155273438 258 129.155273438 258 109.415039062 258 c 4,30,31
 91.0849609375 258 91.0849609375 258 74.634765625 238 c 132,-1,32
 58.1845703125 218 58.1845703125 218 44.5546875 186 c 5,33,-1
 37.5048828125 248 l 5,34,35
 51.134765625 284 51.134765625 284 72.28515625 306 c 132,-1,36
 93.4345703125 328 93.4345703125 328 116.46484375 328 c 4,37,38
 139.025390625 328 139.025390625 328 156.1796875 309 c 132,-1,39
 173.334960938 290 173.334960938 290 182.969726562 253.5 c 132,-1,40
 192.60546875 217 192.60546875 217 192.60546875 165 c 4,41,42
 192.60546875 110 192.60546875 110 182.735351562 70 c 132,-1,43
 172.865234375 30 172.865234375 30 155.004882812 9 c 132,-1,44
 137.14453125 -12 137.14453125 -12 112.705078125 -12 c 260,45,46
 88.2646484375 -12 88.2646484375 -12 66.8798828125 14 c 132,-1,47
 45.4951171875 40 45.4951171875 40 32.5703125 96 c 132,-1,48
 19.64453125 152 19.64453125 152 19.64453125 241 c 4,49,50
 19.64453125 347 19.64453125 347 39.6201171875 419 c 132,-1,51
 59.5947265625 491 59.5947265625 491 93.2001953125 528.5 c 132,-1,52
 126.8046875 566 126.8046875 566 168.165039062 566 c 4,0,1
580.35546875 554 m 5,53,-1
 580.35546875 0 l 5,54,-1
 385.775390625 0 l 5,55,-1
 368.85546875 54 l 5,56,57
 382.014648438 81 382.014648438 81 393.530273438 112.5 c 132,-1,58
 405.044921875 144 405.044921875 144 412.565429688 187 c 132,-1,59
 420.084960938 230 420.084960938 230 420.084960938 292 c 4,60,61
 420.084960938 350 420.084960938 350 411.155273438 395.5 c 132,-1,62
 402.224609375 441 402.224609375 441 386.009765625 467.5 c 132,-1,63
 369.794921875 494 369.794921875 494 347.705078125 494 c 4,64,65
 328.434570312 494 328.434570312 494 316.21484375 479.5 c 132,-1,66
 303.995117188 465 303.995117188 465 296.004882812 436 c 4,67,68
 290.365234375 414 290.365234375 414 288.014648438 382 c 132,-1,69
 285.665039062 350 285.665039062 350 285.665039062 285 c 6,70,-1
 285.665039062 0 l 5,71,-1
 245.245117188 0 l 5,72,-1
 245.245117188 258 l 5,73,-1
 268.275390625 422 l 5,74,-1
 265.924804688 477 l 5,75,76
 280.025390625 524 280.025390625 524 299.764648438 545 c 132,-1,77
 319.504882812 566 319.504882812 566 348.174804688 566 c 4,78,79
 384.365234375 566 384.365234375 566 409.745117188 529.5 c 132,-1,80
 435.125 493 435.125 493 448.28515625 431 c 132,-1,81
 461.4453125 369 461.4453125 369 461.4453125 292 c 4,82,83
 461.4453125 236 461.4453125 236 455.8046875 194 c 132,-1,84
 450.165039062 152 450.165039062 152 441.235351562 120 c 132,-1,85
 432.3046875 88 432.3046875 88 421.495117188 61 c 5,86,-1
 412.094726562 70 l 5,87,-1
 539.934570312 70 l 5,88,-1
 539.934570312 554 l 5,89,-1
 580.35546875 554 l 5,53,-1
EndSplineSet
EndChar

StartChar: c
Encoding: 99 99 69
Width: 600
Flags: W
LayerCount: 2
Fore
SplineSet
424.259765625 17 m 4,0,1
 289.740234375 17 289.740234375 17 215.639648438 84 c 132,-1,2
 141.540039062 151 141.540039062 151 141.540039062 272 c 4,3,4
 141.540039062 352 141.540039062 352 174.599609375 407.5 c 132,-1,5
 207.66015625 463 207.66015625 463 269.219726562 492 c 5,6,-1
 9.2998046875 492 l 5,7,-1
 9.2998046875 564 l 5,8,-1
 590.700195312 564 l 5,9,-1
 590.700195312 492 l 5,10,-1
 474.419921875 492 l 6,11,12
 367.259765625 492 367.259765625 492 306.26953125 438.5 c 132,-1,13
 245.280273438 385 245.280273438 385 245.280273438 279 c 4,14,15
 245.280273438 192 245.280273438 192 294.299804688 141.5 c 132,-1,16
 343.3203125 91 343.3203125 91 434.51953125 91 c 4,17,18
 476.700195312 91 476.700195312 91 515.459960938 100.5 c 132,-1,19
 554.219726562 110 554.219726562 110 590.700195312 126 c 5,20,-1
 590.700195312 48 l 5,21,22
 557.639648438 32 557.639648438 32 517.740234375 24.5 c 132,-1,23
 477.83984375 17 477.83984375 17 424.259765625 17 c 4,0,1
EndSplineSet
EndChar

